<?xml version="1.0" encoding="UTF-8"?>
<svg width="71px" height="85px" viewBox="0 0 71 85" version="1.1" xmlns="http://www.w3.org/2000/svg" xmlns:xlink="http://www.w3.org/1999/xlink">
    <!-- Generator: Sketch 51.3 (57544) - http://www.bohemiancoding.com/sketch -->
    <title>instruction-arrow</title>
    <desc>Created with Sketch.</desc>
    <defs></defs>
    <g id="instruction-arrow" stroke="none" stroke-width="1" fill="none" fill-rule="evenodd">
        <path d="M31.5300302,80.1155621 C31.1888969,80.3076486 30.5564512,81.4259378 30.2179121,81.6249813 C30.0811287,81.4872545 28.8744076,81.0057248 28.7384495,80.8663471 C29.2137721,80.8092754 31.0537643,80.1716905 31.5300302,80.1155621 Z M30.6766701,78.0487345 C29.6935978,78.4801921 28.6075411,78.9402687 27.604305,79.3375304 C27.3262572,79.0331871 26.3407294,78.309911 26.0679879,78.0020303 C26.0899204,78.0012049 26.1047779,78.0099307 26.1276538,78.0089874 C27.3842931,77.9257381 29.4322941,78.185518 30.6766701,78.0487345 Z M24.3410965,75.2780345 C24.5051187,75.4323876 24.7322265,75.5332064 25.023481,75.5341497 C25.7583384,75.5367439 29.7524119,75.2560869 30.479369,75.2271973 C30.0269222,75.3938137 27.6460663,75.9179024 27.1936196,76.0853443 C26.7638129,76.2432349 25.1962291,76.5391546 25.1567269,76.9434913 C24.7349386,76.4505991 24.3191639,75.9525185 23.9078702,75.4490138 C24.0517287,75.3902913 24.1973559,75.3351062 24.3410965,75.2780345 Z M35.3641287,72.6564302 C34.4301098,72.8800004 30.5556648,72.995522 29.6260088,73.1603697 C30.9450261,72.7131113 35.9175776,71.8875729 37.2383636,71.4429087 C37.3067553,71.4201508 37.3497949,71.3797053 37.4076921,71.3490469 C37.3085241,71.7480774 37.2138369,72.1488765 37.1217439,72.5488503 C36.9094936,72.2637275 35.8386259,72.5424046 35.3641287,72.6564302 Z M35.4468492,75.6097772 C34.9337933,75.7080019 32.4031935,75.0399912 31.8901376,75.1285467 C32.5514149,74.8829261 35.9579051,74.4317457 36.6201258,74.1870683 C36.678023,74.1651358 36.7280197,74.137897 36.7788418,74.1107761 C36.7385143,74.3019193 37.0272377,75.1692151 36.9886789,75.3603582 C36.8360945,75.3164932 35.6213661,75.5765247 35.4468492,75.6097772 Z M33.7435457,78.173953 C34.5845282,77.7687909 35.4212658,77.3521909 36.2517538,76.9207333 C36.1964508,77.2557349 36.139497,77.5897932 36.0877315,77.9247948 C36.0351406,77.9213752 35.9877381,77.9038056 35.9307843,77.9107627 C35.2019406,77.9976674 34.4722715,78.0862229 33.7435457,78.173953 Z M35.8609866,81.2303791 C35.2848451,81.3681059 33.6085158,81.3364126 33.0394494,81.4276802 C33.6270287,81.1338316 35.1817768,80.45411 35.7817374,80.1787743 C35.7606303,80.3497536 35.8803249,81.0584564 35.8609866,81.2303791 Z M40.2360443,68.7321196 C40.456077,67.9822867 39.7185075,67.2604001 38.9748063,67.4708816 C36.6920551,68.1163581 34.4433818,68.873266 32.2289045,69.7187294 C28.4271492,59.3648096 25.1918661,48.8152658 22.6336613,38.0824793 C20.3586926,28.5406525 17.2285914,17.4815902 20.1745066,7.74862027 C23.7052891,-3.91653427 36.2491596,-6.7676444 46.7740588,-3.28945277 C56.7973399,0.0230657699 67.3583216,7.28108019 71.3592384,17.317568 C71.5661823,17.8367556 72.3221469,17.64915 72.2072959,17.0833852 C70.1400966,6.91542021 58.9240872,-0.407566357 50.0304489,-4.16557454 C40.7595948,-8.08312414 28.6410502,-8.22957679 21.7662654,0.240504335 C15.3245889,8.17654031 16.6489124,19.4960807 18.4695477,28.8221199 C21.238234,43.0042083 25.3005854,56.9301815 30.288112,70.4869573 C28.6902215,71.1429284 27.1099007,71.8427646 25.5513944,72.5909466 C24.2560785,73.0619063 22.9686629,73.5643497 21.6882045,74.1064132 C21.0014571,74.3975498 21.1172514,75.2867603 21.4767797,75.7446312 C25.6039853,81.0040739 30.269717,85.6653247 35.541423,89.777555 C36.2183833,90.3055864 37.3251503,90.0231756 37.3243249,89.03916 C37.3173678,82.117798 38.286408,75.3718962 40.2360443,68.7321196 Z" id="Fill-48" fill="#46230F" transform="translate(44.596408, 41.645506) rotate(-41.000000) translate(-44.596408, -41.645506) "></path>
    </g>
</svg>