<svg width="190" height="119" viewBox="0 0 190 119" fill="none" xmlns="http://www.w3.org/2000/svg">
<path fill-rule="evenodd" clip-rule="evenodd" d="M50.0005 53.5336L95.8435 28.68C88.8487 16.3646 73.2505 11.8614 60.743 18.6422C48.2354 25.4231 43.4973 40.9516 50.0005 53.5336ZM43.8457 56.8704L28.5058 65.1868C26.2174 66.4275 25.2637 69.2163 26.3133 71.5984L74.0962 180.048C75.2745 182.723 78.4856 183.821 81.0548 182.428L185.064 126.04C187.633 124.647 188.465 121.357 186.867 118.91L122.062 19.6889C120.638 17.5095 117.781 16.7869 115.492 18.0275L101.998 25.3432C93.1601 9.62937 73.313 3.86493 57.4067 12.4884C41.5004 21.1119 35.5006 40.8891 43.8457 56.8704Z" fill="#FAA500"/>
<path d="M101.042 70.1207C92.9879 73.5948 93.569 82.2566 93.59 82.534C93.369 82.3651 86.4276 77.1515 79.1321 82.0254C71.6966 86.9752 71.6913 99.4721 90.4192 108.716C108.512 117.648 111.886 116.712 112.077 116.634C112.246 116.516 114.872 114.2 117.261 94.1643C119.734 73.4262 109.259 66.6112 101.042 70.1207Z" fill="#FFDE00"/>
</svg>
