<svg width="370" height="391" viewBox="0 0 370 391" fill="none" xmlns="http://www.w3.org/2000/svg">
<g opacity="0.05">
<path d="M154.29 327.186L158.608 297.2L129.01 291.347L124.693 321.333L154.29 327.186Z" fill="black"/>
<path d="M321.702 54.2966L319.322 70.8168L351.337 77.1462L347.059 106.864L363.343 110.084L370 63.847L321.702 54.2966Z" fill="black"/>
<path d="M55.6182 57.1795L61.0089 19.7398L94.0879 26.2803L96.4658 9.76007L47.1034 2.23875e-05L39.3333 53.9599L55.6182 57.1795Z" fill="black"/>
<path d="M48.3935 336.722L50.7715 320.202L18.6611 313.852L22.9762 283.88L6.69277 280.661L-0.000334857 327.153L48.3935 336.722Z" fill="black"/>
<path d="M314.39 333.764L308.991 371.26L276.976 364.93L274.598 381.45L322.897 391L330.674 336.983L314.39 333.764Z" fill="black"/>
<path d="M316.831 207.168L334.092 87.3213L215.713 63.8127L198.444 183.758L316.831 207.168ZM300.221 111.115L300.185 111.356L291.525 171.51L291.551 171.329L232.33 159.799L240.964 99.8374L300.221 111.115Z" fill="black"/>
<path d="M133.325 261.361L137.643 231.374L167.242 237.227L171.56 207.241L82.7645 189.684L78.4465 219.67L108.045 225.521L103.74 255.425L133.325 261.361Z" fill="black"/>
<path d="M99.4115 285.494L103.729 255.508L74.1312 249.656L69.8132 279.642L40.2149 273.79L35.8983 303.776L65.4952 309.629L95.0935 315.48L99.4115 285.494Z" fill="black"/>
<path d="M297.234 347.736L314.494 227.889L196.115 204.382L178.844 324.326L297.234 347.736ZM280.622 251.683L280.586 251.926L271.92 312.079L271.946 311.898L212.725 300.368L221.365 240.405L280.622 251.683Z" fill="black"/>
<path d="M174.531 186.675L191.792 66.8284L73.4129 43.3198L56.1437 163.265L174.531 186.675ZM157.92 90.6223L157.886 90.8634L149.225 151.017L149.252 150.836L90.0301 139.304L98.6633 79.3445L157.92 90.6223Z" fill="black"/>
</g>
</svg>
