<svg width="283" height="295" viewBox="0 0 283 295" fill="none" xmlns="http://www.w3.org/2000/svg">
<path opacity="0.25" d="M200.169 189.887L171.932 249.557L159.23 251.587L156.401 245.843L183.794 190.687L118.253 194.821L90.345 251.389L85.2543 254.534L77.7353 245.454L105.32 180.874L65.0896 135.007L38.5456 187.245L32.2672 188.453L26.2084 177.102L62.828 107.347L121.541 107.262C122.125 116.549 122.937 124.988 123.587 130.967C115.839 128.468 110.115 127.998 109.037 130.17C107.617 133.029 114.727 139.561 125.62 145.814C127.604 146.955 129.716 148.085 131.923 149.184C134.13 150.284 136.304 151.283 138.412 152.179C149.971 157.088 159.469 158.812 160.888 155.952C161.965 153.784 158.136 149.497 151.467 144.832C156.498 141.814 163.489 137.5 171.029 132.517L205.629 178.354L200.169 189.887Z" fill="black"/>
<path d="M188.954 34.3417C184.226 31.9906 179.081 30.593 173.815 30.2289C168.548 29.8648 163.263 30.5412 158.26 32.2195C153.258 33.8979 148.636 36.5453 144.659 40.0105C140.682 43.4758 137.427 47.6911 135.081 52.4157C129.97 62.7061 130.079 86.5906 131.403 107.242C132.631 126.463 134.914 142.879 135.024 142.935C135.133 142.991 149.252 135.081 165.084 124.638C182.478 113.161 201.938 98.6297 207.092 88.2216C211.83 78.6804 212.581 67.6439 209.18 57.5397C205.779 47.4354 198.503 39.0909 188.954 34.3417ZM157.567 97.7263C153.998 95.9521 150.814 93.493 148.194 90.4895C145.575 87.4859 143.573 83.9967 142.302 80.221C141.031 76.4453 140.516 72.4572 140.786 68.4844C141.057 64.5115 142.108 60.6318 143.879 57.0667C145.649 53.5012 148.105 50.3201 151.106 47.7051C154.107 45.09 157.595 43.0922 161.37 41.8257C165.145 40.5592 169.134 40.049 173.108 40.324C177.083 40.599 180.965 41.6539 184.533 43.4285C191.74 47.0111 197.231 53.3069 199.799 60.9314C202.368 68.5559 201.803 76.8845 198.229 84.0854C196.458 87.6513 194.002 90.8327 191 93.448C187.998 96.0633 184.509 98.0614 180.734 99.328C176.958 100.595 172.969 101.105 168.994 100.83C165.019 100.556 161.136 99.5008 157.567 97.7263V97.7263Z" fill="#88B919"/>
<path d="M188.954 34.3417C184.226 31.9906 179.081 30.593 173.815 30.2289C168.548 29.8648 163.263 30.5412 158.26 32.2195C153.258 33.8979 148.636 36.5453 144.659 40.0105C140.682 43.4758 137.427 47.6911 135.081 52.4157C129.97 62.7061 130.079 86.5906 131.403 107.242C132.631 126.463 134.914 142.879 135.024 142.935C135.133 142.991 149.252 135.081 165.084 124.638C182.478 113.161 201.938 98.6297 207.092 88.2216C211.83 78.6804 212.581 67.6439 209.18 57.5397C205.779 47.4354 198.503 39.0909 188.954 34.3417ZM157.567 97.7263C153.998 95.9521 150.814 93.493 148.194 90.4895C145.575 87.4859 143.573 83.9967 142.302 80.221C141.031 76.4453 140.516 72.4572 140.786 68.4844C141.057 64.5115 142.108 60.6318 143.879 57.0667C145.649 53.5012 148.105 50.3201 151.106 47.7051C154.107 45.09 157.595 43.0922 161.37 41.8257C165.145 40.5592 169.134 40.049 173.108 40.324C177.083 40.599 180.965 41.6539 184.533 43.4285C191.74 47.0111 197.231 53.3069 199.799 60.9314C202.368 68.5559 201.803 76.8845 198.229 84.0854C196.458 87.6513 194.002 90.8327 191 93.448C187.998 96.0633 184.509 98.0614 180.734 99.328C176.958 100.595 172.969 101.105 168.994 100.83C165.019 100.556 161.136 99.5008 157.567 97.7263V97.7263Z" fill="#88B919"/>
<path d="M159.759 55.8891C159.646 55.833 159.545 55.7551 159.462 55.6601C159.379 55.565 159.316 55.4546 159.276 55.3351C159.236 55.2156 159.219 55.0894 159.228 54.9637C159.236 54.8379 159.27 54.7152 159.326 54.6024L162.188 48.8383C162.415 48.3832 162.814 48.0368 163.296 47.8748C163.779 47.7129 164.306 47.7485 164.763 47.9739L170.435 50.7957C170.662 50.9096 170.836 51.1089 170.917 51.3501C170.998 51.5912 170.98 51.8546 170.868 52.0825C170.754 52.3099 170.555 52.483 170.314 52.5638C170.073 52.6446 169.809 52.6266 169.581 52.5138L163.909 49.6919L161.045 55.4579C160.932 55.6853 160.733 55.8583 160.491 55.9392C160.25 56.02 159.987 56.002 159.759 55.8891V55.8891Z" fill="#E6007D"/>
<path d="M154.863 82.3933L149.094 79.5253C148.868 79.413 148.666 79.2573 148.5 79.0672C148.335 78.8771 148.208 78.6562 148.128 78.4172C148.047 78.1783 148.015 77.9258 148.032 77.6744C148.049 77.423 148.116 77.1774 148.228 76.9518L151.042 71.2834C151.098 71.1706 151.176 71.0699 151.271 70.9872C151.366 70.9045 151.476 70.8413 151.596 70.8012C151.715 70.7612 151.841 70.7451 151.967 70.7538C152.093 70.7625 152.216 70.796 152.329 70.8522C152.556 70.9653 152.73 71.1642 152.812 71.4051C152.893 71.646 152.876 71.9093 152.763 72.1371L149.947 77.8041L155.716 80.6753C155.829 80.7311 155.93 80.8087 156.013 80.9035C156.096 80.9983 156.16 81.1086 156.2 81.228C156.241 81.3474 156.257 81.4735 156.249 81.5992C156.24 81.7248 156.207 81.8475 156.151 81.9603C156.095 82.0734 156.017 82.1744 155.922 82.2575C155.827 82.3405 155.717 82.404 155.597 82.4442C155.477 82.4844 155.351 82.5006 155.225 82.4919C155.099 82.4832 154.976 82.4497 154.863 82.3933V82.3933Z" fill="#E6007D"/>
<path d="M177.037 93.4195L171.364 90.5996C171.136 90.4858 170.963 90.2866 170.882 90.0457C170.802 89.8047 170.82 89.5416 170.933 89.3142C170.988 89.2013 171.066 89.1005 171.16 89.0176C171.255 88.9347 171.365 88.8713 171.485 88.8311C171.604 88.7909 171.73 88.7747 171.856 88.7833C171.982 88.792 172.105 88.8254 172.217 88.8815L177.891 91.7015L180.755 85.9388C180.81 85.8259 180.888 85.7251 180.983 85.6422C181.077 85.5593 181.188 85.496 181.307 85.4558C181.426 85.4156 181.553 85.3993 181.678 85.408C181.804 85.4166 181.927 85.45 182.04 85.5062C182.153 85.5621 182.254 85.6398 182.337 85.7348C182.42 85.8299 182.483 85.9403 182.523 86.0599C182.564 86.1795 182.58 86.3058 182.571 86.4316C182.562 86.5574 182.529 86.6802 182.473 86.7929L179.61 92.557C179.498 92.7827 179.343 92.984 179.153 93.1494C178.963 93.3149 178.742 93.4413 178.503 93.5214C178.264 93.6015 178.012 93.6337 177.76 93.6163C177.509 93.5988 177.263 93.5319 177.037 93.4195V93.4195Z" fill="#E6007D"/>
<path d="M189.471 70.5422C189.358 70.4861 189.258 70.4084 189.175 70.3134C189.092 70.2184 189.029 70.108 188.989 69.9886C188.949 69.8692 188.933 69.7432 188.942 69.6176C188.95 69.492 188.984 69.3694 189.04 69.2569L191.86 63.5813L186.089 60.7118C185.861 60.598 185.688 60.3986 185.607 60.1575C185.526 59.9163 185.543 59.653 185.656 59.4251C185.77 59.1976 185.969 59.0246 186.21 58.9438C186.451 58.8629 186.715 58.8809 186.943 58.9938L192.712 61.8618C193.167 62.0897 193.514 62.4885 193.677 62.971C193.839 63.4534 193.804 63.9804 193.579 64.4367L190.763 70.1038C190.708 70.2181 190.631 70.3203 190.536 70.4045C190.441 70.4886 190.33 70.5529 190.209 70.5938C190.089 70.6346 189.962 70.651 189.835 70.6422C189.708 70.6333 189.585 70.5994 189.471 70.5422V70.5422Z" fill="#E6007D"/>
<path d="M174.949 58.9682L165.83 54.4341C165.548 54.2936 165.205 54.4086 165.065 54.6909L160.54 63.8019C160.4 64.0842 160.515 64.4271 160.798 64.5676L169.917 69.1017C170.199 69.2422 170.542 69.1272 170.682 68.8449L175.207 59.7339C175.347 59.4516 175.232 59.1088 174.949 58.9682Z" fill="#E6007D"/>
<path d="M168.977 70.9922L159.858 66.4581C159.576 66.3175 159.233 66.4325 159.093 66.7149L154.568 75.8258C154.427 76.1082 154.543 76.451 154.826 76.5915L163.944 81.1257C164.227 81.2662 164.57 81.1512 164.71 80.8688L169.235 71.7579C169.375 71.4755 169.26 71.1327 168.977 70.9922Z" fill="#E6007D"/>
<path d="M186.984 64.9521L177.865 60.418C177.582 60.2775 177.239 60.3925 177.099 60.6749L172.574 69.7858C172.434 70.0682 172.55 70.411 172.832 70.5515L181.951 75.0856C182.234 75.2262 182.576 75.1112 182.717 74.8288L187.242 65.7179C187.382 65.4355 187.266 65.0927 186.984 64.9521Z" fill="#E6007D"/>
<path d="M179.051 82.2133L176.918 86.5065C176.862 86.6193 176.784 86.7199 176.689 86.8027C176.594 86.8854 176.483 86.9486 176.364 86.9887C176.244 87.0287 176.118 87.0448 175.992 87.0361C175.867 87.0274 175.744 86.9939 175.631 86.9377L171.334 84.8004C171.221 84.7446 171.12 84.6671 171.037 84.5722C170.954 84.4774 170.89 84.3671 170.85 84.2478C170.81 84.1284 170.793 84.0023 170.802 83.8766C170.81 83.7509 170.844 83.6282 170.9 83.5155L172.52 80.2518L169.255 78.6261C169.027 78.5129 168.854 78.314 168.772 78.0731C168.691 77.8322 168.708 77.5689 168.821 77.3411L170.955 73.0461C171.011 72.9334 171.089 72.8329 171.184 72.7503C171.279 72.6677 171.389 72.6046 171.508 72.5647C171.628 72.5248 171.754 72.5089 171.879 72.5178C172.005 72.5267 172.128 72.5603 172.24 72.6167L176.539 74.7522C176.766 74.866 176.94 75.0654 177.021 75.3065C177.102 75.5477 177.084 75.811 176.972 76.0389L175.351 79.3026L178.618 80.9265C178.845 81.0404 179.019 81.2397 179.1 81.4808C179.181 81.722 179.163 81.9853 179.051 82.2133V82.2133Z" fill="#E6007D"/>
</svg>
