<svg width="141" height="57" viewBox="0 0 141 57" fill="none" xmlns="http://www.w3.org/2000/svg">
<g clip-path="url(#clip0_2485_6358)">
<path d="M53.926 36.4854C53.8416 36.4618 53.7546 36.4513 53.6729 36.4513C53.3986 36.4513 53.1929 36.5799 53.011 36.6928C52.8475 36.7952 52.7051 36.8844 52.5311 36.8844H52.5021C52.4678 36.8818 52.4414 36.8687 52.4177 36.8372C52.2068 36.5773 52.3623 35.5876 52.4204 35.2175L52.4362 35.1151C52.5891 34.1595 52.7447 33.0307 52.8739 32.0725L52.8792 32.0778L52.9504 31.5554C53.0295 30.9883 53.1771 29.933 53.1798 29.681C53.1929 28.8672 52.9978 28.6834 52.7711 28.4682L52.7104 28.4104C52.3597 28.0691 51.8877 27.6544 51.036 27.1608C50.8251 27.0375 50.4902 26.8484 50.2107 26.8878C49.9813 26.9193 49.7492 27.1503 49.62 27.3656C49.5726 27.4444 49.4987 27.6255 49.4144 27.8355L49.3959 27.8801C49.3748 27.9011 49.3537 27.9169 49.33 27.9326C49.2773 27.9694 49.1639 27.9064 49.0478 27.846C48.9977 27.8198 48.9476 27.7935 48.8949 27.7699C47.7453 27.2501 46.2053 27.1556 46.1447 27.1503C46.1368 27.1503 45.9258 27.132 45.5646 27.132C45.2772 27.132 44.9819 27.1425 44.6839 27.1661C43.1967 27.2658 42.1763 27.6071 41.8994 27.7095C41.5882 27.825 41.1901 27.9773 40.871 28.1374C39.1518 28.9591 37.9072 30.2349 37.1636 31.936C37.0054 32.3482 35.7134 36.0181 38.6165 38.3808C38.6693 38.4254 38.722 38.4674 38.7774 38.5094L38.8433 38.5567C38.9303 38.6223 39.02 38.6827 39.107 38.7404L39.194 38.7982C39.2309 38.8218 39.2678 38.8428 39.3048 38.8638C39.6528 39.0765 40.0088 39.2576 40.3964 39.4177L40.6179 39.4965L40.6126 39.4755C41.0978 39.654 41.4696 39.7432 41.6805 39.7931L41.7517 39.8115C42.1499 39.9191 42.9858 39.9611 43.2679 39.9611C43.2943 39.9611 43.3154 39.9611 43.3338 39.9611C45.2139 39.9034 46.4321 39.4519 47.1625 39.0397V39.045L47.3576 38.9242C47.798 38.6486 48.0775 38.3782 48.2357 38.1944L48.2515 38.2338L48.2594 38.2207C48.2884 38.2837 48.3122 38.3257 48.3306 38.3572C48.5838 38.8008 49.4618 39.6382 50.9727 39.6382C51.1547 39.6382 51.3419 39.6251 51.5317 39.6015C52.3703 39.4965 53.8442 39.0922 54.3031 37.5959C54.3637 37.399 54.4402 37.0288 54.2899 36.7584C54.2134 36.6219 54.0895 36.5274 53.926 36.4854ZM48.7552 30.374C48.7604 30.6182 48.4941 32.9651 48.3069 33.9653C48.212 34.4719 47.9246 35.7162 47.2917 36.3647C46.4611 37.2126 45.8652 37.525 44.8342 37.6589C44.7155 37.6746 44.5863 37.6904 44.436 37.6904C43.9271 37.6904 43.4419 37.5066 42.9541 37.126C42.3318 36.6403 41.6937 35.543 41.7728 33.9233C41.7886 33.5899 41.8335 33.2827 41.9126 32.9887L41.9231 32.952C42.0233 32.5871 42.1763 32.2484 42.3925 31.9124C43.7557 29.5812 46.3477 29.4421 46.382 29.4395C46.6061 29.4132 46.8171 29.4001 47.0122 29.4001C48.7103 29.4001 48.7525 30.3347 48.7552 30.3767V30.374ZM73.3199 32.9047C73.3199 32.9388 73.3199 32.9651 73.3199 32.9835C73.3304 33.3615 73.1828 35.0521 72.2625 36.3935C71.2183 37.9109 69.8525 38.8376 68.8927 39.3469C68.7951 39.3994 68.6975 39.4519 68.5973 39.5044C67.9935 39.8325 67.3686 40.1712 66.6092 40.3103C66.5643 40.3182 66.509 40.3208 66.4747 40.3208C66.4325 40.3208 66.2875 40.3182 66.1899 40.2788L66.1688 40.2709C66.0238 40.2132 65.826 40.1344 65.8181 39.8351C65.8181 39.7669 65.8471 39.6697 66.0106 39.3862C66.4615 38.7824 67.9381 36.6088 68.3257 33.4586C68.542 31.705 68.3495 30.4869 67.7535 29.8411C67.3712 29.4264 66.8148 29.2242 66.0475 29.2242C65.9473 29.2242 65.8445 29.2268 65.739 29.2347C63.7086 29.3607 62.762 31.2718 62.5432 32.2642C62.3348 33.4245 62.0501 35.0757 61.8523 36.2754C61.8128 36.6561 61.789 37.5827 62.443 37.8138C63.0705 38.0343 63.3764 38.4307 63.2841 38.8979C63.2129 39.2576 62.9598 39.4702 62.588 39.4834C62.0685 39.5017 61.5623 39.4755 61.0771 39.4492C60.7818 39.4335 60.5049 39.4204 60.2307 39.4151C59.7086 39.4072 59.1786 39.402 58.6512 39.402C58.4007 39.402 58.166 39.402 57.9551 39.402C57.8786 39.402 57.8048 39.4046 57.7362 39.4046C57.6096 39.4046 57.5174 39.4046 57.4251 39.4099C57.3301 39.4099 57.2352 39.4151 57.106 39.4151C57.048 39.4151 56.9636 39.4177 56.8608 39.423C56.6261 39.4335 56.3018 39.4466 55.9906 39.4309C55.632 39.4204 55.4738 39.3836 55.3657 39.2865C55.1838 39.1473 55.1679 38.8953 55.1706 38.7929C55.1785 38.5357 55.2655 38.3073 55.429 38.1314C55.6083 37.9371 55.8324 37.8794 56.0486 37.8216C56.4468 37.7166 56.8581 37.6116 57.1166 36.5799C57.2721 35.6611 57.4804 34.3538 57.6808 33.0911C57.8733 31.8835 58.0526 30.7416 58.1634 30.1089C58.1634 30.08 58.1687 30.0459 58.1739 30.0118C58.1818 29.9698 58.1924 29.9041 58.1766 29.8858C58.1634 29.8726 58.0869 29.8464 57.9313 29.8621C57.8417 29.8674 56.6657 29.9251 56.4415 29.282C56.162 28.4787 56.7263 28.2818 56.9953 28.1873L57.0612 28.1636C57.3512 28.0534 60.3045 27.2133 60.8899 27.1635C60.9611 27.1582 61.0323 27.1477 61.1008 27.1372C61.2116 27.1215 61.3276 27.1057 61.4357 27.1057C61.6071 27.1057 61.7416 27.1477 61.847 27.2317C62.29 27.594 62.2716 28.14 62.2531 28.5837C63.0178 27.867 64.2307 27.0821 65.9341 26.9456C66.0501 26.9193 66.2822 26.9036 66.7595 26.9036C66.8016 26.9036 66.8438 26.9036 66.8834 26.9036C67.4582 26.9219 67.9882 26.9928 68.1385 27.0165C69.8498 27.2501 71.0575 27.8985 72.0595 29.1192C72.6475 29.8333 73.341 31.0697 73.3146 32.8968L73.3199 32.9047ZM36.7787 24.1078L34.2104 38.8796C34.1946 38.9793 34.1128 39.4414 34.1128 39.4466C34.039 39.8299 33.6356 40.0871 33.3033 40.0871H33.2717C32.4595 40.0871 31.5366 38.8796 31.4971 38.8297L31.3995 38.6932C30.3923 37.4069 24.7995 28.8068 23.7263 27.153L22.1653 36.2229C22.1601 36.2439 21.8674 37.5985 22.6294 37.9266C23.816 38.4412 23.8054 38.8638 23.7026 39.2235C23.6551 39.3889 23.5418 39.6172 23.112 39.6855C23.083 39.6934 23.0434 39.6986 23.0038 39.7012C22.9933 39.7012 22.9828 39.7012 22.9748 39.7012H22.9432C22.8404 39.7012 22.727 39.6855 22.6057 39.6671C22.5029 39.654 22.3947 39.6382 22.284 39.633L22.197 39.6277C21.9096 39.6067 21.0368 39.5385 19.7605 39.5385C18.893 39.5385 17.9991 39.612 17.4059 39.6619C17.1316 39.6855 16.9128 39.7012 16.7704 39.7065L16.7519 39.7117C16.7519 39.7117 16.6965 39.7196 16.6148 39.7196C16.4566 39.7196 16.1639 39.6881 15.9688 39.4729C15.8185 39.3075 15.7552 39.0712 15.7842 38.7719C15.8238 38.3467 16.3643 38.2154 16.8864 38.0868L16.9339 38.0763C18.0202 37.8111 18.392 36.5458 18.5001 36.0129C18.5028 35.9998 18.5054 35.9866 18.5081 35.9788C18.719 34.7502 19.2094 31.7365 19.6445 29.0746C20.048 26.5964 20.396 24.4569 20.483 23.9713C20.6333 23.1417 20.3802 22.5353 19.7131 22.1179L19.6894 22.1074C19.3729 21.9604 19.2305 21.8921 18.9352 21.7005C18.7401 21.5719 18.5318 21.2542 18.545 21.0048C18.5581 20.7371 18.7506 20.5087 19.0038 20.4404L19.0407 20.4325C19.0512 20.4325 19.0644 20.4273 19.075 20.4273H19.0908C19.0908 20.4273 19.3123 20.3879 19.6656 20.3538H19.6735H19.6814H19.6867H19.7052C20.1587 20.3092 20.6281 20.2855 21.0948 20.2855C21.2424 20.2855 21.398 20.2855 21.5562 20.2934C21.6881 20.2934 21.812 20.296 21.9227 20.2987H21.9781C22.1179 20.2987 22.3473 20.3065 22.64 20.3459C22.7718 20.3617 22.8325 20.3748 22.8325 20.3748C24.9208 20.7082 26.8193 22.4618 28.9815 26.0609C29.7726 27.3761 30.7509 28.9486 31.5366 30.2113C31.8161 30.6602 32.0666 31.0618 32.267 31.3847L33.5143 23.9923C33.5143 23.9923 33.7305 22.4434 32.6652 22.0103C32.0561 21.7635 31.7107 21.3592 31.7581 20.9576C31.8135 20.4929 32.1774 20.2462 32.7048 20.3197L32.7364 20.3275C32.797 20.3328 32.863 20.3407 32.9315 20.3512C33.0344 20.3643 33.1425 20.38 33.2559 20.3853L33.3402 20.3905C33.6277 20.4115 34.4978 20.4798 35.7793 20.4798C36.6442 20.4798 37.5433 20.4063 38.1366 20.3564C38.4715 20.3275 38.7141 20.3092 38.8486 20.3092C38.8987 20.3092 38.933 20.3092 38.962 20.317H38.9646C39.2046 20.317 39.4102 20.4588 39.4946 20.6793L39.5051 20.6846L39.5289 20.7502C39.6423 21.3671 39.2046 21.8081 38.2316 22.0549C37.0107 22.3647 36.8024 24.0185 36.8024 24.0343L36.7945 24.0999L36.7839 24.1051L36.7787 24.1078ZM92.1047 36.5563C92.0177 36.5327 91.9359 36.5222 91.8516 36.5222H91.8225C91.5457 36.5222 91.3374 36.6508 91.1528 36.7663C90.9867 36.8687 90.8416 36.958 90.6597 36.958C90.6254 36.958 90.5964 36.9422 90.5727 36.9107C90.3591 36.6456 90.5173 35.6506 90.5753 35.2752L90.5911 35.1728C90.6808 34.6163 90.7784 33.96 90.897 33.1095C90.9682 32.6737 91.0368 32.2432 91.1001 31.8363C91.2662 30.7836 91.667 28.6572 91.9096 27.5415C92.5688 24.5199 93.3255 22.5248 93.6868 21.5666C93.8608 21.1072 93.9162 20.9576 93.9136 20.8709C93.9083 20.7187 93.8977 20.2593 93.5049 20.0493C93.4363 20.0125 93.3572 19.9941 93.2649 19.9941C92.814 19.9941 92.1337 20.443 91.7672 20.7108C88.8667 22.8267 87.7012 26.5177 87.2898 27.8985C87.2503 27.8801 87.2081 27.8591 87.1633 27.8355C87.1132 27.8093 87.0631 27.783 87.0103 27.7594C85.8448 27.237 84.2865 27.1372 84.2232 27.1346C84.2153 27.1346 83.9991 27.1162 83.6378 27.1162H83.5956C83.3082 27.1162 83.0129 27.1293 82.7176 27.1503C81.2119 27.2501 80.1783 27.5966 79.8961 27.699C79.5797 27.8145 79.1763 27.9694 78.8546 28.1321C77.1143 28.9617 75.8513 30.2507 75.0998 31.9675C74.9415 32.3823 73.631 36.089 76.5711 38.4753C76.6238 38.5199 76.6792 38.5646 76.732 38.6039L76.7979 38.6538C76.8875 38.7194 76.9772 38.7824 77.0668 38.8402L77.1538 38.8979C77.1908 38.9216 77.2303 38.9426 77.2646 38.9636C77.6179 39.1788 77.9792 39.36 78.3694 39.5227L78.3932 39.5332C78.7069 39.6619 79.1868 39.801 79.7485 39.9218C80.1282 40.0031 80.9482 40.0714 81.2805 40.0714H81.2937C81.3227 40.0714 81.3491 40.0714 81.3701 40.0714C83.2739 40.011 84.5106 39.5569 85.2489 39.1421V39.1473L85.444 39.0266C85.8844 38.7536 86.1639 38.4832 86.3274 38.2994C86.3617 38.3729 86.388 38.4228 86.4065 38.4543C86.6544 38.8874 87.5166 39.7144 88.9959 39.7459C89.2121 39.7511 89.4441 39.7406 89.6762 39.7117C90.5252 39.6041 92.0203 39.1998 92.4818 37.6851C92.5424 37.4856 92.6215 37.1128 92.4686 36.8398C92.3921 36.7007 92.2655 36.6062 92.0994 36.5616L92.1047 36.5563ZM79.7933 33.9626C79.8091 33.6266 79.8566 33.3168 79.9357 33.0202L79.9463 32.9808C80.0491 32.6133 80.2047 32.2694 80.4235 31.9308C81.8052 29.5786 84.4315 29.4369 84.4658 29.4342C84.6926 29.408 84.9061 29.3949 85.1039 29.3949C86.4012 29.3949 86.744 29.9488 86.831 30.2008C86.8363 30.269 86.8389 30.332 86.8416 30.3872C86.8468 30.6339 86.5779 33.0228 86.388 34.0388C86.3142 34.4404 86.1375 35.2122 85.7974 35.8528C85.6708 36.0838 85.5311 36.2754 85.3834 36.425C84.5423 37.2782 83.9384 37.5959 82.8942 37.7297C82.7729 37.7455 82.6411 37.7612 82.4908 37.7612C81.974 37.7612 81.4835 37.5749 80.9904 37.1916C80.3602 36.7007 79.7142 35.5955 79.7933 33.96V33.9626ZM123.789 35.8291C123.807 36.7322 123.312 37.7219 122.463 38.4805C121.69 39.171 120.58 39.6986 119.341 39.9638C119.043 40.0268 117.961 40.2368 116.614 40.2368C115.604 40.2368 114.687 40.1213 113.882 39.8903L113.888 39.9008L113.642 39.8246C112.925 39.5989 112.35 39.2917 111.931 38.9189C111.839 38.8376 111.762 38.7641 111.707 38.6958C111.699 38.6853 111.688 38.6722 111.681 38.6617C111.111 37.9896 111.029 37.1653 111.451 36.3988C111.712 35.9236 112.102 35.5614 112.551 35.3855C113.323 35.0783 114.054 35.0652 114.294 35.06H114.344C114.373 35.0573 114.404 35.0573 114.436 35.0573C114.752 35.0573 115.356 35.144 115.599 35.4616C115.691 35.585 115.723 35.7294 115.691 35.8843C115.673 35.9735 115.607 36.1048 115.401 36.2124C114.839 36.5038 114.449 36.7558 114.373 37.0393C114.338 37.1706 114.367 37.3123 114.468 37.4804C114.665 37.8138 115.34 38.008 116.316 38.0185H116.366C117.36 38.0185 118.162 37.7534 118.563 37.2913C118.745 37.0813 118.829 36.8451 118.811 36.6062C118.805 36.5379 118.779 36.4487 118.731 36.3463C118.286 35.4747 117.057 34.3459 114.866 32.8023C114.792 32.7498 114.721 32.6973 114.652 32.6448C113.3 31.6866 113.336 30.8859 113.35 30.6234V30.5946C113.352 30.5762 113.355 30.5683 113.355 30.5578C113.35 30.2192 113.452 30.0039 113.458 29.9934L113.474 29.9593C114.009 28.1847 116.055 27.6622 117.236 27.5074C117.671 27.4522 118.014 27.4391 118.194 27.4365H118.259C118.455 27.426 118.65 27.4207 118.84 27.4207C119.813 27.4207 120.543 27.5205 120.873 27.6045C121.062 27.6544 121.234 27.678 121.384 27.678C121.848 27.678 122.022 27.4417 122.173 27.2317L122.199 27.195C122.315 27.0296 122.573 26.8301 122.903 26.8616H122.95C123.312 26.8904 123.501 27.0585 123.465 27.8749C123.438 28.4445 123.283 30.206 123.248 30.5552C123.217 30.8728 123.138 31.0776 123.014 31.1668C122.945 31.2167 122.784 31.306 122.557 31.2823C122.228 31.2508 121.967 30.7967 121.917 30.6917C121.74 30.2218 121.031 29.6705 119.612 29.6705H119.525C118.8 29.6862 118.547 29.8149 118.462 29.9173C118.412 29.9776 118.415 30.0406 118.426 30.1273V30.143C118.452 30.3609 118.858 30.6313 119.185 30.8492C119.309 30.9306 119.425 31.0093 119.53 31.0881C120.24 31.6184 120.801 32.0174 121.25 32.3403C121.748 32.6973 122.109 32.9546 122.41 33.1987C122.892 33.5899 123.768 34.2987 123.799 35.8291H123.789ZM111.731 27.7042C111.652 27.7462 111.493 27.8014 111.343 27.8303C111.285 27.8408 111.232 27.8486 111.185 27.8513C111.029 27.8565 110.908 27.8198 110.818 27.741C110.578 27.5231 110.655 27.2422 110.737 27.111C111.572 25.8824 111.377 24.0369 111.132 23.1365L111.127 23.1207V23.1128L111.119 23.0183C111.069 22.8004 111.042 22.5878 111.042 22.3935C111.04 21.417 111.638 21.0442 111.707 21.0048C111.723 20.9917 111.77 20.9654 111.87 20.9156V20.9103L111.913 20.8919C111.942 20.8814 112.037 20.8447 112.118 20.8158C112.166 20.8001 112.208 20.7869 112.232 20.7817C112.247 20.7764 112.274 20.7712 112.298 20.7633C112.311 20.7633 112.329 20.7581 112.366 20.7554C112.651 20.7029 113.102 20.6819 113.576 20.8788C113.611 20.8919 113.64 20.9077 113.669 20.9234C113.898 21.039 114.109 21.207 114.291 21.4144C114.452 21.627 114.568 21.8764 114.639 22.1652C114.731 22.551 114.75 23.0052 114.694 23.525C114.694 23.5302 114.615 24.1577 114.468 24.5777L114.325 25.0108C114.199 25.3363 114.122 25.4991 113.953 25.7774C113.938 25.8089 113.903 25.8588 113.853 25.9349C113.827 25.9743 113.801 26.0136 113.779 26.0504C113.637 26.2578 113.574 26.3497 113.371 26.5623C113.334 26.6043 113.276 26.6594 113.215 26.7198L113.147 26.7854C113.031 26.8983 112.88 27.0217 112.704 27.153C112.282 27.4627 111.944 27.6229 111.739 27.7042H111.736H111.731ZM108.69 28.9039C107.016 27.2606 104.516 27.0138 103.177 27.0138C102.462 27.0138 101.99 27.0821 101.937 27.0873C98.6968 27.5677 96.3078 28.7806 94.8417 30.6943C93.344 32.6474 93.3888 34.5848 93.4363 35.1335C93.6815 37.8584 95.3058 39.4807 98.2696 39.9533V39.9638C98.3065 39.9716 99.1846 40.1291 100.463 40.1291C101.988 40.1291 103.375 39.9086 104.585 39.4755C105.866 39.0345 106.718 38.3519 106.755 38.323C108.39 37.147 109.104 35.8186 109.133 35.7635C110.154 33.8314 110.911 31.0776 108.711 28.9223L108.69 28.9013V28.9039ZM98.3355 35.1623C98.3223 35.0521 98.3171 34.9366 98.3144 34.8079V34.7791C98.3144 34.7659 98.3144 34.7528 98.3144 34.7397C98.3118 34.0913 98.586 33.1278 98.6651 32.9126L98.681 32.8706C98.9367 32.167 99.0422 31.8756 99.3903 31.3664C99.973 30.5158 100.234 30.2428 100.859 29.8228C101.415 29.4526 102.167 29.3712 102.227 29.3633H102.241C102.336 29.3476 102.507 29.3397 102.697 29.3397C102.921 29.3397 103.127 29.3529 103.216 29.3712H103.235C103.301 29.3791 103.886 29.4342 104.416 29.9461C104.975 30.4869 105.289 31.2141 105.352 32.1119C105.384 32.5687 105.352 32.952 105.241 33.5767C105.041 34.6872 104.638 35.4406 104.334 35.879C103.862 36.5589 103.467 37.0236 102.831 37.3806C102.52 37.5539 101.943 37.8794 100.983 37.8794C100.738 37.8794 100.482 37.8584 100.218 37.8164C99.9124 37.7691 99.4905 37.5014 99.4615 37.483C99.4351 37.4646 99.2795 37.3386 99.2162 37.2756C98.7205 36.7873 98.441 36.1153 98.3355 35.1623Z" fill="#CE0A24"/>
<path d="M126.836 38.5592C125.94 38.5592 125.238 37.8557 125.238 36.9605C125.238 36.0653 125.94 35.3696 126.836 35.3696C127.733 35.3696 128.434 36.0679 128.434 36.9605C128.434 37.853 127.733 38.5592 126.836 38.5592ZM126.836 35.6374C126.09 35.6374 125.507 36.2176 125.507 36.9605C125.507 37.7034 126.09 38.2914 126.836 38.2914C127.582 38.2914 128.165 37.706 128.165 36.9605C128.165 36.2149 127.582 35.6374 126.836 35.6374ZM127.248 37.8399L126.87 37.0865H126.53V37.8399H126.259V36.0522H126.955C127.295 36.0522 127.511 36.2701 127.511 36.5746C127.511 36.8318 127.356 36.9946 127.153 37.0497L127.567 37.8399H127.248ZM126.931 36.2963H126.528V36.8555H126.931C127.113 36.8555 127.237 36.7531 127.237 36.5772C127.237 36.4013 127.113 36.2963 126.931 36.2963Z" fill="#CE0A24"/>
</g>
<defs>
<clipPath id="clip0_2485_6358">
<rect width="140" height="56" fill="white" transform="translate(0.5 0.875)"/>
</clipPath>
</defs>
</svg>
