<svg width="375" height="162" viewBox="0 0 375 162" fill="none" xmlns="http://www.w3.org/2000/svg">
<g clip-path="url(#clip0)">
<path d="M375 -1H0V162H375V-1Z" fill="#5F7373"/>
<path opacity="0.16" d="M211.05 106.58C211.5 106.13 211.5 106.13 211.5 106.13C211.05 106.13 210.59 107.04 211.05 106.58Z" fill="white"/>
<path opacity="0.16" d="M182.5 84.8401C182.95 84.3901 182.95 84.3901 182.95 84.3901C182.5 84.3801 182.05 84.8401 182.5 84.8401Z" fill="white"/>
<path opacity="0.16" d="M339.72 37.2601H340.17C340.17 36.8101 339.72 36.3501 339.26 36.3501C338.81 36.8101 339.26 37.2601 339.72 37.2601Z" fill="white"/>
<path opacity="0.16" d="M212.41 137.39C212.86 137.39 212.86 136.94 212.41 137.39V137.39Z" fill="white"/>
<path opacity="0.16" d="M153.96 63.0901C153.51 63.0901 153.51 63.5401 153.96 63.0901V63.0901Z" fill="white"/>
<path opacity="0.16" d="M154.87 94.35C155.32 93.9 154.87 93.9 154.87 94.35V94.35Z" fill="white"/>
<path opacity="0.16" d="M365.54 95.2601C365.09 94.8001 365.09 95.2601 365.54 95.2601V95.2601Z" fill="white"/>
<path opacity="0.16" d="M367.35 143.28C366.9 143.73 367.8 143.73 367.8 144.19C368.26 143.73 367.81 143.28 367.35 143.28Z" fill="white"/>
<path opacity="0.16" d="M337.9 84.8401C337.96 84.9001 338.03 84.9701 338.09 85.0301C337.9 84.8401 337.9 84.8401 337.9 84.8401Z" fill="white"/>
<path opacity="0.16" d="M281.72 79.8499C282.17 79.3999 281.72 78.9399 281.27 78.9399C280.82 79.3999 281.72 79.3999 281.72 79.8499Z" fill="white"/>
<path opacity="0.16" d="M310.72 58.5599C311.17 58.1099 310.72 57.6499 310.27 57.6499C309.81 58.1099 310.27 58.5599 310.72 58.5599Z" fill="white"/>
<path opacity="0.16" d="M338.53 85.46C338.49 85.42 338.31 85.24 338.09 85.02C338.15 85.08 338.24 85.17 338.35 85.28C338.45 85.39 338.51 85.44 338.53 85.46Z" fill="white"/>
<path opacity="0.16" d="M309.37 107.04C309.45 107.12 309.51 107.18 309.54 107.21C309.52 107.19 309.47 107.14 309.37 107.04Z" fill="white"/>
<path opacity="0.16" d="M240.04 127.88C240.49 127.43 240.49 127.43 240.49 127.43C240.04 127.42 239.59 128.33 240.04 127.88Z" fill="white"/>
<path opacity="0.16" d="M240.95 158.68C241.4 158.68 241.4 158.23 240.95 158.68V158.68Z" fill="white"/>
<path opacity="0.16" d="M280.37 127.89C280.45 127.97 280.51 128.03 280.54 128.06C280.52 128.03 280.47 127.98 280.37 127.89Z" fill="white"/>
<path opacity="0.16" d="M210.59 57.2C210.14 57.65 209.68 57.65 209.68 58.11C210.14 58.11 211.05 57.65 210.59 57.2Z" fill="white"/>
<path opacity="0.16" d="M239.14 78.49C238.69 78.94 238.23 78.94 238.23 79.4C238.68 79.4 239.59 78.95 239.14 78.49Z" fill="white"/>
<path opacity="0.16" d="M-21 21.0299L6.26 -6.23009L-21 -33.8401V21.0299Z" fill="white"/>
<path opacity="0.16" d="M90.99 224.38L91.44 83.9299L21.21 154.15L90.99 224.38Z" fill="white"/>
<path opacity="0.16" d="M-21 380H4.65L6.26 29.5601L-21 56.5801V380Z" fill="white"/>
<path opacity="0.16" d="M91.89 64.45L92.34 -76L21.67 -6.23L91.89 64.45Z" fill="white"/>
<path opacity="0.16" d="M152.6 142.37C152.15 142.37 151.69 142.37 151.69 143.28C152.15 143.28 153.05 142.83 152.6 142.37Z" fill="white"/>
<path opacity="0.16" d="M181.6 35.45C181.15 35.9 180.69 35.9 180.69 36.36H181.14C181.6 36.36 182.5 35.91 181.6 35.45Z" fill="white"/>
<path opacity="0.16" d="M366.45 64C366.62 64.17 366.78 64.33 366.9 64.45C366.9 64 366.9 64 366.45 64Z" fill="white"/>
<path opacity="0.16" d="M110.47 78.0401L108.66 346.7L259.53 200.36H259.98L409.49 348.06L410.85 78.9401L261.34 -72.3799L110.47 78.0401ZM240.04 94.3501C244.12 94.3501 247.29 97.0701 246.84 101.15C246.84 104.77 243.67 107.95 240.04 107.95C236.42 107.95 233.24 104.78 233.24 101.15C233.25 97.5201 236.42 94.3501 240.04 94.3501ZM233.7 75.3201C233.7 71.7001 236.87 68.5201 240.5 68.5201C244.12 68.5201 247.3 71.6901 247.3 75.3201C247.3 78.9401 244.13 82.1201 240.5 82.1201C236.87 82.1201 233.7 78.9501 233.7 75.3201ZM211.5 72.6001C215.12 72.6001 218.3 75.7701 218.3 79.4001C218.3 83.0201 215.13 86.2001 211.5 86.2001C207.88 86.2001 204.7 83.0301 204.7 79.4001C204.7 75.7801 207.88 72.6001 211.5 72.6001ZM205.16 54.0301C205.16 50.4101 208.33 47.2301 211.96 47.2301C215.58 47.2301 218.76 50.4001 218.76 54.0301C218.76 57.6501 215.59 60.8301 211.96 60.8301C208.33 60.8201 205.16 57.6501 205.16 54.0301ZM182.96 25.4901C186.58 25.4901 189.76 28.6601 189.76 32.2901C189.76 35.9101 186.59 39.0901 182.96 39.0901C179.34 39.0901 176.16 35.9201 176.16 32.2901C176.16 28.6601 179.33 25.4901 182.96 25.4901ZM182.96 50.8601C186.58 50.8601 189.76 54.0301 189.76 57.6601C189.76 61.2901 186.59 64.4601 182.96 64.4601C179.34 64.4601 176.16 61.2901 176.16 57.6601C176.16 54.0301 179.33 50.8601 182.96 50.8601ZM153.51 157.78C157.13 157.78 160.31 160.95 160.31 164.58C160.31 168.2 157.14 171.38 153.51 171.38C149.89 171.38 146.71 168.21 146.71 164.58C146.71 160.5 149.88 157.78 153.51 157.78ZM147.17 138.75C147.17 135.13 149.89 131.95 153.97 131.95C157.59 131.95 160.76 135.12 160.76 138.75C160.76 142.37 157.59 145.55 153.97 145.55C150.34 145.55 147.17 142.37 147.17 138.75ZM124.97 136.03C128.59 136.03 131.77 139.2 131.77 142.83C131.77 146.46 128.6 149.63 124.97 149.63C120.89 149.63 118.17 146.91 118.17 142.83C118.17 139.2 121.34 136.03 124.97 136.03ZM118.17 117.46C118.17 113.84 121.34 110.66 124.97 110.66C128.59 110.66 131.77 113.83 131.77 117.46C131.77 121.08 128.6 124.26 124.97 124.26C121.34 124.25 118.17 121.08 118.17 117.46ZM124.06 303.66C120.44 303.66 117.26 300.49 117.26 296.86C117.26 293.24 120.43 290.06 124.06 290.06C127.68 290.06 130.85 292.78 130.85 296.86C130.85 300.49 127.68 303.66 124.06 303.66ZM124.06 277.84C120.44 277.84 117.26 274.67 117.26 271.04C117.26 267.42 120.43 264.24 124.06 264.24C127.68 264.24 130.85 267.41 130.85 271.04C130.85 274.67 128.14 277.84 124.06 277.84ZM124.51 252.47C121.34 252.47 118.62 250.2 117.71 247.03C117.71 246.58 117.26 245.67 117.26 245.22C117.26 241.6 120.43 238.43 124.06 238.43C127.23 238.43 129.95 240.69 130.85 243.87C130.85 244.32 131.3 245.23 131.3 245.68C131.31 249.75 128.14 252.47 124.51 252.47ZM124.51 227.1C121.34 227.1 118.62 224.83 117.71 221.66C117.71 221.21 117.26 220.3 117.26 219.85C117.26 216.23 120.43 213.05 124.06 213.05C127.23 213.05 129.95 215.32 130.85 218.49C130.85 218.94 131.3 219.85 131.3 220.3C131.31 223.93 128.59 227.1 124.51 227.1ZM124.97 201.27C122.7 201.27 120.89 200.36 119.99 198.55V198.1C119.99 198.1 119.99 198.1 119.54 198.1C119.09 197.65 118.63 196.74 118.63 196.29C118.18 195.38 118.18 194.48 118.18 193.57C118.18 189.95 121.35 186.77 124.98 186.77C128.15 186.77 130.87 189.04 131.78 192.21C131.78 192.66 132.23 193.57 132.23 194.02C131.76 198.55 128.59 201.27 124.97 201.27ZM125.42 175.9C121.8 175.9 119.08 173.63 118.62 170.46C118.62 170.01 118.17 169.1 118.17 168.65C118.17 165.03 121.34 161.85 124.97 161.85C128.14 161.85 130.86 164.12 131.77 167.29C131.77 167.74 132.22 168.65 132.22 169.1C132.21 172.73 129.04 175.9 125.42 175.9ZM125.42 98.8801C122.25 98.8801 119.53 96.6101 118.62 93.4401C118.62 92.9901 118.17 92.0801 118.17 91.6301C118.17 88.0101 121.34 84.8301 124.97 84.8301C128.14 84.8301 130.86 87.1001 131.77 90.2701C131.77 90.7201 132.22 91.6301 132.22 92.0801C132.21 95.7101 129.04 98.8801 125.42 98.8801ZM153.51 273.76C150.34 273.76 147.62 271.5 146.71 268.32C146.71 267.87 146.26 266.96 146.26 266.51C146.26 262.89 149.43 259.71 153.06 259.71C156.23 259.71 158.95 261.98 159.86 265.15C159.86 265.6 160.31 266.51 160.31 266.96C160.3 270.59 157.13 273.76 153.51 273.76ZM153.51 248.39C150.34 248.39 147.62 246.12 146.71 242.95C146.71 242.5 146.26 241.59 146.26 241.14C146.26 237.52 149.43 234.34 153.06 234.34C156.23 234.34 158.95 236.61 159.86 239.78C159.86 240.23 160.31 241.14 160.31 241.59C160.3 245.22 157.13 248.39 153.51 248.39ZM153.51 222.57C151.24 222.57 149.43 221.66 148.53 219.85V219.4C148.53 219.4 148.53 219.4 148.08 219.4C147.63 218.95 147.17 218.04 147.17 217.59C146.72 216.68 146.72 215.78 146.72 214.87C146.72 211.25 149.89 208.07 153.52 208.07C156.69 208.07 159.41 210.34 160.32 213.51C160.32 213.96 160.77 214.87 160.77 215.32C160.3 219.85 157.59 222.57 153.51 222.57ZM154.41 196.74C151.24 196.74 148.52 194.47 147.61 191.3C147.61 190.85 147.16 189.94 147.16 189.49C147.16 185.87 149.88 182.69 153.96 182.69C157.13 182.69 159.85 184.96 160.75 188.13C160.75 188.58 161.2 189.49 161.2 189.94C161.21 193.57 158.04 196.74 154.41 196.74ZM154.41 120.17C151.24 120.17 148.52 117.91 147.61 114.73C147.61 114.28 147.16 113.37 147.16 112.92C147.16 109.3 150.33 106.12 153.96 106.12C157.13 106.12 159.85 108.39 160.75 111.56C160.75 112.01 161.2 112.92 161.2 113.37C161.21 117 158.04 120.17 154.41 120.17ZM154.41 94.8001C152.14 94.8001 150.33 93.8901 149.43 92.0801V91.6301C149.43 91.6301 149.43 91.6301 148.98 91.6301C148.53 91.1801 148.07 90.2701 148.07 89.8201C147.62 88.9101 147.62 88.0101 147.62 87.1001C147.17 83.4801 150.34 80.3001 153.96 80.7601C157.13 80.7601 159.85 83.0301 160.75 86.2001C160.75 86.6501 161.2 87.5601 161.2 88.0101C161.21 91.6301 158.04 94.8001 154.41 94.8001ZM154.87 68.9801C151.25 68.9801 148.53 66.7101 148.07 63.5401C148.07 63.0901 147.62 62.1801 147.62 61.7301C147.62 58.1101 150.79 54.9301 154.42 54.9301C157.59 54.9301 160.31 57.2001 161.21 60.3701C161.21 60.8201 161.66 61.7301 161.66 62.1801C161.66 65.8101 158.49 68.9801 154.87 68.9801ZM182.5 243.86C180.23 243.86 178.42 242.95 177.52 241.14V240.69C177.52 240.69 177.52 240.69 177.07 240.69C176.62 240.24 176.16 239.33 176.16 238.88C175.71 237.97 175.71 237.07 175.71 236.16C175.71 232.54 178.88 229.36 182.51 229.36C185.68 229.81 188.4 232.08 188.85 235.25C188.85 235.7 189.3 236.61 189.3 237.06C189.3 240.69 186.13 243.86 182.5 243.86ZM182.5 218.49C179.33 218.49 176.61 216.22 175.7 213.05C175.7 212.6 175.25 211.69 175.25 211.24C175.25 207.62 178.42 204.44 182.05 204.44C185.22 204.44 187.94 206.71 188.85 209.88C188.85 210.33 189.3 211.24 189.3 211.69C189.3 215.32 186.13 218.49 182.5 218.49ZM182.5 192.66C178.88 192.66 175.7 189.49 175.7 185.86C175.7 181.78 178.42 179.06 182.5 179.06C186.12 179.06 189.3 182.23 189.3 185.86C189.3 189.49 186.13 192.66 182.5 192.66ZM182.5 166.84C178.88 166.84 175.7 163.67 175.7 160.04C175.7 156.42 178.87 153.24 182.5 153.24C186.12 153.24 189.3 156.41 189.3 160.04C189.3 163.67 186.13 166.84 182.5 166.84ZM182.96 141.47C179.79 141.47 177.07 139.2 176.16 136.03C176.16 135.58 175.71 134.67 175.71 134.22C175.71 130.6 178.88 127.42 182.51 127.42C185.68 127.42 188.4 129.69 189.31 132.86C189.31 133.31 189.76 134.22 189.76 134.67C189.75 138.3 186.58 141.47 182.96 141.47ZM183.41 116.1C181.14 116.1 179.33 115.19 178.43 113.38V112.93C178.43 112.93 178.43 112.93 177.98 112.93C177.53 112.48 177.07 111.57 177.07 111.12C176.62 110.21 176.62 109.31 176.62 108.4C176.17 104.78 179.34 101.6 182.96 102.06C186.13 102.06 188.85 104.33 189.76 107.5C189.76 107.95 190.21 108.86 190.21 109.31C190.21 112.93 187.03 116.1 183.41 116.1ZM183.41 90.2701C180.24 90.2701 177.52 88.0001 176.61 84.8301C176.61 84.3801 176.16 83.4701 176.16 83.0201C176.16 79.4001 179.33 76.2201 182.96 76.2201C186.13 76.2201 188.85 78.4901 189.76 81.6601C189.76 82.1101 190.21 83.0201 190.21 83.4701C190.21 87.1001 187.03 90.2701 183.41 90.2701ZM211.05 214.41C207.43 214.41 204.25 211.24 204.25 207.61C204.25 203.99 207.42 200.82 211.05 200.82C214.67 200.82 217.85 203.99 217.85 207.61C217.84 211.24 214.67 214.41 211.05 214.41ZM211.05 188.59C207.43 188.59 204.25 185.42 204.25 181.79C204.25 178.17 207.42 174.99 211.05 174.99C214.67 174.99 217.85 178.16 217.85 181.79C217.84 185.42 214.67 188.59 211.05 188.59ZM211.95 163.22C208.78 163.22 206.06 160.95 205.15 157.78C205.15 157.33 204.7 156.42 204.7 155.97C204.7 152.35 207.87 149.17 211.5 149.17C214.67 149.17 217.39 151.44 218.3 154.61C218.3 155.06 218.75 155.97 218.75 156.42C218.75 160.04 215.58 163.22 211.95 163.22ZM211.95 137.84C209.68 137.84 207.87 136.93 206.97 135.12V134.67C206.97 134.67 206.97 134.67 206.52 134.67C206.07 134.22 205.61 133.31 205.61 132.86C205.16 131.95 205.16 131.05 205.16 130.14C204.71 126.52 207.88 123.8 211.5 123.8C214.67 123.8 217.39 126.07 218.3 129.24C218.3 129.69 218.75 130.6 218.75 131.05C218.75 134.67 215.58 137.84 211.95 137.84ZM212.41 112.02C209.24 112.02 206.52 109.75 205.61 106.58C205.61 106.13 205.16 105.22 205.16 104.77C205.16 101.15 207.88 97.9701 211.96 97.9701C215.13 97.9701 217.85 100.24 218.76 103.41C218.76 103.86 219.21 104.77 219.21 105.22C219.2 108.85 216.03 112.02 212.41 112.02ZM212.41 35.4501C209.24 35.4501 206.52 33.1801 205.61 30.0101C205.61 29.5601 205.16 28.6501 205.16 28.2001C205.16 24.1201 208.33 21.4001 211.96 21.4001C215.13 21.4001 217.85 23.6701 218.76 26.8401C218.76 27.2901 219.21 28.2001 219.21 28.6501C219.2 32.2801 216.03 35.4501 212.41 35.4501ZM212.41 10.0801C208.79 10.0801 206.07 7.36012 205.61 4.64011C205.61 4.19012 205.16 3.28011 205.16 2.83012C205.16 -0.789886 208.33 -3.96989 211.96 -3.96989C215.13 -3.96989 217.85 -1.69988 218.76 1.47012C218.76 1.92011 219.21 2.83012 219.21 3.28011C219.2 6.91011 216.03 10.0801 212.41 10.0801ZM240.5 184.51C237.33 184.51 234.61 182.25 233.7 179.07C233.7 178.62 233.25 177.71 233.25 177.26C233.25 173.64 236.42 170.46 240.05 170.46C243.22 170.46 245.94 172.73 246.85 175.9C246.85 176.35 247.3 177.26 247.3 177.71C247.29 181.34 244.12 184.51 240.5 184.51ZM240.5 159.14C238.23 159.14 236.42 158.23 235.52 156.42V155.97C235.52 155.97 235.52 155.97 235.07 155.97C234.62 155.52 234.16 154.61 234.16 154.16C233.71 153.25 233.71 152.35 233.71 151.44C233.71 147.82 236.88 144.64 240.51 144.64C243.68 145.09 246.4 147.36 246.85 150.53C246.85 150.98 247.3 151.89 247.3 152.34C247.29 155.97 244.12 159.14 240.5 159.14ZM240.95 133.31C237.78 133.31 235.06 131.04 234.15 127.87C234.15 127.42 233.7 126.51 233.7 126.06C233.7 122.44 236.87 119.26 240.5 119.26C243.67 119.26 246.39 121.53 247.3 124.7C247.3 125.15 247.75 126.06 247.75 126.51C247.74 130.14 244.57 133.31 240.95 133.31ZM240.95 56.7501C237.78 56.7501 235.06 54.4801 234.15 51.3101C234.15 50.8601 233.7 49.9501 233.7 49.5001C233.7 45.4201 236.87 42.7001 240.5 42.7001C243.67 42.7001 246.39 44.9701 247.3 48.1401C247.3 48.5901 247.75 49.5001 247.75 49.9501C247.74 53.5801 244.57 56.7501 240.95 56.7501ZM241.4 30.9201C238.23 30.9201 235.51 28.6501 234.6 25.4801C234.6 25.0301 234.15 24.1201 234.15 23.6701C234.15 20.0501 236.87 16.8701 240.95 16.8701C244.12 16.8701 246.84 19.1401 247.75 22.3101C247.75 22.7601 248.2 23.6701 248.2 24.1201C248.2 27.7501 245.03 30.9201 241.4 30.9201ZM241.4 5.55012C239.13 5.55012 237.32 4.64011 236.42 2.83012V2.38011C236.42 2.38011 236.42 2.38011 235.97 2.38011C235.52 1.93011 235.06 1.02011 235.06 0.570114C234.61 -0.33989 234.61 -1.23988 234.61 -2.14989C234.16 -5.76989 237.33 -8.48988 240.95 -8.48988C244.12 -8.48988 246.84 -6.21989 247.75 -3.04989C247.75 -2.59989 248.2 -1.68988 248.2 -1.23988C248.2 2.38012 245.03 5.55012 241.4 5.55012ZM241.4 -19.8199C238.23 -19.8199 235.51 -22.5399 234.6 -25.2599C234.6 -25.7099 234.15 -26.6199 234.15 -27.0699C234.15 -30.6899 237.32 -33.8699 240.95 -33.8699C244.12 -33.8699 246.84 -31.5999 247.75 -28.4299C247.75 -27.9799 248.2 -27.0699 248.2 -26.6199C248.2 -22.9899 245.03 -19.8199 241.4 -19.8199ZM308.45 214.86C304.83 214.86 301.65 211.69 301.65 208.06C301.65 204.44 304.82 201.27 308.45 201.27C312.07 201.27 315.25 203.99 315.25 208.07C315.25 211.69 312.08 214.86 308.45 214.86ZM308.45 189.04C304.83 189.04 301.65 185.87 301.65 182.24C301.65 178.62 304.82 175.44 308.45 175.44C312.07 175.44 315.25 178.61 315.25 182.24C315.25 185.87 312.08 189.04 308.45 189.04ZM343.34 239.78C343.34 240.69 342.89 241.14 342.43 241.59C342.43 241.59 342.43 241.59 341.98 241.59V242.04C340.62 243.4 338.81 244.31 337 244.31C333.38 244.31 330.2 241.14 330.2 237.51C330.2 236.6 330.2 236.15 330.65 235.7C331.1 232.53 333.82 230.26 337.45 230.26C340.62 230.26 343.79 233.43 343.79 237.06C343.79 237.97 343.79 238.88 343.34 239.78ZM337.45 167.75C333.83 167.75 330.65 164.58 330.65 160.95C330.65 157.33 333.82 154.15 337.45 154.15C341.07 154.15 344.25 157.32 344.25 160.95C344.25 164.57 341.07 167.75 337.45 167.75ZM344.25 186.32C344.25 189.94 341.08 193.12 337.45 193.12C333.83 193.12 330.65 189.95 330.65 186.32C330.65 182.7 333.82 179.52 337.45 179.52C341.07 179.53 344.25 182.7 344.25 186.32ZM366.45 146.45C362.83 146.45 359.65 143.28 359.65 139.65C359.65 136.03 362.82 132.85 366.45 132.85C370.07 132.85 373.25 136.02 373.25 139.65C373.24 143.28 370.07 146.45 366.45 146.45ZM373.24 165.48C373.24 169.1 370.07 172.28 366.44 172.28C362.82 172.28 359.64 169.11 359.64 165.48C359.64 161.86 362.81 158.68 366.44 158.68C370.07 158.68 373.24 161.86 373.24 165.48ZM394.54 304.57C390.92 304.57 387.74 301.4 387.74 297.77C387.74 294.15 390.91 290.97 394.54 290.97C398.17 290.97 401.34 294.14 401.34 297.77C401.33 301.4 398.16 304.57 394.54 304.57ZM394.54 279.2C390.92 279.2 387.74 276.03 387.74 272.4C387.74 268.78 390.91 265.6 394.54 265.6C398.17 265.6 401.34 268.77 401.34 272.4C401.33 276.03 398.16 279.2 394.54 279.2ZM388.65 91.6301C389.1 88.4601 391.82 86.1901 395.45 86.1901C399.07 86.1901 402.25 88.9101 402.25 92.9901C402.25 93.9001 402.25 94.3501 401.8 94.8001C401.35 97.9701 398.63 100.24 395 100.24C391.38 100.24 388.2 97.0701 388.2 93.4401C388.19 92.5401 388.19 92.0901 388.65 91.6301ZM394.99 112.02C399.07 112.02 401.79 115.19 401.79 118.82C401.79 122.44 398.62 125.62 394.99 125.62C391.37 125.62 388.19 122.45 388.19 118.82C388.19 115.19 391.36 112.02 394.99 112.02ZM394.99 137.39C399.07 137.39 401.79 140.56 401.79 144.19C401.79 147.81 398.62 150.99 394.99 150.99C391.37 150.99 388.19 147.82 388.19 144.19C388.19 140.56 391.36 137.39 394.99 137.39ZM387.74 168.2C388.19 165.03 390.91 162.76 394.54 162.76C398.62 162.76 401.34 165.93 401.34 169.55C401.34 170.46 401.34 170.91 400.89 171.36C400.44 174.53 397.72 176.8 394.09 176.8C390.47 176.8 387.29 173.63 387.29 170.01C387.29 169.1 387.29 168.65 387.74 168.2ZM401.33 195.38C401.33 196.29 401.33 197.19 400.88 198.1C400.88 199.01 400.43 199.46 399.97 199.91C399.97 199.91 399.97 199.91 399.52 199.91V200.36C398.16 201.72 396.35 202.63 394.54 202.63C390.92 202.63 387.74 199.46 387.74 195.83C387.74 194.92 387.74 194.47 388.19 194.02C388.64 190.85 391.36 188.58 394.99 188.58C398.61 188.59 401.33 191.3 401.33 195.38ZM387.74 219.39C388.19 216.22 390.91 213.95 394.54 213.95C398.62 213.95 401.34 217.12 401.34 220.75C401.34 221.66 401.34 222.11 400.89 222.56C400.44 225.73 397.72 228 394.09 228C390.47 228 387.29 224.83 387.29 221.2C387.29 220.3 387.29 219.85 387.74 219.39ZM387.74 245.22C388.19 242.05 390.91 239.78 394.54 239.78C398.62 239.78 401.34 242.5 401.34 246.58C401.34 247.49 401.34 247.94 400.89 248.39C400.44 251.56 397.72 253.83 394.09 253.83C390.47 253.83 387.29 250.66 387.29 247.03C387.29 246.13 387.29 245.67 387.74 245.22ZM359.65 61.2801C360.1 58.1101 362.82 55.8401 366.45 55.8401C370.07 55.8401 373.25 59.0101 373.25 62.6401C373.25 63.5501 373.25 64.0001 372.8 64.4501C372.35 67.6201 369.63 69.8901 366 69.8901C362.38 69.8901 359.2 66.7201 359.2 63.0901C359.2 62.1801 359.2 61.7301 359.65 61.2801ZM373.24 88.4601C373.24 89.3701 373.24 90.2701 372.79 91.1801C372.79 92.0901 372.34 92.5401 371.88 92.9901C371.88 92.9901 371.88 92.9901 371.43 92.9901V93.4401C370.07 94.8001 368.26 95.7101 366.45 95.7101C362.83 95.7101 359.65 92.5401 359.65 88.9101C359.65 88.0001 359.65 87.5501 360.1 87.1001C360.55 83.9301 363.27 81.6601 366.9 81.6601C370.07 81.6601 373.24 84.3801 373.24 88.4601ZM359.65 112.47C360.1 109.3 362.82 107.03 366.45 107.03C370.07 107.03 373.25 110.2 373.25 113.83C373.25 114.74 373.25 115.19 372.8 115.64C372.35 118.81 369.63 121.08 366 121.08C362.38 121.08 359.2 117.91 359.2 114.28C359.2 113.38 359.2 112.93 359.65 112.47ZM359.2 189.49C359.65 186.32 362.37 184.05 366 184.05C369.62 184.05 372.8 186.77 372.8 190.85C372.8 191.76 372.8 192.21 372.35 192.66C371.9 195.83 369.18 198.1 365.55 198.1C361.93 198.1 358.75 194.93 358.75 191.3C358.74 190.4 358.74 189.95 359.2 189.49ZM372.79 216.22C372.79 217.13 372.79 218.03 372.34 218.94C372.34 219.85 371.89 220.3 371.43 220.75C371.43 220.75 371.43 220.75 370.98 220.75V221.2C369.62 222.56 367.81 223.47 366 223.47C362.38 223.47 359.2 220.3 359.2 216.67C359.2 215.76 359.2 215.31 359.65 214.86C360.1 211.69 362.82 209.42 366.45 209.42C369.62 209.43 372.79 212.6 372.79 216.22ZM359.2 240.24C359.65 237.07 362.37 234.8 366 234.8C369.62 235.25 372.8 237.97 372.8 241.6C372.8 242.51 372.8 242.96 372.35 243.41C371.9 246.58 369.18 248.85 365.55 248.85C361.93 248.85 358.75 245.68 358.75 242.05C358.74 241.14 358.74 240.69 359.2 240.24ZM358.74 266.06C359.19 262.89 361.91 260.62 365.54 260.62C369.62 260.62 372.34 263.79 372.34 267.42C372.34 268.33 372.34 268.78 371.89 269.23C371.44 272.4 368.72 274.67 365.09 274.67C361.47 274.67 358.29 271.5 358.29 267.87C358.29 266.97 358.29 266.51 358.74 266.06ZM337.9 25.9401C341.52 25.9401 344.7 29.1101 344.7 32.7401C344.7 36.3701 341.53 39.5401 337.9 39.5401C334.28 39.5401 331.1 36.8201 331.1 32.7401C331.11 29.1101 334.28 25.9401 337.9 25.9401ZM337.9 51.7601C341.52 51.7601 344.7 54.9301 344.7 58.5601C344.7 62.1901 341.53 65.3601 337.9 65.3601C334.28 65.3601 331.1 62.1901 331.1 58.5601C331.1 54.9301 334.28 51.7601 337.9 51.7601ZM330.65 82.5701C331.1 79.4001 333.82 77.1301 337.45 77.1301C341.07 77.1301 344.25 79.8501 344.25 83.9301C344.25 84.8401 344.25 85.2901 343.8 85.7401C343.35 88.9101 340.63 91.1801 337 91.1801C333.38 91.1801 330.21 88.0101 330.21 84.3801C330.2 83.4801 330.2 83.0201 330.65 82.5701ZM344.25 109.3C344.25 110.21 344.25 111.11 343.8 112.02C343.8 112.93 343.35 113.38 342.89 113.83C342.89 113.83 342.89 113.83 342.44 113.83V114.28C341.08 115.64 339.27 116.54 337.46 116.54C333.84 116.54 330.66 113.37 330.66 109.75C330.66 108.84 330.66 108.39 331.11 107.94C331.56 104.77 334.28 102.5 337.91 102.5C341.07 102.51 344.25 105.68 344.25 109.3ZM330.65 133.77C331.1 130.6 333.82 128.33 337.45 128.33C341.07 128.33 344.25 131.05 344.25 135.13C344.25 136.04 344.25 136.49 343.8 136.94C343.35 140.11 340.63 142.38 337 142.38C333.38 142.38 330.21 139.21 330.21 135.58C330.2 134.67 330.2 134.22 330.65 133.77ZM330.2 210.33C330.65 207.16 333.37 204.89 337 204.89C340.62 204.89 343.8 208.06 343.8 211.69C343.8 212.6 343.8 213.05 343.35 213.5C342.9 216.67 340.18 218.94 336.56 218.94C332.94 218.94 329.76 215.77 329.76 212.14C329.75 211.24 329.75 210.79 330.2 210.33ZM302.56 1.93011C303.01 -1.23988 305.73 -3.50989 309.36 -3.50989C312.98 -3.50989 316.16 -0.339882 316.16 3.29012C316.16 4.20012 316.16 4.65012 315.71 5.10011C315.26 8.27011 312.54 10.5401 308.91 10.5401C305.29 10.5401 302.11 7.37011 302.11 3.74011C302.11 2.83011 302.11 2.38011 302.56 1.93011ZM302.56 27.3001C303.01 24.1301 305.73 21.8601 309.36 21.8601C312.98 21.8601 316.16 24.5801 316.16 28.6601C316.16 29.5701 316.16 30.0201 315.71 30.4701C315.26 33.6401 312.54 35.9101 308.91 35.9101C305.29 35.9101 302.11 32.7401 302.11 29.1101C302.11 28.2001 302.11 27.7501 302.56 27.3001ZM308.91 47.6901C312.99 47.6901 315.71 50.8601 315.71 54.4901C315.71 58.1101 312.54 61.2901 308.91 61.2901C305.29 61.2901 302.11 58.1201 302.11 54.4901C302.11 50.8601 305.28 47.6901 308.91 47.6901ZM308.91 73.0601C312.99 73.0601 315.71 76.2301 315.71 79.8601C315.71 83.4901 312.54 86.6601 308.91 86.6601C305.29 86.6601 302.11 83.4901 302.11 79.8601C302.11 76.2301 305.28 73.0601 308.91 73.0601ZM301.66 103.86C302.11 100.69 304.83 98.4201 308.46 98.4201C312.54 98.4201 315.26 101.59 315.26 105.22C315.26 106.13 315.26 106.58 314.81 107.03C314.36 110.2 311.64 112.47 308.01 112.47C304.39 112.47 301.21 109.3 301.21 105.67C301.21 104.77 301.21 104.32 301.66 103.86ZM315.25 131.05C315.25 131.96 315.25 132.86 314.8 133.77C314.8 134.68 314.35 135.13 313.89 135.58C313.89 135.58 313.89 135.58 313.44 135.58V136.03C312.08 137.39 310.27 138.3 308.46 138.3C304.84 138.3 301.66 135.13 301.66 131.5C301.66 130.59 301.66 130.14 302.11 129.69C302.56 126.52 305.28 124.25 308.91 124.25C312.53 124.25 315.25 126.97 315.25 131.05ZM301.66 155.06C302.11 151.89 304.83 149.62 308.46 149.62C312.54 149.62 315.26 152.79 315.26 156.42C315.26 157.33 315.26 157.78 314.81 158.23C314.36 161.4 311.64 163.67 308.01 163.67C304.39 163.67 301.21 160.5 301.21 156.87C301.21 155.97 301.21 155.51 301.66 155.06ZM274.02 -28.4299C274.47 -31.5999 277.19 -33.8699 280.82 -33.8699C284.44 -33.8699 287.62 -30.6999 287.62 -27.0699C287.62 -26.1599 287.62 -25.7099 287.17 -25.2599C286.72 -22.0899 284 -19.8199 280.37 -19.8199C276.29 -19.8199 273.57 -22.9899 273.57 -26.6199C273.57 -27.5199 273.57 -27.9799 274.02 -28.4299ZM274.02 -3.05988C274.47 -6.22988 277.19 -8.49988 280.82 -8.49988C283.99 -8.49988 287.16 -5.32988 287.16 -1.69988C287.16 -0.789879 287.16 0.110107 286.71 1.02011C286.71 1.93011 286.26 2.38012 285.8 2.83012C285.8 2.83012 285.8 2.83012 285.35 2.83012V3.28011C283.99 4.64011 282.18 5.55012 280.37 5.55012C276.75 5.55012 273.57 2.38011 273.57 -1.24989C273.57 -2.14989 273.57 -2.59988 274.02 -3.05988ZM273.57 22.7701C274.02 19.6001 276.74 17.3301 280.37 17.3301C283.99 17.3301 287.17 20.0501 287.17 24.1301C287.17 25.0401 287.17 25.4901 286.72 25.9401C286.27 29.1101 283.55 31.3801 279.92 31.3801C276.3 31.3801 273.12 28.2101 273.12 24.5801C273.12 23.6701 273.12 23.2201 273.57 22.7701ZM273.57 48.1401C274.02 44.9701 276.74 42.7001 280.37 42.7001C283.99 42.7001 287.17 45.8701 287.17 49.5001C287.17 50.4101 287.17 50.8601 286.72 51.3101C286.27 54.4801 283.55 56.7501 279.92 56.7501C276.3 56.7501 273.12 53.5801 273.12 49.9501C273.12 49.0401 273.12 48.5901 273.57 48.1401ZM279.91 68.5301C283.99 68.5301 286.71 71.7001 286.71 75.3301C286.71 78.9501 283.54 82.1301 279.91 82.1301C276.29 82.1301 273.11 78.9601 273.11 75.3301C273.12 71.7001 276.29 68.5301 279.91 68.5301ZM279.91 94.3501C283.53 94.3501 286.71 97.5201 286.71 101.15C286.71 104.77 283.54 107.95 279.91 107.95C276.29 107.95 273.11 104.78 273.11 101.15C273.57 97.5201 276.29 94.3501 279.91 94.3501ZM273.12 125.16C273.57 121.99 276.29 119.72 279.92 119.72C283.54 119.72 286.72 122.89 286.72 126.52C286.72 127.43 286.72 127.88 286.27 128.33C285.82 131.5 283.1 133.77 279.47 133.77C275.85 133.77 272.67 130.6 272.67 126.97C272.66 126.06 272.66 125.61 273.12 125.16ZM273.12 150.53C273.57 147.36 276.29 145.09 279.92 145.09C283.54 145.09 286.72 148.26 286.72 151.89C286.72 152.8 286.72 153.7 286.27 154.61C285.82 155.06 285.36 155.97 284.46 156.42C283.1 158.23 281.29 159.14 279.48 159.14C275.86 159.14 272.68 155.97 272.68 152.34C272.66 151.44 272.66 150.98 273.12 150.53ZM272.66 176.35C273.57 173.18 276.28 170.91 279.46 170.91C283.08 170.91 286.26 174.08 286.26 177.71C286.26 178.62 286.26 179.07 285.81 179.52C285.36 182.69 282.64 184.96 279.01 184.96C275.39 184.96 272.21 181.79 272.21 178.17C272.21 177.26 272.21 176.81 272.66 176.35Z" fill="white"/>
<path opacity="0.16" d="M366.9 64.45C367.19 64.74 367.11 64.66 366.9 64.45V64.45Z" fill="white"/>
<path opacity="0.16" d="M123.61 121.08C123.16 121.08 122.7 121.53 122.7 121.99H123.15C123.61 121.53 124.51 121.08 123.61 121.08Z" fill="white"/>
<path d="M236.762 32L163 -42H312L236.762 32Z" fill="#96C31E"/>
<path d="M328 34V-46L367 -3.38318L328 34Z" fill="#96C31E"/>
<path d="M328 110V31L367 73.0841L328 110Z" fill="#96C31E"/>
<path d="M-1 176V135L18 156.841L-1 176Z" fill="#96C31E"/>
<path d="M19 158V118L40 139.308L19 158Z" fill="#96C31E"/>
<path d="M19 197V157L40 178.308L19 197Z" fill="#96C31E"/>
<path d="M40 179V139L58 160.308L40 179Z" fill="#96C31E"/>
<path d="M58 160V120L77 141.308L58 160Z" fill="#96C31E"/>
<path d="M58 200V160L77 181.308L58 200Z" fill="#96C31E"/>
<path d="M77 180V140L97 161.308L77 180Z" fill="#96C31E"/>
<path d="M255 196L375 82L378 196H255Z" fill="#96C31E"/>
<path d="M57 113H-1.18182L-7 109H52.6364L57 113Z" fill="#96C31E"/>
<path d="M48 104H-11.0909L-17 100H43.5682L48 104Z" fill="#96C31E"/>
<path d="M40 95H-20L-26 91H35.5L40 95Z" fill="#96C31E"/>
<path d="M31 84H-29L-35 81H26.5L31 84Z" fill="#96C31E"/>
<path d="M19 76H-39.1818L-45 72H14.6364L19 76Z" fill="#96C31E"/>
<path d="M11 68H-48.0909L-54 63H6.56818L11 68Z" fill="#96C31E"/>
</g>
<defs>
<clipPath id="clip0">
<rect width="375" height="162" fill="white"/>
</clipPath>
</defs>
</svg>
