<svg id="Layer_1" data-name="Layer 1" xmlns="http://www.w3.org/2000/svg" viewBox="0 0 500 500"><defs><style>.cls-1{fill-opacity:0.15;}.cls-2{fill:#231f20;}</style></defs><title>nandos_icons_all</title><path class="cls-1" d="M100.77,385.52v44.21s51.86,59,147.69,59c93.58,0,147.69-59,147.69-59V385.52Z"/><path class="cls-2" d="M174,169.36v-51a63.26,63.26,0,0,1,63.19-63.19H256a63.26,63.26,0,0,1,63.19,63.19v51H361.3v-51A105.44,105.44,0,0,0,256,13H237.21A105.44,105.44,0,0,0,131.9,118.32v51Z"/><path class="cls-2" d="M100.77,188.52V402.73s51.86,59,147.69,59c93.58,0,147.69-59,147.69-59V188.52ZM271.5,374.7H225.44l12.43-59.36a30.86,30.86,0,1,1,21.19,0Z"/></svg>