<svg xmlns="http://www.w3.org/2000/svg" fill="none" viewBox="0 0 25 24"><g clip-path="url(#a)"><path fill="#fff" d="M17.096 12.653c-.464-.598-1.165-.96-2.086-1.079.025-.49.051-.99.075-1.425a.898.898 0 0 0 .166-.022c.438-.1.705-.426.732-.893.019-.317-.122-.633-.48-1.064.26-.28.452-.536.573-.762l.047-.088a.48.48 0 0 0-.1-.58l-.073-.066c-.339-.302-.776-.575-1.086-.752.373-.558.884-1.658.348-3.002-.435-1.092-1.357-1.694-2.593-1.694-.368 0-.678.056-.874.103l-.014.003a3.39 3.39 0 0 0-.81.361l-.02.014c-.657.448-1.114 1.126-1.256 1.86-.17.882.114 1.837.724 2.43.112.109.25.244.46.244a.453.453 0 0 0 .43-.316l.001-.005s.029-.054.124-.143a.587.587 0 0 1 .384-.163c.056 0 .114.01.171.03.16.056.216.114.268.225-.407.367-.815 1.088-.713 2.49l.005.075a3.619 3.619 0 0 0-.98-.916 4.135 4.135 0 0 0-2.25-.639c-1.152 0-2.303.43-3.158 1.178-.716.626-1.188 1.48-1.366 2.472a4.85 4.85 0 0 0 .574 3.266c.27.472.603.864.988 1.165a4.29 4.29 0 0 0 1.346.69c.263.085.546.157.868.222a.49.49 0 0 0 .518-.243.526.526 0 0 0 .003-.508.555.555 0 0 1-.02-.038l-.02-.04a.994.994 0 0 1-.11-.315c-.077-.45.083-.944.379-1.176a.805.805 0 0 1 .918-.043 3.517 3.517 0 0 0-.092 1.598c.046.258.1.402.136.497l.002.006.02.058c.248.787.844 1.565 1.131 1.939l.058.075c.31.41 1.091 1.262 1.568 1.775v1.118c-.334.243-.957.765-1.275 1.475a.593.593 0 0 0 .036.554.562.562 0 0 0 .566.265 14.823 14.823 0 0 1 2.123-.15c.718 0 1.425.052 2.045.15a.562.562 0 0 0 .566-.264.591.591 0 0 0 .036-.554c-.318-.711-.941-1.233-1.275-1.476v-1.12c.446-.514 1.178-1.37 1.471-1.787l.058-.08.003-.005c.299-.418 1.094-1.529 1.262-2.477.06-.337.196-1.512-.532-2.453Z"/><path fill="#000" d="M14.538 12.003c.024-.487.08-1.63.136-2.543.102.137.259.263.48.212.108-.025.357-.095.379-.467.013-.217-.144-.493-.568-.955a.703.703 0 0 0-.098-.086c.242-.233.626-.632.815-.983l.047-.088-.074-.065c-.387-.346-.935-.66-1.187-.796a4.718 4.718 0 0 0-.313-.17l.047-.039c.234-.244 1.207-1.386.593-2.925-.605-1.518-2.137-1.51-2.948-1.315-.296.082-.57.236-.698.313-.527.36-.936.91-1.062 1.563-.137.71.076 1.498.591 2 .09.087.131.118.154.116.007-.021.015-.038.02-.05l.001-.004.005-.011v.001c.03-.059.093-.157.224-.279.067-.062.459-.417 1.002-.228a.842.842 0 0 1 .546.498c.049.11.074.25.071.376l-.027.014c-.405.254-.83.847-.73 2.234.116 1.608.233 2.928.302 3.675-.241.007-.463.03-.665.066.33-1.457.257-3.148-1.3-4.152-1.48-.956-3.567-.649-4.879.499-1.316 1.152-1.617 3.141-.904 4.732.063.141.133.279.209.412.227.397.516.753.872 1.031.362.283.78.477 1.21.617.269.087.542.154.818.21.035.006.061-.032.043-.065-.018-.032-.033-.065-.04-.077a1.492 1.492 0 0 1-.161-.464c-.1-.583.082-1.263.55-1.63a1.242 1.242 0 0 1 1.516-.003c.077.059.146.127.206.203-.264.585-.255 1.226-.18 1.643.051.29.107.389.143.502.24.765.887 1.572 1.113 1.869.34.447 1.309 1.494 1.665 1.876v1.558c-.124.078-.96.623-1.316 1.419a.116.116 0 0 0 .125.16c.63-.097 1.426-.153 2.19-.155.768.001 1.488.058 2.113.156a.116.116 0 0 0 .125-.161c-.357-.798-1.195-1.344-1.316-1.42v-1.55c.327-.377 1.237-1.43 1.557-1.883.214-.306 1.082-1.458 1.243-2.371.161-.917.011-2.912-2.646-3.02h.001Zm.779-4.83c-.153.24-.411.485-.59.64-.007-.502-.094-.877-.222-1.155.466.177.812.515.812.515Z"/><path fill="#CE0A24" d="M15.191 9.061c.05.098.018.215-.07.262-.077.04-.172.013-.227-.061l-.007-.011a.194.194 0 0 1-.012-.021l-.009-.021a1.102 1.102 0 0 1-.06-.177c-.03-.12-.079-.367-.102-.492-.009-.046-.012-.056-.006-.059.007-.003.012.005.043.038.089.094.27.285.332.367a1.396 1.396 0 0 1 .118.176Zm-4.681-.395a3.07 3.07 0 0 0-1.605-.797c-1.573-.273-3.298.44-4.006 1.956-.6 1.286-.343 3.061.629 4.084.445.469.903.734 1.48.862.016.003-.079-.4.02-.836.11-.491.34-1.072 1.008-1.344 1.02-.415 1.608.095 1.959.35.222-.259.382-.36.618-.49.184-.1.303-.142.477-.182.201-.466.29-1.363.201-1.856-.114-.625-.196-1.177-.781-1.747Zm3.89 5.066c-.701-.065-.99.58-1 .602-.01-.021-.3-.667-1-.602-.714.067-1.191.967-.226 2.364.935 1.35 1.208 1.413 1.224 1.416.017-.002.29-.066 1.225-1.416.966-1.397.488-2.297-.225-2.364h.002Zm-1.29-7.887.002.018.004.054.002.01.003.003c.228-.044.455-.038.637-.006.396-.327.68-.836.781-1.42.112-.655-.032-1.273-.396-1.695-.388-.45-.895-.677-1.506-.677l-.082.001c-.589.015-.952.15-1.389.519-.17.144-.575.55-.632 1.195a2.292 2.292 0 0 0 .068.84c.034.144.056.24.2.451a1.341 1.341 0 0 1 .596-.355 1.69 1.69 0 0 1 .49-.061c.072 0 .501.06.8.306.395.328.412.646.421.816l.002.001Z"/><path fill="#fff" d="M13.29 8.553c.054-.116.182-.168.286-.117.093.046.135.158.107.264h.001l-.005.015-.01.026a1.222 1.222 0 0 1-.13.207 12.34 12.34 0 0 1-.372.447c-.035.04-.043.051-.05.047-.008-.004-.003-.015.004-.068a8.29 8.29 0 0 1 .094-.582 1.655 1.655 0 0 1 .075-.24v.001Zm.747-1.32a.61.61 0 0 1-.598.62.61.61 0 0 1-.598-.62.61.61 0 0 1 .598-.62.61.61 0 0 1 .598.62Zm-.328 0a.275.275 0 0 0-.27-.28.275.275 0 0 0-.27.28c0 .154.121.28.27.28.149 0 .27-.126.27-.28Zm.796-.575c.128.278.215.653.222 1.156.179-.156.437-.4.59-.64 0 0-.347-.34-.812-.516ZM9.295 8.543A.302.302 0 0 0 9 8.85c0 .17.133.306.296.306a.302.302 0 0 0 .297-.306.302.302 0 0 0-.297-.307ZM10.131 9.924a.302.302 0 0 0 .297-.306.302.302 0 0 0-.297-.307.302.302 0 0 0-.296.307c0 .169.133.306.296.306ZM10.424 10.396a.302.302 0 0 0-.297.306c0 .17.133.307.297.307a.302.302 0 0 0 .296-.307.302.302 0 0 0-.296-.306ZM6.205 13.234a.302.302 0 0 0-.296.306c0 .17.132.307.296.307a.302.302 0 0 0 .296-.307.302.302 0 0 0-.296-.306ZM5.57 12.337a.302.302 0 0 0-.297.307c0 .17.132.306.296.306a.302.302 0 0 0 .296-.306.302.302 0 0 0-.296-.307ZM5.617 11.566a.302.302 0 0 0-.296-.307.302.302 0 0 0-.297.307c0 .17.133.306.297.306a.302.302 0 0 0 .296-.306ZM5.462 10.76a.302.302 0 0 0 .296-.306.302.302 0 0 0-.296-.307.302.302 0 0 0-.296.307c0 .169.132.306.296.306ZM6.034 9.793a.302.302 0 0 0 .297-.306.302.302 0 0 0-.297-.307.302.302 0 0 0-.296.307c0 .169.133.306.296.306ZM7.002 8.53a.302.302 0 0 0-.296.307c0 .169.132.306.296.306a.302.302 0 0 0 .296-.306.302.302 0 0 0-.296-.307ZM8.157 8.3a.302.302 0 0 0-.296.306c0 .17.132.306.296.306a.302.302 0 0 0 .296-.306.302.302 0 0 0-.296-.307ZM10.214 11.48a.302.302 0 0 0-.296.307c0 .169.133.306.296.306a.302.302 0 0 0 .297-.306.302.302 0 0 0-.297-.307Z"/></g><defs><clipPath id="a"><path fill="#fff" d="M.341 0h24v24h-24z"/></clipPath></defs></svg>