<svg width="561" height="214" viewBox="0 0 561 214" fill="none" xmlns="http://www.w3.org/2000/svg">
<g clip-path="url(#clip0)">
<rect x="-47" width="656" height="214" fill="#FBFAF4"/>
<path d="M8.79999 145.7L-1.23001 200.07L63.04 155.75L8.79999 145.7Z" fill="#F5F4ED"/>
<path d="M157.16 0H150.01L297.21 214H304.36L157.16 0Z" fill="#F5F4ED"/>
<path d="M72.27 214L53.38 210.5L52.73 214H72.27Z" fill="#F5F4ED"/>
<path d="M-47 144.13V184.18L8.8 145.7L-45.43 135.64L-47 144.13Z" fill="#F5F4ED"/>
<path d="M303.39 167.3L335.5 214H458.4L479.1 199.7L303.39 167.3Z" fill="#F5F4ED"/>
<path d="M-35.78 80.9L-45.81 135.27L18.46 90.95L-35.78 80.9Z" fill="#F5F4ED"/>
<path d="M53.38 210.5L-0.859985 200.44L-3.35999 214H48.3L53.38 210.5Z" fill="#F5F4ED"/>
<path d="M123.2 214L-24 0H-31.15L116.05 214H123.2Z" fill="#F5F4ED"/>
<path d="M-1.43999 0H-8.59L138.61 214H145.76L-1.43999 0Z" fill="#F5F4ED"/>
<path d="M21.23 0H14.08L161.28 214H168.43L21.23 0Z" fill="#F5F4ED"/>
<path d="M432.29 174.75C434.89 179.96 440.09 181.45 442.32 182.2C442.32 182.2 442.69 182.2 442.32 181.83C441.58 181.08 440.09 179.22 439.35 176.99C437.49 168.8 428.95 168.8 426.35 169.17C429.32 170.28 431.18 172.88 432.29 174.75Z" fill="#F5F4ED"/>
<path d="M582.74 127.45L407.4 95.42L479.1 199.33L582.74 127.45Z" fill="#F5F4ED"/>
<path d="M538.02 0L419.29 82.02L503.62 97.66L609 24.86V0H538.02Z" fill="#F5F4ED"/>
<path d="M66.58 0H59.43L206.63 214H213.78L66.58 0Z" fill="#F5F4ED"/>
<path d="M462.75 36.21L437.82 0H265.68L462.75 36.21Z" fill="#F5F4ED"/>
<path d="M88.88 0H81.73L228.93 214H236.08L88.88 0Z" fill="#F5F4ED"/>
<path d="M111.56 0H104.41L251.61 214H258.94L111.56 0Z" fill="#F5F4ED"/>
<path d="M134.48 0H127.34L274.53 214H281.68L134.48 0Z" fill="#F5F4ED"/>
<path d="M407.4 95.05L232.06 63.02L303.76 166.93L407.4 95.05Z" fill="#F5F4ED"/>
<path d="M43.9 0H36.76L183.96 214H191.1L43.9 0Z" fill="#F5F4ED"/>
<path d="M405.55 76.06L449.75 45.52L202.12 0H188.37L217.2 41.79L405.55 76.06Z" fill="#F5F4ED"/>
<path d="M405.92 174.37C410.75 172.51 415.21 169.53 421.52 166.55C424.86 164.69 435.26 162.83 439.72 169.16H440.09C438.98 152.4 426.72 144.58 415.94 143.09C410 142.35 405.17 143.09 402.2 144.21C404.43 140.11 409.26 138.25 410.74 137.51V137.14C409.63 136.4 405.54 134.16 398.85 133.79C386.96 133.42 383.25 139 376.56 144.59C370.62 149.43 367.64 145.33 366.53 142.73C365.79 141.99 365.42 141.99 365.42 142.36C361.71 168.04 380.66 184.8 405.92 174.37Z" fill="#F5F4ED"/>
<path d="M245.533 51.4483L208.144 54L211.219 102.611L384.027 154.578L409.144 117L386.335 95.9725C384.816 94.5716 383.005 93.5245 381.032 92.9064L250.673 52.0564C249.012 51.536 247.269 51.3298 245.533 51.4483Z" fill="#829B91"/>
<path fill-rule="evenodd" clip-rule="evenodd" d="M259.45 69.4977L361.952 101.586C370.14 73.5688 354.414 44.0351 326.436 35.2767C298.459 26.5183 268.699 41.8128 259.45 69.4977ZM247.996 65.9122L210.578 54.1983C208.094 53.4207 205.428 54.6791 204.45 57.0914L112.277 284.446C111.179 287.154 112.627 290.223 115.417 291.096L349.935 364.512C352.724 365.385 355.664 363.69 356.306 360.839L410.228 121.51C410.8 118.97 409.328 116.417 406.844 115.639L373.405 105.171C383.572 70.8288 364.324 34.5632 330.021 23.8248C295.719 13.0864 259.227 31.9026 247.996 65.9122Z" fill="#A5B9A5"/>
<path d="M316.697 131.2C302.469 125.302 292.268 136.628 291.944 136.994C291.887 136.509 289.965 121.388 274.902 118.158C259.572 114.845 243.822 130.123 255.082 165.023C265.959 198.74 271.266 201.845 271.597 201.991C271.952 202.06 278.082 202.536 306.243 181.039C335.394 158.79 331.167 137.258 316.697 131.2Z" fill="#FFDE00"/>
</g>
<defs>
<clipPath id="clip0">
<rect width="561" height="214" fill="white"/>
</clipPath>
</defs>
</svg>
