<svg width="561" height="214" viewBox="0 0 561 214" fill="none" xmlns="http://www.w3.org/2000/svg">
<g clip-path="url(#clip0)">
<g clip-path="url(#clip1)">
<rect x="-47" width="656" height="214" fill="#FBFAF4"/>
<path d="M203.06 27.07L176.52 0H156.98L130.03 26.47L203.06 27.07Z" fill="#F5F4ED"/>
<path d="M609.49 204.68L406.23 203.33L416.72 214H609.4L609.49 204.68Z" fill="#F5F4ED"/>
<path d="M335.58 154.59L335.01 214H340.52L341.04 160.12L335.58 154.59Z" fill="#F5F4ED"/>
<path d="M270.9 214L272.1 89.59L266.64 84.06L265.39 214H270.9Z" fill="#F5F4ED"/>
<path d="M352.89 172.27L352.48 214H358.01L358.34 177.8L352.89 172.27Z" fill="#F5F4ED"/>
<path d="M254.88 72.39L249.42 66.86L248 214H253.51L254.88 72.39Z" fill="#F5F4ED"/>
<path d="M128.91 173.83L92 210.07L165.02 210.67L128.91 173.83Z" fill="#F5F4ED"/>
<path d="M165.81 137.58L128.91 173.83L201.93 174.43L165.81 137.58Z" fill="#F5F4ED"/>
<path d="M162.21 214H167.89L165.11 211.16L162.21 214Z" fill="#F5F4ED"/>
<path d="M238.05 211.27L201.93 174.43L165.02 210.67L238.05 211.27Z" fill="#F5F4ED"/>
<path d="M387.7 207.35L387.63 214H393.14L393.15 212.88L387.7 207.35Z" fill="#F5F4ED"/>
<path d="M130.32 26.67L93.41 62.91L166.43 63.52L130.32 26.67Z" fill="#F5F4ED"/>
<path d="M203.54 26.99L166.63 63.23L239.66 63.83L203.54 26.99Z" fill="#F5F4ED"/>
<path d="M238.95 137.41L202.83 100.57L202.59 100.8L166.52 64L129.61 100.25L202.55 100.85L165.93 136.81L238.95 137.41Z" fill="#F5F4ED"/>
<path d="M165.73 137.09L129.61 100.25L92.7 136.49L165.73 137.09Z" fill="#F5F4ED"/>
<path d="M594 0H212.58L400.28 190.64L594 0Z" fill="#F5F4ED"/>
<path d="M318.56 137.1L317.82 214H323.33L324.02 142.64L318.56 137.1Z" fill="#F5F4ED"/>
<path d="M283.95 101.74L282.87 214H288.38L289.4 107.27L283.95 101.74Z" fill="#F5F4ED"/>
<path d="M301.25 119.42L300.34 214H305.85L306.71 124.95L301.25 119.42Z" fill="#F5F4ED"/>
<path d="M509.63 135.86C509.56 161.36 530.45 182.4 556.12 182.12C581.79 181.84 602.39 160.96 602.46 135.47C602.53 109.98 581.64 88.93 555.97 89.21C530.49 89.2 509.41 110.16 509.63 135.86ZM562.29 121.32C563.88 123.29 568.45 129.48 568.45 129.48C568.45 129.48 573.31 135.87 573.8 143.03C574.1 146.22 573.56 148.82 572.84 150.44C572.84 150.44 572.44 151.01 572.04 151.58C571.24 152.72 570.44 153.86 569.95 153.95C568.86 154.89 567.3 155.92 565.64 156.46C565.84 156.17 559.31 158.83 554.17 152.24C553.89 152.04 552.65 155.01 547.81 155.86C547.33 155.95 543.85 156.06 540.8 154.35C539.66 153.55 538.16 152.07 537.25 149.73C536.88 149.05 536.8 148.56 536.63 147.59C536.63 147.59 536.26 146.91 536.29 145.65C536.12 144.68 536.24 143.91 536.55 142.85C536.7 140.83 537.33 138.72 538.65 136.23C538.65 136.23 539.97 133.75 542.94 130.73C542.94 130.73 550.17 123.46 551.43 119.24C552.9 114.73 552.39 111.83 552.39 111.83C552.39 111.83 559.85 118.75 562.29 121.32Z" fill="#F5F4ED"/>
<path d="M370.16 214H375.67L375.85 195.2L370.39 189.66L370.16 214Z" fill="#F5F4ED"/>
</g>
<path d="M500.332 259.475C503.347 266.298 506.436 273.217 509.451 280.039C506.494 279.223 503.384 278.086 500.66 277.814C429.042 270.332 357.781 263.597 285.747 255.133C263.523 252.508 235.782 237.827 216.728 241.95C183.62 249.117 -145.996 236.169 -188.606 221.513C-194.659 207.878 -200.763 194.136 -206.866 180.395C-174.506 180.406 144.047 176.604 178.105 180.395C272.721 190.92 368.91 205.021 463.657 215.878C472.936 216.952 481.704 222.73 500.332 259.475Z" fill="#DCDCDC"/>
<g clip-path="url(#clip2)">
<path d="M407.143 151.897C416.447 153.725 422.538 162.774 420.711 172.13C418.871 181.448 409.824 187.561 400.483 185.746C391.141 183.931 385.088 174.868 386.915 165.513C388.755 156.195 397.828 150.094 407.143 151.897ZM410.217 136.286C392.263 132.779 374.871 144.515 371.353 162.471C367.824 180.453 379.519 197.849 397.447 201.343C415.375 204.838 432.793 193.114 436.31 175.158C439.828 157.202 428.145 139.78 410.217 136.286Z" fill="#8C8C8C"/>
<path d="M594.559 184.208C603.862 186.036 609.953 195.086 608.127 204.442C606.287 213.76 597.239 219.872 587.898 218.057C578.594 216.229 572.503 207.18 574.33 197.824C576.182 188.48 585.255 182.38 594.559 184.208ZM597.632 168.597C579.678 165.091 562.286 176.826 558.769 194.782C555.239 212.764 566.934 230.16 584.862 233.654C602.816 237.161 620.209 225.425 623.726 207.469C627.243 189.513 615.56 172.092 597.632 168.597Z" fill="#8C8C8C"/>
<path d="M197.942 97.4353C188.79 102.298 179.567 98.7313 175.847 97.2611C175.643 97.1889 175.65 96.8739 175.876 96.8305C177.51 96.5227 181.442 95.5776 184.898 93.0344C197.201 84.0195 209.099 93.127 212.252 95.9495C212.678 96.3503 212.574 96.5001 212.019 96.3079C206.854 94.5613 201.556 95.9965 197.942 97.4353ZM326.094 121.098C326.645 120.804 327.224 121.366 326.948 121.928C305.722 162.233 261.05 165.833 236.303 124.954C231.5 117.008 228.067 108.201 222.686 97.5492C219.601 91.4346 207.467 77.8831 194.098 81.9654C193.818 82.0411 193.625 81.7107 193.811 81.4984C213.086 58.7883 238.393 60.5232 255.115 70.0849C264.216 75.2886 270.746 81.2906 273.796 86.0067C273.922 86.1985 274.203 86.1229 274.218 85.9218C275.43 77.8947 270.619 69.8355 269.162 67.6444C269.004 67.3976 269.182 67.0714 269.496 67.0793C271.873 67.2086 279.811 68.1723 289.544 74.7352C307.134 86.641 306.546 98.5148 309.975 113.326C312.982 126.478 321.773 123.498 326.094 121.098Z" fill="#FF6900"/>
<path fill-rule="evenodd" clip-rule="evenodd" d="M602.298 144.529L594.09 148.325L629.557 166.829L545.14 190.444L531.915 187.052L533.835 176.163L517.822 183.567L342.481 148.272C343.314 144.565 344.305 141.059 345.374 137.653L335.06 135.632L337.928 121.059L350.84 123.578C364.081 95.2897 386.325 79.8233 406.932 71.3623L366.276 64.933L377.268 -4.10782L445.813 6.73178L437.919 56.314L508.856 68.9825L501.707 90.8404L465.108 119.7L466.949 131.225L497.711 139.409L551.858 111.31L560.427 39.6706L581.492 41.5839L587.146 14.4814L612.747 19.7926L606.151 51.4335L594.169 48.943L602.298 144.529Z" fill="#00788C"/>
<path opacity="0.29" d="M432.292 26.316L432.304 26.2912L432.315 26.2664C432.839 24.5128 433.01 22.8658 432.828 21.3254C432.492 19.4701 431.793 17.8074 430.733 16.3986C430.503 15.9873 430.311 15.6242 430.131 15.2362C429.808 14.5084 429.758 13.9089 430.04 13.3749C430.098 13.2509 430.181 13.1385 430.253 13.051C430.264 13.0262 430.301 13.013 430.312 12.9882L430.324 12.9634C430.776 12.3885 431.709 11.3729 433.086 11.082L433.122 11.0689L433.159 11.0558C433.28 10.9915 433.351 10.904 433.373 10.7931C433.383 10.707 433.357 10.6341 433.306 10.5495L432.374 9.3829C432.336 9.33477 432.249 9.26332 432.187 9.2648L432.163 9.25314C431.203 9.04346 430.215 9.21451 429.271 9.74002C428.486 10.1882 427.729 10.8318 427.001 11.6708C426.593 12.024 426.045 12.1599 425.321 12.0916C425.063 12.061 424.744 12.032 424.375 11.9796L424.35 11.968C424.19 11.9228 424.03 11.8776 423.895 11.8441C423.525 11.7305 422.136 11.5312 421.976 11.486L421.89 11.4759C421.865 11.4642 421.854 11.489 421.829 11.4773C421.265 11.4542 420.713 11.4063 420.506 11.4603C420.139 11.4692 415.893 11.6211 412.924 16.7687C412.299 17.8382 411.788 19.0521 411.354 20.4235C411.272 20.5971 411.179 20.7955 411.085 20.994L411.073 21.0188L411.062 21.0436C409.445 26.9798 404.384 38.1732 395.507 42.5077C395.495 42.5325 393.656 43.4843 394.262 45.4067C394.434 45.942 394.885 46.3969 395.566 46.7482C396.594 47.2627 398.328 47.564 398.878 47.5507C400.242 47.7384 402.584 47.9023 405.857 47.5042C407.237 47.3359 408.432 47.1108 409.419 46.8785C409.589 46.8376 409.796 46.7836 409.966 46.7427C410.514 46.6068 411.001 46.4724 411.366 46.341C413.129 45.8078 413.711 45.5363 415.128 44.8399L415.164 44.8268C415.406 44.6983 415.684 44.5567 415.963 44.4151C416.399 44.1961 416.786 44.0151 417.004 43.875C418.806 42.875 419.721 42.2153 421.454 40.8493L423.686 38.8704C425.776 37.0665 428.262 33.8432 428.274 33.8184C430.222 31.1598 431.586 28.6503 432.292 26.316Z" fill="#A5B9A5"/>
<path fill-rule="evenodd" clip-rule="evenodd" d="M555.468 -50.4176C551.098 -35.26 535.823 -25.6803 520.057 -28.7551C503.396 -31.9997 492.532 -48.1531 495.823 -64.828C499.114 -81.5029 515.252 -92.3791 531.913 -89.1346C546.758 -86.2415 556.929 -73.0944 556.687 -58.4832L566.774 -48.4975L555.468 -50.4176ZM499.289 40.2597L491.18 56.2733L516.061 60.1733L556.216 66.2545L535.263 97.3758L535.146 97.2893L500.836 149.016C496.844 155.018 488.69 156.696 482.701 152.708C476.712 148.72 475.049 140.558 479.041 134.556L511.269 85.9794L441.929 75.5157L496.794 -33.344L528.447 -17.2988L511.741 15.6967L577.166 25.9874L573.064 51.8661L499.289 40.2597Z" fill="#FFDE00"/>
<g style="mix-blend-mode:multiply" opacity="0.21">
<path d="M438.633 141.687L438.634 81.6905C438.634 81.6905 416.941 85.3826 398.48 102.92C380.02 120.458 376.789 131.073 376.789 131.073L438.633 141.687Z" fill="#00788C"/>
</g>
</g>
</g>
<defs>
<clipPath id="clip0">
<rect width="561" height="214" fill="white"/>
</clipPath>
<clipPath id="clip1">
<rect x="-47" width="656" height="214" fill="white"/>
</clipPath>
<clipPath id="clip2">
<rect x="314.965" y="-192.366" width="450.703" height="371.743" transform="rotate(25.2222 314.965 -192.366)" fill="white"/>
</clipPath>
</defs>
</svg>
