<svg width="286" height="119" viewBox="0 0 286 119" fill="none" xmlns="http://www.w3.org/2000/svg">
<path opacity="0.25" d="M168.349 136.588L143.163 193.096L131.305 195.268L128.533 189.947L153.024 137.685L91.7042 142.955L66.7599 196.549L62.0571 199.604L54.8191 191.257L79.2897 130.162L40.6198 88.0438L16.8616 137.552L11.0049 138.818L5.08652 128.312L37.9121 62.176L92.9211 60.8471C93.6658 69.5358 94.606 77.425 95.3419 83.0129C88.0295 80.8371 82.6563 80.5187 81.6933 82.5762C80.4235 85.2849 87.2236 91.254 97.5629 96.8811C99.4464 97.9078 101.449 98.9212 103.54 99.9043C105.631 100.888 107.69 101.778 109.684 102.572C120.618 106.926 129.555 108.339 130.823 105.629C131.786 103.575 128.107 99.6399 121.76 95.4107C126.409 92.4759 132.867 88.2854 139.825 83.456L173.219 125.665L168.349 136.588Z" fill="black"/>
<path d="M154.53 -8.91035C150.05 -11.0126 145.2 -12.2125 140.258 -12.4416C135.316 -12.6706 130.378 -11.9244 125.727 -10.2454C121.075 -8.56637 116.801 -5.98754 113.149 -2.65614C109.496 0.675267 106.537 4.69399 104.44 9.17057C99.8692 18.9209 100.48 41.2969 102.16 60.6178C103.72 78.6003 106.208 93.9332 106.312 93.9834C106.416 94.0335 119.476 86.3215 134.088 76.1996C150.141 65.0766 168.064 51.0472 172.671 41.1857C176.908 32.1454 177.376 21.7889 173.975 12.3942C170.573 2.99951 163.578 -4.66389 154.53 -8.91035ZM126.472 51.1452C123.09 49.5589 120.054 47.3227 117.536 44.5643C115.018 41.8059 113.068 38.5793 111.796 35.0688C110.525 31.5583 109.958 27.8326 110.127 24.1045C110.296 20.3765 111.198 16.719 112.781 13.341C114.364 9.96274 116.597 6.92996 119.353 4.41592C122.109 1.90187 125.335 -0.0442005 128.845 -1.31116C132.355 -2.57812 136.081 -3.14113 139.811 -2.96806C143.541 -2.79499 147.2 -1.88923 150.581 -0.302497C157.41 2.90075 162.689 8.68273 165.258 15.7717C167.826 22.8607 167.474 30.6762 164.279 37.4991C162.696 40.8777 160.462 43.9108 157.705 46.4251C154.948 48.9394 151.722 50.8857 148.211 52.1529C144.701 53.42 140.974 53.9832 137.244 53.8104C133.514 53.6375 129.853 52.7319 126.472 51.1452Z" fill="#88B919"/>
<path d="M154.53 -8.91035C150.05 -11.0126 145.2 -12.2125 140.258 -12.4416C135.316 -12.6706 130.378 -11.9244 125.727 -10.2454C121.075 -8.56637 116.801 -5.98754 113.149 -2.65614C109.496 0.675267 106.537 4.69399 104.44 9.17057C99.8692 18.9209 100.48 41.2969 102.16 60.6178C103.72 78.6003 106.208 93.9332 106.312 93.9834C106.416 94.0335 119.476 86.3215 134.088 76.1996C150.141 65.0766 168.064 51.0472 172.671 41.1857C176.908 32.1454 177.376 21.7889 173.975 12.3942C170.573 2.99951 163.578 -4.66389 154.53 -8.91035ZM126.472 51.1452C123.09 49.5589 120.054 47.3227 117.536 44.5643C115.018 41.8059 113.068 38.5793 111.796 35.0688C110.525 31.5583 109.958 27.8326 110.127 24.1045C110.296 20.3765 111.198 16.719 112.781 13.341C114.364 9.96274 116.597 6.92996 119.353 4.41592C122.109 1.90187 125.335 -0.0442005 128.845 -1.31116C132.355 -2.57812 136.081 -3.14113 139.811 -2.96806C143.541 -2.79499 147.2 -1.88923 150.581 -0.302497C157.41 2.90075 162.689 8.68273 165.258 15.7717C167.826 22.8607 167.474 30.6762 164.279 37.4991C162.696 40.8777 160.462 43.9108 157.705 46.4251C154.948 48.9394 151.722 50.8857 148.211 52.1529C144.701 53.42 140.974 53.9832 137.244 53.8104C133.514 53.6375 129.853 52.7319 126.472 51.1452Z" fill="#88B919"/>
<path d="M127.634 11.8998C127.527 11.8496 127.431 11.7788 127.351 11.6915C127.272 11.6042 127.21 11.5021 127.17 11.391C127.129 11.2799 127.112 11.162 127.117 11.044C127.122 10.926 127.151 10.8103 127.201 10.7034L129.76 5.24188C129.963 4.81064 130.329 4.47763 130.778 4.31561C131.227 4.15359 131.721 4.17575 132.154 4.37725L137.528 6.90037C137.744 7.00221 137.911 7.18528 137.992 7.40949C138.073 7.63371 138.062 7.88083 137.961 8.09677C137.86 8.31227 137.677 8.47866 137.453 8.55952C137.228 8.64038 136.981 8.62914 136.765 8.52824L131.391 6.00509L128.83 11.4684C128.729 11.6839 128.546 11.8502 128.322 11.9311C128.097 12.012 127.85 12.0007 127.634 11.8998Z" fill="#E6007D"/>
<path d="M123.609 36.8365L118.143 34.2722C117.929 34.1717 117.737 34.0302 117.577 33.8556C117.418 33.681 117.295 33.4767 117.214 33.2545C117.134 33.0323 117.098 32.7965 117.109 32.5606C117.12 32.3246 117.177 32.0931 117.277 31.8794L119.793 26.5085C119.843 26.4016 119.914 26.3057 120.001 26.2261C120.088 26.1466 120.191 26.085 120.302 26.0449C120.413 26.0049 120.531 25.9871 120.649 25.9926C120.767 25.9981 120.882 26.0268 120.989 26.0771C121.205 26.1782 121.372 26.3609 121.454 26.5849C121.535 26.8089 121.524 27.0559 121.424 27.2717L118.906 32.6413L124.373 35.2087C124.48 35.2586 124.576 35.3291 124.656 35.4161C124.736 35.5032 124.798 35.6052 124.838 35.7162C124.878 35.8272 124.896 35.945 124.891 36.0629C124.886 36.1808 124.857 36.2965 124.807 36.4033C124.757 36.5105 124.686 36.6068 124.599 36.6867C124.512 36.7665 124.41 36.8283 124.298 36.8685C124.187 36.9088 124.069 36.9267 123.951 36.9212C123.833 36.9157 123.717 36.8869 123.609 36.8365Z" fill="#E6007D"/>
<path d="M144.622 46.6958L139.246 44.1744C139.031 44.0727 138.865 43.8897 138.784 43.6657C138.703 43.4416 138.714 43.1948 138.815 42.9793C138.865 42.8723 138.935 42.7762 139.022 42.6965C139.109 42.6168 139.211 42.5551 139.322 42.5149C139.433 42.4747 139.551 42.4568 139.669 42.4622C139.787 42.4677 139.903 42.4963 140.01 42.5466L145.385 45.0679L147.946 39.6077C147.996 39.5007 148.066 39.4046 148.153 39.3249C148.24 39.2452 148.342 39.1835 148.453 39.1433C148.564 39.1031 148.682 39.0852 148.8 39.0907C148.918 39.0961 149.034 39.1247 149.141 39.175C149.248 39.225 149.344 39.2956 149.424 39.3829C149.504 39.4701 149.566 39.5723 149.606 39.6835C149.646 39.7947 149.664 39.9127 149.658 40.0307C149.653 40.1488 149.624 40.2645 149.574 40.3714L147.015 45.8329C146.914 46.0467 146.773 46.2386 146.599 46.3977C146.424 46.5568 146.22 46.6799 145.998 46.76C145.776 46.8402 145.54 46.8757 145.304 46.8647C145.068 46.8537 144.836 46.7963 144.622 46.6958Z" fill="#E6007D"/>
<path d="M155.785 24.9964C155.678 24.9463 155.583 24.8755 155.503 24.7883C155.423 24.7011 155.362 24.599 155.322 24.488C155.282 24.377 155.264 24.2592 155.27 24.1413C155.275 24.0235 155.304 23.9079 155.354 23.8013L157.875 18.4235L152.407 15.8579C152.191 15.7561 152.025 15.573 151.944 15.3488C151.863 15.1246 151.874 14.8774 151.974 14.6615C152.076 14.446 152.259 14.2796 152.483 14.1987C152.707 14.1179 152.954 14.1292 153.171 14.2301L158.637 16.7944C159.069 16.9982 159.402 17.3644 159.565 17.813C159.727 18.2617 159.706 18.7562 159.505 19.1885L156.987 24.5581C156.938 24.6664 156.867 24.7638 156.78 24.8447C156.693 24.9255 156.59 24.9882 156.478 25.029C156.366 25.0698 156.248 25.0879 156.129 25.0823C156.01 25.0767 155.893 25.0475 155.785 24.9964Z" fill="#E6007D"/>
<path d="M141.932 14.4614L133.292 10.4073C133.024 10.2817 132.705 10.3967 132.58 10.6642L128.534 19.2969C128.409 19.5645 128.524 19.8832 128.792 20.0089L137.433 24.063C137.7 24.1886 138.019 24.0736 138.145 23.806L142.19 15.1733C142.316 14.9058 142.2 14.587 141.932 14.4614Z" fill="#E6007D"/>
<path d="M136.593 25.8543L127.953 21.8002C127.685 21.6745 127.366 21.7896 127.241 22.0571L123.195 30.6899C123.07 30.9574 123.185 31.2761 123.453 31.4018L132.093 35.4559C132.361 35.5815 132.68 35.4665 132.805 35.1989L136.851 26.5662C136.976 26.2987 136.861 25.9799 136.593 25.8543Z" fill="#E6007D"/>
<path d="M153.335 19.8117L144.694 15.7576C144.426 15.632 144.108 15.747 143.982 16.0145L139.937 24.6473C139.811 24.9148 139.927 25.2336 140.195 25.3592L148.835 29.4133C149.103 29.5389 149.422 29.4239 149.547 29.1564L153.593 20.5236C153.718 20.2561 153.602 19.9373 153.335 19.8117Z" fill="#E6007D"/>
<path d="M146.27 36.1534L144.363 40.2213C144.313 40.3282 144.242 40.4241 144.155 40.5037C144.068 40.5832 143.966 40.6448 143.855 40.6848C143.744 40.7249 143.626 40.7427 143.508 40.7372C143.39 40.7317 143.274 40.703 143.167 40.6527L139.095 38.7416C138.988 38.6918 138.892 38.6213 138.812 38.5342C138.732 38.4471 138.671 38.3451 138.63 38.2341C138.59 38.1231 138.572 38.0053 138.577 37.8874C138.582 37.7695 138.611 37.6538 138.661 37.547L140.11 34.4546L137.016 33.0009C136.8 32.8998 136.633 32.7171 136.552 32.4931C136.47 32.2691 136.481 32.0221 136.582 31.8063L138.49 27.7366C138.54 27.6299 138.611 27.534 138.698 27.4546C138.785 27.3752 138.887 27.3137 138.998 27.2738C139.109 27.2339 139.227 27.2163 139.345 27.222C139.463 27.2276 139.578 27.2565 139.685 27.3069L143.758 29.2163C143.974 29.3181 144.14 29.5011 144.222 29.7254C144.303 29.9496 144.292 30.1967 144.191 30.4127L142.742 33.505L145.837 34.957C146.053 35.0588 146.22 35.2419 146.301 35.4661C146.382 35.6903 146.371 35.9374 146.27 36.1534Z" fill="#E6007D"/>
<g clip-path="url(#clip0)">
<path d="M283.703 75.444L270.796 76.1204L271.473 89.027L284.379 88.3506L283.703 75.444Z" fill="#E6007D"/>
<path d="M271.473 89.0225L258.566 89.6989L259.242 102.606L272.149 101.929L271.473 89.0225Z" fill="#E6007D"/>
<path d="M257.213 63.8901L162.368 68.8607L163.721 94.6695L258.566 89.6989L257.213 63.8901Z" fill="#E6007D"/>
</g>
<path d="M197.38 88.8731L197.145 88.8356C197.037 88.8745 196.915 88.8864 196.782 88.8712C196.659 88.8666 196.575 88.8433 196.528 88.8014C196.461 88.7828 196.409 88.7412 196.372 88.6766C196.336 88.612 196.141 88.4892 195.788 88.3082L195.546 88.138C195.5 88.0961 195.419 88.0449 195.305 87.9844C195.202 87.9233 195.127 87.8607 195.079 87.7967C195.056 87.7758 194.979 87.6801 194.848 87.5096C194.717 87.3281 194.574 87.1472 194.421 86.9668C194.278 86.7748 194.136 86.6049 193.995 86.4571C193.854 86.3093 193.767 86.2197 193.732 86.1883L191.872 84.3241L191.395 83.8005C191.327 83.7597 191.28 83.7123 191.255 83.6582C191.23 83.6041 191.194 83.5561 191.148 83.5142L188.789 80.6953C188.763 80.6302 188.727 80.5656 188.679 80.5016C188.631 80.4376 188.595 80.373 188.569 80.3079L188.157 79.7476L186.131 75.9803C186.098 75.982 186.056 75.9233 186.006 75.804C185.955 75.6737 185.898 75.5382 185.835 75.3974C185.771 75.2455 185.709 75.1158 185.648 75.0082C185.587 74.9005 185.534 74.8479 185.49 74.8502L185.425 77.0979C185.431 77.2084 185.45 77.3571 185.482 77.5438C185.524 77.7189 185.556 77.9056 185.578 78.104C185.599 78.2913 185.614 78.4734 185.623 78.6502C185.632 78.816 185.6 78.9451 185.527 79.0376C185.538 79.2587 185.519 79.5146 185.467 79.8055C185.415 80.0852 185.406 80.3296 185.439 80.5384C185.45 80.7373 185.439 80.9485 185.406 81.1719C185.373 81.3842 185.362 81.5953 185.373 81.8053C185.371 81.7832 185.362 81.817 185.345 81.9065C185.327 81.9961 185.306 82.1136 185.28 82.259C185.254 82.3934 185.227 82.5167 185.2 82.629C185.172 82.7413 185.159 82.7974 185.159 82.7974C185.168 82.9742 185.166 83.1517 185.153 83.3297C185.14 83.4966 185.138 83.674 185.148 83.8619C185.153 83.9503 185.129 84.0236 185.076 84.0818C185.035 84.1394 185.028 84.2228 185.056 84.3322C185.044 84.5213 185.01 84.7115 184.953 84.9028C184.897 85.0942 184.851 85.285 184.817 85.4752C184.782 85.6544 184.767 85.7937 184.772 85.8931C184.777 85.9816 184.77 86.065 184.752 86.1436C184.734 86.2221 184.711 86.312 184.683 86.4132C184.655 86.5144 184.596 86.6505 184.505 86.8215L184.301 87.3642C184.28 87.3985 184.259 87.5215 184.237 87.7333C184.215 87.945 184.205 88.0785 184.208 88.1337C184.125 88.2489 184.076 88.3623 184.06 88.474C184.043 88.5857 183.999 88.6878 183.926 88.7803C183.825 88.9739 183.741 89.1668 183.674 89.3587C183.607 89.5617 183.447 89.6809 183.194 89.7163C183.06 89.7012 182.942 89.6741 182.84 89.6351C182.739 89.6072 182.625 89.5411 182.498 89.437C182.451 89.3951 182.424 89.3078 182.417 89.1752C182.415 89.131 182.419 89.0975 182.429 89.0748C182.439 89.0522 182.442 89.0187 182.44 88.9745C182.437 88.9192 182.446 88.88 182.467 88.8567C182.465 88.8125 182.447 88.6915 182.415 88.4937C182.382 88.2849 182.365 88.1694 182.364 88.1473C182.362 88.1252 182.327 87.9885 182.259 87.7372C182.19 87.4748 182.153 87.3105 182.15 87.2442C182.115 87.0022 182.083 86.8099 182.053 86.6674C182.023 86.5138 182.001 86.2988 181.986 86.0225C181.982 85.9341 181.945 85.8695 181.876 85.8288C181.873 85.7625 181.861 85.6522 181.842 85.4981C181.823 85.3329 181.803 85.1677 181.783 85.0025C181.763 84.8373 181.744 84.6831 181.726 84.54C181.706 84.3858 181.696 84.2867 181.693 84.2424C181.642 84.1121 181.598 83.8983 181.56 83.6011C181.533 83.3032 181.5 82.9781 181.459 82.6255C181.419 82.2841 181.368 81.9487 181.307 81.6194C181.245 81.2902 181.204 80.9377 181.185 80.5619C181.131 79.9662 181.089 79.3755 181.059 78.7897C181.01 78.2935 180.971 77.7635 180.942 77.1999C180.912 76.6362 180.897 76.1272 180.895 75.6729L180.906 74.6084L180.888 74.2768C180.857 74.09 180.858 73.9071 180.893 73.7279C180.928 73.5488 180.94 73.3653 180.931 73.1774L180.756 71.1085C180.755 71.0864 180.751 71.0201 180.745 70.9095C180.739 70.799 180.739 70.6882 180.744 70.5771C180.749 70.4549 180.749 70.3441 180.744 70.2446C180.738 70.1452 180.735 70.0844 180.734 70.0623L180.593 68.64C180.591 68.5958 180.575 68.5079 180.546 68.3765C180.516 68.2339 180.5 68.1406 180.498 68.0964C180.474 68.0533 180.46 67.9986 180.456 67.9323L180.431 67.4515C180.407 67.4085 180.404 67.3532 180.422 67.2857C180.441 67.2183 180.449 67.1624 180.447 67.1182C180.437 66.9303 180.383 66.7447 180.285 66.5615C180.186 66.3672 180.127 66.1874 180.107 66.0222C180.087 65.857 180.146 65.7154 180.284 65.5973C180.421 65.4682 180.728 65.3912 181.203 65.3663C181.435 65.3541 181.621 65.4109 181.76 65.5365C181.874 65.586 181.975 65.6084 182.063 65.6038C182.163 65.5986 182.257 65.6047 182.347 65.6222C182.391 65.6199 182.447 65.628 182.514 65.6467C182.582 65.6653 182.638 65.6734 182.682 65.6711C182.683 65.6932 182.802 65.7369 183.038 65.8021C183.285 65.8667 183.459 65.9185 183.561 65.9575C183.65 65.9529 183.763 65.9913 183.9 66.0728C184.036 66.1432 184.145 66.2095 184.226 66.2718C184.292 66.2683 184.376 66.2861 184.478 66.3251C184.58 66.3641 184.687 66.4028 184.8 66.4412C184.866 66.4377 184.98 66.4982 185.142 66.6228C185.314 66.7357 185.424 66.8241 185.472 66.8881C185.566 66.994 185.655 67.0946 185.737 67.1901C185.831 67.2849 185.959 67.4001 186.121 67.5357C186.168 67.5776 186.215 67.6305 186.262 67.6945C186.31 67.7585 186.396 67.8094 186.52 67.8473C186.68 67.9497 186.847 68.0629 187.02 68.1868C187.203 68.2991 187.376 68.4286 187.539 68.5752C187.585 68.6171 187.628 68.6869 187.666 68.7847C187.704 68.8713 187.746 68.9356 187.792 68.9775L188.053 69.1966L189.563 70.7134C189.571 70.8792 189.708 71.0605 189.973 71.2571C190.249 71.4422 190.445 71.5871 190.561 71.6918L191.003 72.184C191.003 72.184 191.033 72.2323 191.094 72.3289C191.154 72.4255 191.226 72.527 191.309 72.6335C191.392 72.7399 191.476 72.8574 191.56 72.986C191.655 73.103 191.737 73.1929 191.807 73.2557C191.906 73.4611 192.041 73.6036 192.212 73.6833C192.393 73.7625 192.554 73.8649 192.693 73.9906C192.739 74.0104 192.854 74.0985 193.04 74.2551C193.236 74.3999 193.358 74.5154 193.407 74.6015C193.591 74.7249 193.699 74.88 193.731 75.0667C193.754 75.0876 193.79 75.1412 193.839 75.2273C193.899 75.3128 193.96 75.4204 194.022 75.5502C194.084 75.6688 194.145 75.7765 194.205 75.873C194.266 75.9696 194.309 76.0505 194.334 76.1156C194.356 76.1145 194.387 76.1683 194.426 76.2771C194.464 76.3748 194.503 76.4836 194.543 76.6034C194.582 76.7233 194.616 76.8489 194.646 76.9804C194.685 77.1003 194.717 77.1817 194.741 77.2248C194.791 77.333 194.888 77.4775 195.03 77.6585C195.102 77.7655 195.196 77.9657 195.311 78.2589C195.437 78.5404 195.536 78.7458 195.609 78.875C195.63 78.4195 195.651 77.9861 195.674 77.5749C195.7 77.2189 195.707 76.8361 195.697 76.4266C195.687 76.0171 195.661 75.6416 195.621 75.3001L195.383 74.5645C195.352 74.3888 195.345 74.2617 195.363 74.1832C195.381 74.1046 195.363 73.9726 195.309 73.787C195.284 73.7218 195.281 73.5613 195.301 73.3053C195.32 73.0383 195.317 72.8833 195.293 72.8403C195.311 71.9084 195.321 71.0434 195.323 70.2453C195.326 69.4472 195.406 68.6506 195.564 67.8554C195.563 67.8333 195.574 67.7385 195.599 67.571C195.634 67.3918 195.657 67.2022 195.669 67.0021C195.68 66.7909 195.698 66.6071 195.723 66.4506C195.747 66.2831 195.758 66.1772 195.756 66.133C195.809 65.8643 195.842 65.663 195.857 65.5292C195.872 65.3844 195.888 65.2616 195.905 65.161C195.922 65.0604 195.95 64.9702 195.99 64.8905C196.03 64.7998 196.096 64.6855 196.188 64.5477C196.23 64.5011 196.321 64.441 196.462 64.3671C196.602 64.2933 196.694 64.2552 196.738 64.2529C196.926 64.243 197.072 64.2797 197.176 64.3629C197.28 64.4461 197.355 64.4976 197.4 64.5174C197.579 64.7629 197.694 64.9453 197.745 65.0646C197.795 65.1838 197.834 65.276 197.859 65.3412C197.909 65.4384 197.964 65.5463 198.026 65.665C198.087 65.7836 198.111 65.9099 198.095 66.0437C198.082 66.2106 198.084 66.3491 198.101 66.459C198.117 66.5689 198.137 66.6233 198.159 66.6222L198.254 67.1658C198.256 67.21 198.272 67.2923 198.3 67.4128C198.328 67.5221 198.362 67.6478 198.403 67.7897C198.455 67.9311 198.495 68.073 198.525 68.2156C198.554 68.347 198.57 68.4459 198.574 68.5122C198.575 68.5343 198.577 68.5786 198.581 68.6449C198.584 68.7112 198.598 68.7659 198.623 68.8089C198.61 68.998 198.625 69.169 198.666 69.322C198.708 69.475 198.733 69.6454 198.743 69.8333C198.837 69.9392 198.9 70.0855 198.932 70.2723C198.964 70.4479 199.032 70.6882 199.136 70.993L199.201 71.6047C199.185 71.7054 199.176 71.861 199.176 72.0715C199.176 72.2821 199.172 72.5151 199.163 72.7705C199.153 73.0148 199.149 73.2533 199.15 73.4859C199.151 73.7076 199.153 73.8571 199.157 73.9344C199.158 73.9566 199.158 74.0453 199.155 74.2006C199.152 74.3559 199.142 74.4839 199.125 74.5845C199.143 74.9382 199.151 75.2924 199.147 75.6473C199.144 76.0021 199.152 76.3619 199.171 76.7266L199.2 77.2903C199.214 77.5445 199.212 77.7275 199.196 77.8392L198.925 79.9646C198.926 79.9868 198.924 80.0478 198.918 80.1479C198.911 80.2369 198.911 80.3311 198.916 80.4306C198.921 80.5301 198.921 80.6243 198.914 80.7133C198.908 80.8023 198.905 80.8579 198.906 80.88L199.033 82.037C199.036 82.0812 199.033 82.1423 199.026 82.2202C199.019 82.2982 199.017 82.3648 199.02 82.42L198.658 86.6117C198.66 86.6449 198.658 86.717 198.653 86.8281C198.647 86.9392 198.645 87.0058 198.647 87.0279C198.607 87.1187 198.585 87.2196 198.579 87.3307C198.573 87.4308 198.564 87.5587 198.55 87.7146C198.533 87.8263 198.489 87.9284 198.416 88.0209C198.343 88.1023 198.276 88.2 198.215 88.314L197.38 88.8731Z" fill="black"/>
<path d="M211.319 87.7602C211.187 87.7672 211.027 87.7922 210.841 87.8352C210.666 87.8776 210.491 87.92 210.316 87.9624C210.152 88.0043 210.004 88.0397 209.873 88.0688C209.741 88.0979 209.652 88.0914 209.606 88.0495C209.584 88.0507 209.523 88.0484 209.422 88.0425C209.333 88.0361 209.234 88.0358 209.123 88.0416C208.991 88.0485 208.83 88.0459 208.641 88.0336C208.528 87.9952 208.305 87.9792 207.973 87.9855C207.652 87.9912 207.398 87.999 207.21 88.0089L206.397 88.0514L205.071 88.121C204.96 88.1267 204.867 88.1317 204.789 88.1357C204.712 88.1398 204.612 88.1339 204.489 88.1182C204.442 88.0763 204.367 88.0138 204.263 87.9306C204.159 87.8473 204.095 87.7897 204.071 87.7577C204.023 87.6937 203.986 87.6126 203.959 87.5143C203.931 87.416 203.905 87.3342 203.879 87.2691C203.877 87.2249 203.865 87.1091 203.844 86.9218C203.823 86.7234 203.803 86.4419 203.784 86.0771C203.78 86.0108 203.769 85.9006 203.75 85.7464C203.73 85.5812 203.699 85.4166 203.657 85.2525C203.626 85.0879 203.596 84.9288 203.566 84.7752C203.535 84.6106 203.518 84.5062 203.516 84.462C203.511 84.3735 203.473 84.176 203.402 83.8695C203.33 83.5629 203.258 83.2342 203.184 82.8834C203.11 82.5216 203.042 82.1871 202.982 81.8799C202.921 81.5728 202.878 81.3756 202.851 81.2883C202.85 81.2662 202.841 81.2057 202.825 81.1068C202.809 81.0079 202.799 80.9364 202.797 80.8922L202.747 79.9306C202.715 79.3227 202.688 78.709 202.667 78.0895C202.645 77.4589 202.617 76.8286 202.584 76.1986L202.531 75.1873C202.503 75.0669 202.486 74.957 202.481 74.8575C202.475 74.758 202.469 74.642 202.462 74.5093C202.474 74.2982 202.476 74.1373 202.47 74.0268C202.465 73.9163 202.459 73.8058 202.453 73.6952C202.443 73.5073 202.461 73.3125 202.506 73.1106C202.55 72.8977 202.566 72.6697 202.553 72.4265C202.552 72.4044 202.566 72.3594 202.596 72.2913C202.625 72.2122 202.635 72.0842 202.625 71.9074L202.772 69.6222C202.745 69.5349 202.751 69.4404 202.79 69.3386C202.839 69.2252 202.885 69.1342 202.925 69.0655C202.912 68.8113 202.892 68.6406 202.865 68.5533C202.807 68.2904 202.823 68.0734 202.914 67.9024C203.004 67.7204 203.043 67.5022 203.029 67.248L203.236 66.7385L203.508 65.9096L203.776 65.3137C203.836 65.1997 203.893 65.1136 203.945 65.0555C204.008 64.9857 204.057 64.8612 204.092 64.6821C204.132 64.5913 204.2 64.5212 204.297 64.4718C204.394 64.4224 204.486 64.3788 204.573 64.341C204.693 64.3125 204.809 64.2954 204.919 64.2896L206.336 64.0491C206.358 64.0479 206.431 64.0497 206.553 64.0544C206.675 64.059 206.747 64.0608 206.769 64.0597L208.626 64.2782C208.672 64.3201 208.761 64.3265 208.893 64.2975C209.035 64.2678 209.151 64.2507 209.239 64.2461C209.535 64.1862 209.817 64.1659 210.084 64.1852C210.362 64.2038 210.655 64.183 210.962 64.1225C210.984 64.1214 211.056 64.1231 211.178 64.1278C211.311 64.1319 211.4 64.1328 211.444 64.1305C211.576 64.1014 211.698 64.1172 211.812 64.1777C211.938 64.2376 212.066 64.2641 212.199 64.2572C212.265 64.2537 212.383 64.2697 212.551 64.3053C212.73 64.3402 212.853 64.3559 212.919 64.3525C213.373 64.3508 213.846 64.387 214.338 64.461C214.829 64.5239 215.301 64.5435 215.754 64.5198C215.864 64.514 215.996 64.4904 216.149 64.4492C216.313 64.3963 216.461 64.3663 216.593 64.3594C216.661 64.378 216.728 64.3856 216.794 64.3821C216.871 64.3781 216.945 64.4019 217.014 64.4537L217.777 64.7462C217.799 64.745 217.846 64.7869 217.917 64.8719C217.988 64.9568 218.024 65.0103 218.025 65.0324L218.029 65.1153L218.033 65.1817C218.034 65.2038 218.046 65.2142 218.068 65.2131C218.048 65.2584 218.03 65.3314 218.013 65.4321C217.996 65.5327 217.904 65.6816 217.737 65.8788C217.6 66.0189 217.428 66.1166 217.22 66.1718C217.012 66.227 216.814 66.2485 216.625 66.2363C216.603 66.2374 216.542 66.2461 216.444 66.2624C216.345 66.2787 216.285 66.2984 216.264 66.3217C216.013 66.4013 215.782 66.4411 215.572 66.4411C215.372 66.4405 215.165 66.5012 214.95 66.6233C214.629 66.6401 214.326 66.6726 214.04 66.7208C213.765 66.7574 213.437 66.8301 213.054 66.9388C212.923 66.9678 212.758 66.9931 212.56 67.0146C212.372 67.0355 212.185 67.0564 211.998 67.0773C211.821 67.0976 211.667 67.1167 211.535 67.1347C211.403 67.1527 211.315 67.1629 211.271 67.1652L209.904 67.1038L209.513 67.5566L209.611 68.1665C209.613 68.2108 209.627 68.2654 209.653 68.3306C209.678 68.3847 209.694 68.4781 209.701 68.6107C209.725 68.6538 209.77 68.7622 209.834 68.9362C209.909 69.0985 209.948 69.2018 209.95 69.246C210.001 69.3763 210.029 69.4746 210.032 69.5409C210.033 69.563 210.03 69.6131 210.023 69.691C210.016 69.7579 210.002 69.803 209.981 69.8262L210.081 71.7494C210.085 71.8157 210.072 71.8939 210.044 71.9841C210.026 72.0626 210.017 72.1129 210.018 72.135C210.023 72.2235 210.046 72.3386 210.086 72.4806C210.138 72.6109 210.188 72.9352 210.237 73.4535C210.241 73.5198 210.242 73.6472 210.241 73.8357C210.239 74.0131 210.228 74.1245 210.208 74.1699C210.387 74.2048 210.572 74.2284 210.761 74.2407C210.961 74.2524 211.15 74.2757 211.329 74.3106C211.517 74.3008 211.718 74.3235 211.931 74.3788C212.145 74.4341 212.37 74.5054 212.608 74.5927L213.53 74.7439C213.64 74.7381 213.735 74.7387 213.813 74.7457C213.902 74.7521 214.001 74.7524 214.112 74.7466C214.222 74.7409 214.327 74.7188 214.424 74.6804C214.533 74.6415 214.631 74.6086 214.718 74.5819C214.785 74.5784 214.878 74.5679 214.999 74.5505C215.131 74.5325 215.209 74.5229 215.231 74.5218L216.209 74.4705C216.253 74.4682 216.336 74.4694 216.458 74.4741C216.592 74.4782 216.691 74.4785 216.758 74.475C216.868 74.4692 216.986 74.5073 217.113 74.5894C217.25 74.6709 217.375 74.7308 217.488 74.7692C217.495 74.9018 217.543 74.9714 217.632 74.9778C217.721 74.9842 217.772 75.1145 217.785 75.3687C217.786 75.3908 217.782 75.4188 217.773 75.4525C217.764 75.4862 217.76 75.5252 217.763 75.5694C217.726 75.7154 217.589 75.8556 217.352 75.9899C217.127 76.1236 216.981 76.2033 216.916 76.2289L216.303 76.261C216.28 76.2622 216.242 76.2753 216.188 76.3003C216.134 76.3253 216.096 76.3383 216.074 76.3395C216.053 76.3628 215.954 76.3846 215.778 76.4049C215.613 76.4246 215.509 76.4467 215.466 76.4711C215.444 76.4723 215.378 76.4868 215.269 76.5147C215.17 76.542 215.061 76.581 214.942 76.6316C214.822 76.6711 214.713 76.7045 214.615 76.7318C214.528 76.7586 214.473 76.7725 214.451 76.7737L213.99 76.8643C213.869 76.8707 213.742 76.8829 213.61 76.9009C213.478 76.9189 213.346 76.9424 213.214 76.9715L211.109 77.0818C211.087 77.083 211.043 77.0908 210.977 77.1053C210.922 77.1193 210.885 77.1379 210.864 77.1612C210.82 77.1635 210.699 77.1975 210.503 77.2632C210.318 77.3283 210.23 77.4327 210.237 77.5764C210.245 77.7311 210.262 77.9408 210.287 78.2055C210.311 78.4591 210.341 78.718 210.377 78.9821C210.413 79.2351 210.441 79.4608 210.463 79.6592C210.495 79.8459 210.511 79.9504 210.512 79.9725C210.515 80.0167 210.537 80.1263 210.579 80.3014C210.621 80.4655 210.643 80.5586 210.644 80.5807C210.653 80.7575 210.656 80.9125 210.652 81.0457C210.647 81.1679 210.646 81.2621 210.65 81.3285L210.659 81.4942C210.592 81.7083 210.507 81.8845 210.404 82.023C210.408 82.1114 210.41 82.2498 210.409 82.4383C210.407 82.6157 210.406 82.8152 210.407 83.0369C210.407 83.2474 210.407 83.4525 210.406 83.652C210.405 83.8405 210.406 83.9789 210.411 84.0674L210.432 84.4653C210.435 84.5316 210.434 84.6092 210.428 84.6982C210.421 84.7762 210.42 84.8704 210.426 84.9809C210.681 84.9897 210.9 85.0392 211.082 85.1294C211.264 85.2196 211.483 85.2746 211.739 85.2945L213.928 85.5122C214.083 85.5041 214.255 85.5173 214.445 85.5516C214.556 85.5458 214.634 85.5583 214.68 85.5892C214.726 85.62 214.803 85.6104 214.911 85.5604C215.119 85.5052 215.341 85.5047 215.576 85.5588C215.823 85.6124 216.033 85.6014 216.206 85.5258C216.252 85.5456 216.335 85.5413 216.455 85.5128C216.586 85.4837 216.684 85.4454 216.748 85.3977C216.861 85.4361 216.988 85.4294 217.129 85.3777C217.282 85.3254 217.423 85.2736 217.554 85.2225L218.273 85.3178C218.316 85.2933 218.376 85.268 218.452 85.2419C218.54 85.2151 218.628 85.2105 218.718 85.228C218.941 85.2606 219.045 85.3383 219.029 85.461C219.013 85.5727 219.032 85.7269 219.087 85.9235C219.052 86.1026 219.02 86.2373 218.991 86.3275C218.962 86.4066 218.908 86.5258 218.827 86.6852C218.849 86.684 218.771 86.7768 218.592 86.9635C218.379 87.1187 218.218 87.2214 218.11 87.2714C218.045 87.297 218.002 87.3214 217.981 87.3446C217.906 87.3929 217.769 87.4278 217.571 87.4493C217.372 87.4707 217.213 87.4957 217.092 87.5242C217.07 87.5253 217.004 87.5233 216.893 87.518C216.781 87.5128 216.714 87.4997 216.691 87.4787C216.625 87.4822 216.542 87.4976 216.444 87.5249C216.357 87.5517 216.235 87.547 216.078 87.5109L215.011 87.467C214.901 87.4728 214.781 87.5068 214.651 87.569C214.521 87.6312 214.396 87.6655 214.274 87.6719L213.296 87.7232C213.231 87.7487 213.109 87.7441 212.929 87.7091C212.761 87.6736 212.656 87.668 212.613 87.6925L211.319 87.7602Z" fill="black"/>
<path d="M235.836 80.6901C235.807 80.5587 235.75 80.4397 235.667 80.3332C235.584 80.2157 235.517 80.1028 235.467 79.9946L234.661 78.258C234.656 78.1696 234.628 78.0603 234.577 77.9299C234.526 77.7996 234.465 77.6865 234.393 77.5905C234.332 77.4828 234.276 77.3639 234.225 77.2336C234.151 77.1044 234.089 76.9636 234.036 76.8112C233.983 76.6477 233.932 76.5119 233.882 76.4037L233.167 74.4961C233.167 74.4961 233.143 74.5639 233.094 74.6994C233.046 74.8349 232.988 74.9931 232.92 75.174C232.862 75.3433 232.8 75.5239 232.732 75.7159C232.664 75.8967 232.622 76.043 232.606 76.1547C232.586 76.2001 232.551 76.285 232.502 76.4095C232.453 76.5229 232.405 76.6584 232.358 76.8161C232.321 76.9731 232.285 77.1246 232.248 77.2706C232.211 77.4056 232.183 77.5068 232.165 77.5743C232.167 77.6185 232.16 77.702 232.144 77.8247C232.128 77.9364 232.121 78.0143 232.123 78.0585L230.562 81.8809L230.244 82.4794L229.814 83.4827L229.071 84.8516C229.031 84.9202 228.976 85.0339 228.906 85.1927C228.837 85.3405 228.792 85.437 228.772 85.4824C228.751 85.5057 228.717 85.5961 228.67 85.7537C228.622 85.9003 228.599 85.9847 228.6 86.0068C228.49 86.2342 228.372 86.4232 228.247 86.5738C228.122 86.7134 227.98 86.8649 227.822 87.0284C227.778 87.0307 227.713 87.0618 227.628 87.1217C227.542 87.1816 227.478 87.2237 227.435 87.2482C227.391 87.2505 227.341 87.2586 227.287 87.2725C227.232 87.2975 227.178 87.3115 227.122 87.3144C227.056 87.3179 226.988 87.2937 226.919 87.2419C226.808 87.2256 226.697 87.2259 226.587 87.2427C226.488 87.259 226.402 87.2136 226.33 87.1065C226.213 86.9797 226.145 86.8447 226.126 86.7016C226.107 86.5475 226.072 86.4052 226.021 86.2749L225.677 85.7443C225.675 85.7001 225.649 85.6239 225.599 85.5157C225.549 85.4075 225.512 85.3429 225.489 85.322C225.486 85.2778 225.448 85.18 225.374 85.0288C225.298 84.8665 225.25 84.7859 225.228 84.787L224.862 83.842C224.861 83.8199 224.812 83.7172 224.713 83.5339C224.615 83.3507 224.541 83.2105 224.492 83.1133C224.423 83.0726 224.369 82.9923 224.33 82.8724C224.29 82.7526 224.236 82.6723 224.167 82.6316C224.031 82.3616 223.89 82.092 223.743 81.8226C223.595 81.5422 223.469 81.2551 223.365 80.9613C223.3 80.7874 223.214 80.6146 223.105 80.443C222.996 80.2603 222.903 80.0823 222.828 79.9089C222.685 79.728 222.569 79.5179 222.479 79.2788C222.399 79.0281 222.332 78.8044 222.277 78.6078L220.964 75.4349C220.958 75.3244 220.912 75.1827 220.825 75.0099C220.799 74.9226 220.741 74.776 220.653 74.5701C220.564 74.3531 220.495 74.2071 220.447 74.132C220.393 73.9575 220.315 73.8286 220.21 73.7454C220.117 73.6616 220.044 73.527 219.99 73.3414C219.94 73.2332 219.901 73.1189 219.872 72.9985C219.844 72.878 219.826 72.746 219.818 72.6023C219.794 72.5592 219.777 72.4493 219.768 72.2725L219.753 71.9906C219.752 71.9685 219.731 71.8975 219.692 71.7777C219.652 71.6579 219.612 71.527 219.571 71.385C219.53 71.232 219.49 71.0956 219.45 70.9758C219.411 70.8559 219.39 70.785 219.389 70.7628L219.35 70.0168C219.349 69.9947 219.322 69.9074 219.27 69.755C219.217 69.5915 219.19 69.4988 219.189 69.4767C219.188 69.4545 219.184 69.3827 219.177 69.2611C219.171 69.1285 219.153 68.9964 219.123 68.865C219.105 68.7329 219.093 68.6061 219.087 68.4845C219.08 68.3519 219.076 68.2745 219.075 68.2524C219.072 68.2082 219.064 68.1477 219.049 68.0709C219.034 67.9941 219.025 67.9336 219.022 67.8894C219.02 67.8342 219 67.7687 218.962 67.6931C218.925 67.6175 218.906 67.5686 218.905 67.5465C218.904 67.5244 218.922 67.4514 218.96 67.3275C218.997 67.1925 219.015 67.103 219.012 67.0588C219.009 66.9924 219.007 66.8595 219.008 66.66C219.019 66.4488 219.022 66.299 219.018 66.2106C219.015 66.1664 219.034 66.1045 219.074 66.0248C219.115 65.9451 219.145 65.8826 219.164 65.8372C219.185 65.8139 219.211 65.7683 219.24 65.7002C219.269 65.6211 219.283 65.5595 219.28 65.5153C219.3 65.4699 219.307 65.3975 219.302 65.298C219.297 65.1985 219.292 65.1046 219.288 65.0162C219.282 64.9167 219.283 64.828 219.29 64.75C219.297 64.6721 219.32 64.5877 219.36 64.497C219.358 64.4528 219.366 64.3969 219.385 64.3295C219.403 64.2509 219.411 64.2006 219.41 64.1785C219.568 64.0151 219.664 63.8438 219.699 63.6647C219.733 63.4744 219.834 63.2863 220.002 63.1002L220.338 62.8498L220.47 62.8429C220.473 62.8871 220.512 62.9072 220.59 62.9031C220.667 62.8991 220.718 62.9185 220.743 62.9616L220.847 63.0559C220.872 63.0989 220.895 63.1309 220.919 63.1519C220.952 63.1501 221.003 63.1696 221.071 63.2104C221.14 63.2511 221.187 63.293 221.211 63.336C221.35 63.4507 221.455 63.556 221.527 63.652C221.598 63.748 221.699 63.8701 221.829 64.0185L222.895 65.6417C222.897 65.6859 222.936 65.8058 223.013 66.0012C223.089 66.1856 223.14 66.2994 223.164 66.3424L223.832 67.3548C223.839 67.4874 223.908 67.6334 224.038 67.7928C224.179 67.9406 224.297 68.0785 224.392 68.2065L226.258 71.4502C226.282 71.4933 226.32 71.5799 226.371 71.7103C226.433 71.8289 226.495 71.9531 226.557 72.0829C226.619 72.2126 226.681 72.3368 226.743 72.4555C226.804 72.5631 226.847 72.6385 226.871 72.6815C226.898 72.7688 226.978 72.9253 227.112 73.151C227.256 73.3651 227.354 73.5373 227.405 73.6676L228.392 75.6939C228.387 75.6055 228.417 75.5375 228.481 75.4898C228.545 75.4421 228.575 75.3851 228.572 75.3188C228.738 74.9 228.871 74.5716 228.969 74.3338C229.067 74.0848 229.135 73.8984 229.173 73.7745C229.21 73.6395 229.238 73.5494 229.258 73.504C229.278 73.4586 229.287 73.4249 229.286 73.4028L229.879 71.7093C229.911 71.6855 229.925 71.6348 229.921 71.5575C229.916 71.4691 229.935 71.4126 229.978 71.3882C230.117 71.0706 230.228 70.7545 230.311 70.4398C230.394 70.1251 230.522 69.8081 230.693 69.4888C230.752 69.3417 230.817 69.2108 230.889 69.0962C230.961 68.9816 231.025 68.8452 231.084 68.687C231.12 68.541 231.17 68.4276 231.232 68.3468C231.305 68.2653 231.383 68.167 231.466 68.0519C231.465 68.0298 231.475 68.0071 231.496 67.9838C231.495 67.9617 231.499 67.9449 231.51 67.9332C231.52 67.9216 231.525 67.8992 231.523 67.866C231.522 67.8439 231.532 67.8213 231.552 67.798C231.594 67.7515 231.615 67.7171 231.614 67.695C231.612 67.6729 231.638 67.6273 231.689 67.5581C231.741 67.4889 231.777 67.4316 231.797 67.3862L232.113 66.7545L232.172 66.6184C232.165 66.4747 232.262 66.3145 232.463 66.1377C232.675 65.9603 232.847 65.8571 232.979 65.8281C233.146 65.8415 233.307 65.8497 233.462 65.8526C233.617 65.8556 233.759 65.9091 233.886 66.0133C233.933 66.0551 234.014 66.134 234.131 66.2498C234.248 66.3545 234.317 66.4173 234.341 66.4383C234.541 66.6716 234.703 66.9014 234.826 67.1277C234.948 67.343 235.104 67.5731 235.294 67.818L235.88 68.5354C235.902 68.5342 235.932 68.5715 235.969 68.6471C236.006 68.7227 236.026 68.7716 236.027 68.7937C236.05 68.8147 236.08 68.8519 236.116 68.9054C236.163 68.9584 236.188 69.0069 236.19 69.0511C236.261 69.1471 236.333 69.2431 236.404 69.3391C236.476 69.4351 236.57 69.5355 236.686 69.6402C236.884 69.8183 237.076 70.0021 237.264 70.1918C237.45 70.3704 237.633 70.577 237.812 70.8115C237.859 70.8755 237.932 70.9991 238.03 71.1823C238.128 71.3546 238.232 71.543 238.343 71.7478C238.464 71.941 238.568 72.135 238.656 72.3299C238.743 72.5137 238.811 72.6487 238.86 72.7348L239.933 75.1224L240.095 75.3632C240.177 75.237 240.231 75.1123 240.258 74.9889C240.285 74.8656 240.317 74.7475 240.356 74.6347L240.783 73.5816L240.867 73.278C240.864 73.2338 240.891 73.1105 240.947 72.908C241.002 72.6946 241.05 72.5535 241.091 72.4849C241.107 72.3621 241.129 72.2612 241.158 72.1821C241.187 72.103 241.222 72.0181 241.261 71.9274C241.31 71.7918 241.366 71.606 241.432 71.3698C241.496 71.1226 241.527 70.9714 241.524 70.9161C241.564 70.8254 241.626 70.6448 241.712 70.3743C241.797 70.0928 241.848 69.9072 241.866 69.8176C241.896 69.7717 241.919 69.6818 241.935 69.548C241.949 69.4032 241.966 69.297 241.984 69.2296C241.983 69.2075 241.986 69.1519 241.992 69.0629C241.999 68.9739 242.001 68.9184 242 68.8963L242.173 67.7567C242.172 67.7346 242.18 67.6788 242.198 67.5892C242.215 67.4996 242.238 67.4098 242.267 67.3196C242.295 67.2184 242.318 67.1285 242.336 67.05C242.354 66.9715 242.362 66.9212 242.361 66.899C242.359 66.8548 242.374 66.7321 242.408 66.5308C242.452 66.3179 242.491 66.1053 242.524 65.893C242.557 65.6697 242.585 65.4632 242.608 65.2735C242.631 65.0728 242.652 64.9498 242.672 64.9044C242.67 64.8602 242.702 64.7422 242.77 64.5502C242.837 64.3472 242.87 64.2347 242.869 64.2126C242.888 64.1672 242.897 64.1169 242.894 64.0616C242.891 64.0063 242.91 63.9444 242.951 63.8758C242.948 63.8316 242.972 63.7527 243.021 63.6393C243.081 63.5143 243.122 63.4401 243.143 63.4168C243.14 63.3726 243.144 63.3392 243.154 63.3165C243.164 63.2938 243.166 63.2272 243.16 63.1167C243.199 63.0149 243.25 62.9181 243.311 62.8262C243.373 62.7343 243.425 62.665 243.467 62.6185C243.504 62.4836 243.615 62.3835 243.8 62.3184C243.996 62.2417 244.115 62.2022 244.16 62.1998C244.281 62.1935 244.393 62.2208 244.496 62.2819C244.599 62.332 244.727 62.353 244.882 62.3449C244.905 62.3658 244.953 62.4298 245.025 62.5368L245.168 63.0447C245.192 63.0878 245.23 63.1634 245.28 63.2716C245.33 63.3798 245.355 63.445 245.356 63.4671C245.407 63.5863 245.437 63.7289 245.445 63.8946C245.454 64.0604 245.461 64.1986 245.467 64.3091L245.487 64.6904C245.488 64.7125 245.479 64.7463 245.459 64.7916C245.439 64.837 245.431 64.8818 245.433 64.926C245.434 64.9481 245.432 65.0202 245.428 65.1424C245.422 65.2535 245.42 65.3201 245.421 65.3422C245.424 65.3864 245.381 65.5272 245.294 65.7645C245.217 65.9902 245.169 66.1257 245.149 66.1711C245.151 66.2153 245.146 66.3264 245.133 66.5044C245.12 66.6713 245.114 66.7769 245.117 66.8211L245.145 67.3682L245.094 68.2853C245.104 68.4842 245.077 68.7018 245.011 68.9379C244.946 69.163 244.919 69.4027 244.933 69.6569C244.934 69.679 244.915 69.7354 244.875 69.8262L244.816 69.9623C244.823 70.106 244.825 70.3497 244.821 70.6935C244.816 71.0262 244.766 71.2283 244.67 71.2999L244.314 73.3966C244.315 73.4187 244.302 73.4803 244.274 73.5815C244.245 73.6717 244.232 73.7278 244.233 73.7499C244.234 73.772 244.225 73.8058 244.205 73.8511C244.196 73.8959 244.192 73.9294 244.194 73.9515L243.798 75.9173C243.784 76.0732 243.738 76.2529 243.66 76.4565C243.561 76.8939 243.433 77.3162 243.277 77.7233C243.121 78.1305 242.96 78.5435 242.794 78.9623C242.795 78.9844 242.771 79.0521 242.721 79.1656C242.672 79.279 242.649 79.3633 242.651 79.4186C242.634 79.5082 242.57 79.6667 242.46 79.8941C242.361 80.1099 242.252 80.3539 242.133 80.6261C242.014 80.8873 241.899 81.1315 241.789 81.359C241.689 81.5748 241.642 81.7269 241.647 81.8153C241.649 81.8595 241.64 81.9098 241.621 81.9662C241.602 82.0226 241.594 82.084 241.598 82.1503L241.626 82.6974C241.572 82.933 241.531 83.1956 241.501 83.4853C241.472 83.764 241.398 84.0504 241.28 84.3447C241.261 84.4012 241.242 84.4631 241.224 84.5306C241.216 84.5975 241.192 84.6652 241.151 84.7339C241.153 84.7781 241.14 84.8287 241.109 84.8857C241.079 84.9427 241.053 84.9828 241.032 85.0061C241.034 85.0282 241.004 85.0907 240.943 85.1937C240.881 85.2856 240.851 85.3426 240.852 85.3647C240.813 85.4775 240.792 85.595 240.787 85.7172C240.782 85.8283 240.759 85.9292 240.72 86.0199C240.721 86.042 240.674 86.1054 240.58 86.2101C240.497 86.3142 240.434 86.3895 240.393 86.4361C240.269 86.6088 240.046 86.7036 239.726 86.7204C239.593 86.7273 239.504 86.7209 239.459 86.7011C239.436 86.6802 239.368 86.6615 239.256 86.6452C239.156 86.6394 239.095 86.626 239.071 86.6051C239.025 86.5632 238.95 86.5006 238.846 86.4174C238.741 86.3342 238.665 86.2495 238.616 86.1634C238.57 86.1215 238.534 86.0791 238.51 86.036L238.388 85.9261L235.836 80.6901Z" fill="black"/>
<defs>
<clipPath id="clip0">
<rect width="120.824" height="38.7686" fill="white" transform="translate(162.368 68.8607) rotate(-3)"/>
</clipPath>
</defs>
</svg>
