<svg width="264" height="119" viewBox="0 0 264 119" fill="none" xmlns="http://www.w3.org/2000/svg">
<path d="M152.469 80.5846L152.114 81.6961L152.039 81.7302L147.981 92.5315L162.492 97.9832C169.684 81.3249 188.862 73.0291 206.046 79.4851C223.23 85.941 232.201 104.812 226.645 122.085L263.413 135.899L285.035 78.3465L215.263 52.1333L215.045 52.0513L213.463 51.457C212.972 51.2725 212.536 51.1086 212.045 50.9241C187.441 42.6767 160.717 55.9809 152.469 80.5846Z" fill="#5F7373"/>
<path d="M222.961 122.445C228.966 106.461 220.827 88.5245 204.843 82.5194C188.859 76.5144 170.923 84.6541 164.918 100.638C158.913 116.622 167.053 134.558 183.036 140.563C199.02 146.568 216.956 138.428 222.961 122.445ZM187.319 131.153C176.626 127.136 171.177 115.129 175.194 104.436C179.211 93.7441 191.219 88.295 201.911 92.312C212.603 96.329 218.052 108.337 214.035 119.029C209.998 129.776 198.011 135.17 187.319 131.153Z" fill="#5F7373"/>
<path d="M210.905 117.915C214.287 108.914 209.723 98.8576 200.722 95.4759C191.721 92.0942 181.665 96.6579 178.283 105.659C174.901 114.66 179.465 124.716 188.466 128.098C197.467 131.48 207.524 126.916 210.905 117.915Z" fill="#5F7373"/>
<path d="M311.276 8.3357L244.613 -16.7092L219.507 50.1172L286.115 75.1416L311.221 8.3152L311.276 8.3357ZM256.753 30.1829C249.868 34.7553 248.436 34.5907 248.327 34.5497C248.217 34.5087 247.031 33.6895 244.86 25.7149C242.608 17.4607 246.532 14.1414 250.091 15.1053C253.596 16.0487 253.867 19.6365 253.901 19.7115C253.997 19.6229 256.542 17.1554 259.802 18.7534C263.115 20.3719 263.883 25.4537 256.753 30.1829Z" fill="#5F7373"/>
<path d="M150.315 67.7606C147.367 69.6413 141.261 72.1407 138.545 62.9654C135.448 52.6508 135.378 44.2205 122.369 36.594C115.19 32.3404 109.502 32.0709 107.824 32.0631C107.64 32.0561 107.482 32.3084 107.605 32.479C108.73 33.9597 112.505 39.4867 111.976 45.202C111.969 45.3862 111.765 45.4338 111.697 45.2837C109.345 42.0971 104.423 38.1313 97.7411 34.8738C85.4473 28.8233 67.4888 28.7373 54.7922 45.6309C54.6761 45.7741 54.8329 46.0197 55.0375 45.9721C64.3156 42.4857 73.5452 51.5558 75.9708 55.7042C80.2701 62.9844 83.0833 69.0837 86.845 74.4811C106.212 102.3 137.678 97.7499 150.976 68.3203C151.119 67.9385 150.656 67.5153 150.315 67.7606Z" fill="#FFDE00"/>
<path d="M68.51 55.0174C66.1443 53.1949 57.2948 47.2555 48.9764 54.1529C46.6357 56.0749 43.8728 56.9667 42.72 57.2183C42.5699 57.2865 42.563 57.4706 42.7266 57.5321C45.4407 58.4273 52.1304 60.5048 58.4145 56.7027C60.9115 55.5243 64.609 54.2988 68.3529 55.2697C68.7894 55.4336 68.8508 55.27 68.51 55.0174Z" fill="#FFDE00"/>
<path d="M46.936 166.136C49.0339 163.339 53.8707 158.852 59.64 166.486C66.1668 175.052 69.1971 182.919 84.0572 185.483C92.274 186.94 97.6936 185.192 99.267 184.609C99.4418 184.551 99.5001 184.26 99.3253 184.143C97.7519 183.152 92.274 179.306 90.7589 173.77C90.7006 173.595 90.8754 173.479 90.992 173.595C94.3136 175.751 100.316 177.733 107.717 178.432C121.353 179.772 138.195 173.537 144.139 153.257C144.197 153.082 143.964 152.908 143.789 153.024C136.33 159.551 124.5 154.306 120.771 151.276C114.185 145.973 109.407 141.253 103.987 137.523C76.0735 118.292 48.2181 133.618 46.1201 165.845C46.1201 166.253 46.7029 166.486 46.936 166.136Z" fill="#F8CE5D"/>
</svg>
