<svg width="561" height="214" viewBox="0 0 561 214" fill="none" xmlns="http://www.w3.org/2000/svg">
<g clip-path="url(#clip0)">
<g clip-path="url(#clip1)">
<rect x="-47" width="656" height="214" fill="#FBFAF4"/>
<path d="M520.34 156.18L360.33 -1H351.66L516.09 160.43L520.34 156.18Z" fill="#F5F4ED"/>
<path d="M146.7 101.2C141.69 101.09 137.14 105.13 137.1 110.64C136.97 115.66 141.01 120.19 146.51 120.22C152.01 120.25 156.07 116.29 156.11 110.78C156.43 105.48 152.2 101.23 146.7 101.2Z" fill="#F5F4ED"/>
<path d="M146.18 137.02C141.17 136.91 136.62 140.95 136.58 146.46C136.45 151.48 140.49 156.01 145.99 156.04C151 156.15 155.55 152.11 155.59 146.6C155.91 141.3 151.68 137.05 146.18 137.02ZM147.99 141.7C147.14 141.1 148.31 140.64 148.51 140.36L148.99 140.27C149.16 141.24 148.48 141.61 147.99 141.7Z" fill="#F5F4ED"/>
<path d="M179.83 50.38L232.08 -1H223.51L175.59 46.14L179.83 50.38Z" fill="#F5F4ED"/>
<path d="M388.97 -1H380.32L516.22 132.42L520.47 128.17L388.97 -1Z" fill="#F5F4ED"/>
<path d="M418.1 -1H409.46L516.55 104.13L520.8 99.88L418.1 -1Z" fill="#F5F4ED"/>
<path d="M447.23 -1H438.61L516.88 75.84L521.14 71.59L447.23 -1Z" fill="#F5F4ED"/>
<path d="M352.3 36.93C351.36 35.85 350.31 35.53 349.06 35.5C347.81 35.47 346.64 35.93 345.55 36.87L165.74 214H194.6L349.15 61.97L504 214H532.43L352.3 36.93Z" fill="#F5F4ED"/>
<path d="M146.35 84.78C151.36 84.89 155.91 80.85 155.95 75.34C155.78 74.37 155.61 73.4 155.44 72.43C154.68 68.07 150.9 64.99 146.37 64.79C141.36 64.68 136.82 68.73 136.77 74.23C136.94 75.2 137.11 76.17 137.28 77.14C138.03 81.5 141.82 84.58 146.35 84.78ZM147.62 72.68C147.56 72.77 147.45 72.93 147.32 73.11L147.52 72.83C147.56 72.76 147.6 72.71 147.62 72.68ZM147.64 72.65C147.7 72.57 147.69 72.58 147.64 72.65V72.65Z" fill="#F5F4ED"/>
<path d="M145.75 192.06C150.76 192.17 155.3 188.13 155.35 182.62C155.18 181.65 155.01 180.68 154.84 179.71C154.08 175.35 150.3 172.27 145.77 172.07C140.76 171.95 136.21 176 136.17 181.51C136.14 182.77 136.31 183.73 136.68 184.42C137.44 188.78 141.22 191.86 145.75 192.06Z" fill="#F5F4ED"/>
<path d="M253.06 210.35L448.6 211.81L351.81 113.22L253.06 210.35Z" fill="#F5F4ED"/>
<path d="M541.08 38.34C540.76 39.4 540.25 40.74 540.22 41.99C540.66 47.41 544.89 51.66 549.91 51.77C554.64 51.68 558.09 48.58 559.08 44.16C559.4 43.1 559.51 42.33 559.34 41.37C559.18 36.15 554.95 31.9 549.93 31.79C546.94 31.82 544.4 33.02 542.8 35.3L542.88 35.78L542.6 35.58C542 36.43 541.4 37.28 541.08 38.34ZM551.55 32.49C551.43 32.66 551.38 32.73 551.36 32.75L551.55 32.49Z" fill="#F5F4ED"/>
<path d="M548.78 122.92C553.99 122.75 558.25 118.5 558.38 113.48C558.22 108.26 553.99 104.01 548.97 103.9C543.75 104.07 539.5 108.32 539.37 113.34C539.53 118.56 543.77 122.81 548.78 122.92Z" fill="#F5F4ED"/>
<path d="M548.74 158.66C553.96 158.49 558.21 154.24 558.34 149.22C558.18 144 553.95 139.75 548.93 139.64C543.72 139.81 539.46 144.06 539.33 149.08C539.3 154.58 543.53 158.83 548.74 158.66ZM546.33 143.34C546.9 143.74 547.95 144.05 547.07 144.71C546.5 144.31 545.93 143.91 546.33 143.34Z" fill="#F5F4ED"/>
<path d="M549.87 87.51C554.6 87.42 558.06 84.32 559.04 79.9C559.36 78.84 559.47 78.07 559.3 77.11C559.14 71.89 554.91 67.64 549.89 67.53C545.16 67.62 541.71 70.72 540.72 75.14C540.4 76.2 540.29 76.97 540.46 77.93C540.14 83.23 544.37 87.48 549.87 87.51ZM548.82 75.7L549.39 76.1C548.9 76.18 548.25 75.3 548.82 75.7Z" fill="#F5F4ED"/>
<path d="M-39 212.84V214H120.45L-39 212.84Z" fill="#F5F4ED"/>
<path d="M541 3.38001C540.68 4.44001 540.57 5.21001 540.74 6.17001C540.7 11.67 544.93 15.92 550.15 15.75C554.88 15.66 558.34 12.56 559.32 8.14001C559.64 7.08001 559.75 6.31001 559.58 5.35001C559.51 2.91001 558.54 0.70001 557.02 -0.98999H543.13C542.11 0.21001 541.37 1.70001 541 3.38001Z" fill="#F5F4ED"/>
<path d="M178.84 135.26L317.4 -1H308.79L174.6 131.01L178.84 135.26Z" fill="#F5F4ED"/>
<path d="M179.17 106.97L288.96 -1H280.36L174.93 102.72L179.17 106.97Z" fill="#F5F4ED"/>
<path d="M538.9 185.38C538.86 190.88 543.09 195.13 548.3 194.96C553.03 194.87 556.49 191.77 557.47 187.35C557.79 186.3 557.9 185.52 557.73 184.56C557.57 179.34 553.34 175.09 548.32 174.98C543.59 175.07 540.14 178.17 539.15 182.59C538.85 183.64 538.73 184.41 538.9 185.38Z" fill="#F5F4ED"/>
<path d="M178.71 163.26L345.74 -1H337.13L174.47 159.01L178.71 163.26Z" fill="#F5F4ED"/>
<path d="M179.5 78.68L260.52 -1H251.94L175.26 74.43L179.5 78.68Z" fill="#F5F4ED"/>
<path d="M517.21 47.55L521.47 43.3L476.37 -1H467.76L517.21 47.55Z" fill="#F5F4ED"/>
</g>
<path d="M328.759 74.7706C317.248 57.2722 292.869 47.0944 269.703 52.4139C230.393 61.4307 212.245 103.501 229.574 133.392C230.046 137.699 231.549 141.923 234.429 145.711C247.24 162.526 270.348 170.505 293.273 165.103C315.216 159.924 330.445 142.837 335.107 124.318C339.239 107.956 338.555 89.6586 328.759 74.7706ZM268.383 138.646L245.583 111.357L251.507 106.292L269.298 119.756L309.417 87.9706L315.958 91.4291L268.383 138.646Z" fill="#C3DCA5"/>
</g>
<defs>
<clipPath id="clip0">
<rect width="561" height="214" fill="white"/>
</clipPath>
<clipPath id="clip1">
<rect x="-47" width="656" height="214" fill="white"/>
</clipPath>
</defs>
</svg>
