<svg width="561" height="214" viewBox="0 0 561 214" fill="none" xmlns="http://www.w3.org/2000/svg">
<g clip-path="url(#clip0)">
<g clip-path="url(#clip1)">
<rect x="-47" width="656" height="214" fill="#FBFAF4"/>
<path d="M139.19 208.71C139.37 205.43 141.66 202.78 144.76 201.98C145.44 201.61 146.21 201.72 146.7 201.64C150.46 201.73 153.47 204.69 153.38 208.46C153.13 210.85 152 212.81 150.42 214.01H166.65C165.38 212.76 164.55 211.01 164.46 209C164.64 205.72 166.93 203.07 170.03 202.27C170.71 201.9 171.48 202.01 171.97 201.93C175.73 202.02 178.74 204.98 178.65 208.75C178.5 210.78 177.59 212.69 176.3 213.91L176.02 213.71C176.02 213.71 176.02 213.73 176.07 214.01H192.23C191.12 212.8 190.45 211.2 190.5 209.4C190.68 206.12 192.97 203.47 196.07 202.67C196.75 202.3 197.52 202.41 198.01 202.33C201.77 202.42 204.78 205.38 204.69 209.15C204.58 211.07 203.74 212.77 202.44 214.01H218.36C217.31 212.82 216.69 211.26 216.73 209.52C216.82 205.75 219.8 202.73 223.56 202.82C227.32 202.91 230.33 205.87 230.24 209.64C230.2 211.32 229.58 212.84 228.58 214.02H243.94C243 212.86 242.45 211.37 242.49 209.73C242.58 205.96 245.56 202.94 249.32 203.03C253.08 203.12 256.09 206.08 256 209.85C255.96 211.43 255.41 212.88 254.5 214.03H269.41C268.47 212.87 267.92 211.38 267.96 209.74C268.14 206.46 270.43 203.81 273.53 203.01C274.21 202.64 274.98 202.75 275.47 202.67C279.23 202.76 282.24 205.72 282.15 209.49C282.05 211.26 281.33 212.83 280.22 214.04H295.31C294.64 212.98 294.25 211.72 294.29 210.35C294.47 207.07 296.76 204.42 299.86 203.62C300.54 203.25 301.31 203.36 301.8 203.28C305.28 203.17 308.29 206.13 308.19 209.9C308.08 211.43 307.53 212.89 306.71 214.05H320.78C320.11 212.99 319.73 211.73 319.76 210.36C319.94 207.08 322.23 204.43 325.33 203.63C326.01 203.26 326.78 203.37 327.27 203.29C331.03 203.38 334.04 206.34 333.95 210.11C333.87 211.6 333.34 212.94 332.51 214.06H346.42C345.82 213.04 345.49 211.86 345.52 210.57C345.41 207.09 347.98 204.64 351.09 203.84C351.77 203.47 352.54 203.58 353.03 203.5C356.79 203.59 359.8 206.55 359.71 210.32C359.63 211.72 359.16 212.99 358.41 214.06H393.73L286.31 102.54L286.51 102.25L389.26 -1H360.85C359.66 0.97 357.52 2.27 355.04 2.21C354.27 2.1 353.5 1.98 353.02 2.07C351.16 1.79 349.62 0.63 348.65 -1H334.94C333.76 1.02 331.6 2.36 329.08 2.3C328.31 2.19 327.54 2.07 327.06 2.16C325.17 1.88 323.6 0.69 322.64 -1H308.66C307.44 0.79 305.4 1.95 303.05 1.9C302.28 1.79 301.51 1.67 301.03 1.76C299.3 1.5 297.85 0.47 296.87 -0.99H283.19C281.97 0.8 279.93 1.96 277.58 1.91C276.81 1.8 276.04 1.68 275.56 1.77C273.83 1.51 272.38 0.48 271.41 -0.98H256.41C255.17 0.46 253.34 1.36 251.27 1.32C249.26 1.27 247.47 0.4 246.24 -0.98H230.53C229.29 0.51 227.42 1.45 225.31 1.4C223.26 1.35 221.43 0.44 220.21 -0.98H205C203.76 0.34 202.01 1.16 200.04 1.11C199.27 1 198.5 0.88 198.02 0.97C196.63 0.76 195.42 0.05 194.49 -0.98H178.66C177.43 0.28 175.72 1.04 173.81 1C173.04 0.89 172.27 0.77 171.79 0.86C170.45 0.66 169.28 -0.00999997 168.37 -0.98H153.2C151.97 0.28 150.26 1.04 148.35 1C147.58 0.89 146.81 0.77 146.33 0.86C144.99 0.66 143.82 -0.01 142.91 -0.97H114.5L11 100.41L123.27 214H141.65C140.1 212.76 139.13 210.87 139.19 208.71ZM320.97 174.12C321.65 173.75 322.42 173.86 322.91 173.78C326.67 173.87 329.68 176.83 329.59 180.6C329.44 182.62 328.53 184.53 327.24 185.76L326.96 185.56C326.96 185.56 326.96 185.56 327.04 186.04C326.36 186.41 325.67 186.78 324.99 187.15C324.31 187.52 323.34 187.69 322.37 187.86C318.61 187.77 315.6 184.81 315.69 181.04C315.58 177.57 317.86 174.92 320.97 174.12ZM304.12 180.59C303.94 183.87 301.65 186.52 298.55 187.32C297.87 187.69 297.1 187.58 296.61 187.66C292.85 187.57 289.84 184.61 289.93 180.84C290.11 177.56 292.4 174.91 295.5 174.11C296.18 173.74 296.95 173.85 297.44 173.77C300.91 173.66 303.93 176.63 304.12 180.59ZM293.15 144.8C296.91 144.89 299.92 147.85 299.83 151.62C299.73 155.38 296.76 158.41 293 158.32C289.24 158.23 286.23 155.27 286.32 151.5C286.22 148.02 289.68 144.92 293.15 144.8ZM323.77 17.73C324.74 17.56 325.79 17.87 326.36 18.27C327.13 18.38 327.7 18.78 328.27 19.18L328.07 19.47C328.07 19.47 328.35 19.67 328.55 19.38C330.26 20.58 331.08 22.43 330.93 24.46C330.84 28.22 327.86 31.25 324.1 31.16C323.33 31.05 322.56 30.93 322.08 31.02C319 30.56 316.76 27.71 316.66 24.23C317.04 20.66 320.01 17.64 323.77 17.73ZM298.02 17.53C298.79 17.64 299.56 17.76 300.04 17.67C303.12 18.13 305.36 20.98 305.46 24.46C305.36 28.22 302.39 31.25 298.63 31.16C297.86 31.05 297.09 30.93 296.61 31.02C293.53 30.56 291.29 27.71 291.19 24.23C291.09 20.75 294.06 17.72 298.02 17.53ZM294.09 46.7C297.85 46.79 300.86 49.75 300.77 53.52C300.67 57.28 297.7 60.31 293.94 60.22C290.18 60.13 287.17 57.17 287.26 53.4C287.36 49.64 290.33 46.61 294.09 46.7ZM260.37 151.59C260.46 147.82 263.44 144.8 267.2 144.89C270.96 144.98 273.97 147.94 273.88 151.71C273.78 155.47 270.81 158.5 267.05 158.41C263.29 158.32 260.28 155.35 260.37 151.59ZM270.85 187.47C267.09 187.38 264.08 184.42 264.17 180.65C264.27 176.89 267.24 173.86 271 173.95C274.76 174.04 277.77 177 277.68 180.77C277.58 184.53 274.61 187.55 270.85 187.47ZM272.46 17.04C276.22 17.13 279.23 20.09 279.14 23.86C279.04 27.62 276.07 30.65 272.31 30.56C268.55 30.47 265.54 27.51 265.63 23.74C265.73 19.98 268.5 17.24 272.46 17.04ZM268.34 46.5C272.1 46.59 275.11 49.55 275.02 53.32C274.93 57.08 271.95 60.11 268.19 60.02C264.43 59.93 261.42 56.97 261.51 53.2C261.61 49.44 264.58 46.41 268.34 46.5ZM256.34 82.35C256.43 78.59 259.41 75.56 263.17 75.65C263.94 75.76 264.71 75.88 265.19 75.79C268.27 76.25 270.51 79.1 270.61 82.58C270.51 86.34 267.54 89.37 263.78 89.28C263.01 89.17 262.24 89.05 261.76 89.14C258.6 88.19 256.16 85.63 256.34 82.35ZM261.38 115.68C262.07 115.31 262.83 115.42 263.32 115.34C267.08 115.43 270.09 118.39 270 122.16C269.82 125.44 267.53 128.09 264.43 128.89C263.75 129.26 262.98 129.15 262.49 129.23C258.73 129.15 255.72 126.18 255.81 122.41C255.98 119.14 258.47 116.2 261.38 115.68ZM234.33 151.19C234.51 147.91 236.8 145.26 239.9 144.46C240.58 144.09 241.35 144.2 241.84 144.12C245.6 144.21 248.61 147.17 248.52 150.94C248.34 154.22 246.05 156.87 242.95 157.67C242.27 158.04 241.5 157.93 241.01 158.01C237.05 158.2 234.23 154.95 234.33 151.19ZM245.09 187.27C241.33 187.18 238.32 184.22 238.41 180.45C238.51 176.69 241.48 173.66 245.24 173.75C249 173.84 252.01 176.8 251.92 180.57C251.82 184.33 248.85 187.35 245.09 187.27ZM246.51 17.12C250.27 17.21 253.28 20.17 253.19 23.94C253.1 27.7 250.12 30.73 246.36 30.64C242.6 30.55 239.59 27.59 239.68 23.82C239.77 20.06 243.03 17.24 246.51 17.12ZM242.1 46.38C242.87 46.49 243.64 46.61 244.12 46.52C247.2 46.98 249.44 49.83 249.54 53.31C249.45 57.07 246.47 60.1 242.71 60.01C241.94 59.9 241.17 59.78 240.69 59.87C237.61 59.41 235.37 56.56 235.27 53.08C235.36 49.32 238.34 46.3 242.1 46.38ZM237.21 75.73C238.18 75.56 239.23 75.87 239.8 76.27C240.77 76.1 241.34 76.5 241.99 77.38C243.7 78.58 244.8 80.63 244.65 82.66C244.56 86.42 241.58 89.45 237.82 89.36C237.05 89.25 236.28 89.13 235.8 89.22C232.72 88.76 230.48 85.91 230.38 82.43C230.47 78.67 233.45 75.64 237.21 75.73ZM241.97 77.28C241.95 77.19 241.94 77.09 241.97 77.28V77.28ZM235.62 115.48C236.3 115.11 237.07 115.22 237.56 115.14C241.32 115.23 244.33 118.19 244.24 121.96C244.09 123.99 243.18 125.9 241.89 127.12L241.61 126.92C241.61 126.92 241.61 126.92 241.69 127.4C241.01 127.77 240.32 128.14 239.64 128.51C238.96 128.88 237.99 129.05 237.02 129.22C233.26 129.13 230.25 126.17 230.34 122.4C229.94 118.73 232.71 116 235.62 115.48ZM208.57 150.99C208.75 147.71 211.04 145.06 214.14 144.26C214.82 143.89 215.59 144 216.08 143.92C219.84 144.01 222.85 146.97 222.76 150.74C222.61 152.76 221.7 154.68 220.41 155.9L220.13 155.7C220.13 155.7 220.13 155.7 220.21 156.18C219.53 156.55 218.84 156.92 218.16 157.29C217.48 157.66 216.51 157.83 215.54 158C211.49 157.72 208.48 154.75 208.57 150.99ZM220.79 186.81C220.11 187.18 219.34 187.07 218.85 187.15C215.09 187.06 212.08 184.1 212.17 180.33C212.35 177.05 214.64 174.4 217.74 173.6C218.42 173.23 219.19 173.34 219.68 173.26C223.44 173.35 226.45 176.31 226.36 180.08C226.18 183.36 223.9 186.01 220.79 186.81ZM220.46 16.72C221.23 16.83 222 16.95 222.48 16.86C225.56 17.32 227.8 20.17 227.9 23.65C227.8 27.41 224.83 30.44 221.07 30.35C220.3 30.24 219.53 30.12 219.05 30.21C215.97 29.75 213.73 26.9 213.63 23.42C213.53 19.95 216.79 17.12 220.46 16.72ZM216.34 46.18C217.31 46.01 218.36 46.32 218.93 46.72C219.7 46.83 220.27 47.23 220.84 47.63L220.64 47.92C220.64 47.92 220.92 48.12 221.12 47.83C222.83 49.03 223.65 50.88 223.5 52.91C223.41 56.67 220.43 59.7 216.67 59.61C215.9 59.5 215.13 59.38 214.65 59.47C211.57 59.01 209.33 56.16 209.23 52.68C209.41 49.4 212.58 46.1 216.34 46.18ZM204.62 82.23C204.72 78.47 207.69 75.44 211.45 75.53C212.22 75.64 212.99 75.76 213.47 75.67C216.55 76.13 218.79 78.98 218.89 82.46C218.8 86.22 215.82 89.25 212.06 89.16C211.29 89.05 210.52 88.93 210.04 89.02C206.89 88.08 204.44 85.51 204.62 82.23ZM209.86 115.28C210.54 114.91 211.31 115.02 211.8 114.94C215.56 115.03 218.57 117.99 218.48 121.76C218.3 125.04 216.01 127.69 212.91 128.49C212.23 128.86 211.46 128.75 210.97 128.83C207.21 128.74 204.2 125.78 204.29 122.01C204.19 118.53 206.67 115.6 209.86 115.28ZM182.53 150.59C182.71 147.31 185 144.66 188.1 143.86C188.78 143.49 189.55 143.6 190.04 143.52C193.8 143.6 196.81 146.57 196.72 150.34C196.54 153.62 194.25 156.27 191.15 157.07C190.47 157.44 189.7 157.33 189.21 157.41C185.73 157.52 182.72 154.55 182.53 150.59ZM198.26 185.04L197.98 184.84C197.98 184.84 197.98 184.84 198.06 185.32C197.38 185.69 196.69 186.06 196.01 186.43C195.33 186.8 194.36 186.97 193.39 187.14C189.34 186.85 186.33 183.89 186.43 180.12C186.61 176.84 188.9 174.19 192 173.39C192.68 173.02 193.45 173.13 193.94 173.05C197.7 173.14 200.71 176.1 200.62 179.87C200.46 181.9 199.54 183.81 198.26 185.04ZM194.51 16.81C195.48 16.64 196.53 16.95 197.1 17.35C197.87 17.46 198.44 17.86 199.01 18.26L198.81 18.55C198.81 18.55 199.09 18.75 199.29 18.46C201 19.66 201.82 21.51 201.67 23.54C201.57 27.3 198.6 30.33 194.84 30.24C194.07 30.13 193.3 30.01 192.82 30.1C189.74 29.64 187.5 26.79 187.4 23.31C187.78 19.74 191.03 16.92 194.51 16.81ZM190.38 46.27C191.15 46.38 191.92 46.5 192.4 46.41C195.48 46.87 197.72 49.72 197.82 53.2C197.72 56.96 194.75 59.99 190.99 59.9C190.22 59.79 189.45 59.67 188.97 59.76C185.89 59.3 183.65 56.45 183.55 52.97C183.65 49.2 186.62 46.18 190.38 46.27ZM185.89 75.04C189.65 75.13 192.66 78.09 192.57 81.86C192.47 85.62 189.5 88.65 185.74 88.56C182.26 88.67 178.97 85.51 179.06 81.74C179.16 77.98 182.13 74.96 185.89 75.04ZM185.85 115.02C189.61 115.11 192.62 118.07 192.53 121.84C192.43 125.6 189.46 128.63 185.7 128.54C181.94 128.45 178.93 125.49 179.02 121.72C178.91 118.25 181.88 115.22 185.85 115.02ZM157.35 150.78C157.45 147.02 160.42 143.99 164.18 144.08C167.94 144.17 170.95 147.13 170.86 150.9C170.76 154.66 167.79 157.69 164.03 157.6C160.06 157.8 157.25 154.55 157.35 150.78ZM168.99 186.21C168.31 186.58 167.54 186.47 167.05 186.55C163.57 186.66 160.28 183.5 160.37 179.73C160.55 176.45 162.84 173.8 165.94 173C166.62 172.63 167.39 172.74 167.88 172.66C171.64 172.75 174.65 175.71 174.56 179.48C174.39 182.76 172.1 185.41 168.99 186.21ZM169.04 16.81C169.81 16.92 170.58 17.04 171.06 16.95C174.14 17.41 176.38 20.26 176.48 23.74C176.38 27.5 173.41 30.53 169.65 30.44C168.88 30.33 168.11 30.21 167.63 30.3C164.55 29.84 162.31 26.99 162.21 23.51C161.82 19.83 165.07 17.01 169.04 16.81ZM165.03 45.5C168.79 45.59 171.8 48.55 171.71 52.32C171.61 56.08 168.64 59.11 164.88 59.02C161.12 58.93 158.11 55.97 158.2 52.2C158.1 48.72 161.07 45.69 165.03 45.5ZM160.14 74.84C163.9 74.93 166.91 77.89 166.82 81.66C166.72 85.42 163.75 88.45 159.99 88.36C156.23 88.27 153.22 85.31 153.31 81.54C153.41 77.78 156.38 74.76 160.14 74.84ZM159.6 114.91C163.36 115 166.37 117.96 166.28 121.73C166.18 125.5 163.21 128.52 159.45 128.43C155.97 128.54 152.68 125.38 152.77 121.61C152.87 117.85 155.84 114.82 159.6 114.91ZM143.48 16.32C147.24 16.41 150.25 19.37 150.16 23.14C150.06 26.9 147.09 29.93 143.33 29.84C139.57 29.75 136.56 26.79 136.65 23.02C136.55 19.54 139.72 16.23 143.48 16.32ZM139.07 45.58C142.83 45.67 145.84 48.63 145.75 52.4C145.65 56.16 142.68 59.19 138.92 59.1C135.16 59.01 132.15 56.05 132.24 52.28C132.34 48.52 135.31 45.49 139.07 45.58ZM134.1 74.44C134.87 74.55 135.64 74.67 136.12 74.58C139.2 75.04 141.44 77.89 141.54 81.37C141.44 85.13 138.47 88.16 134.71 88.07C133.94 87.96 133.17 87.84 132.69 87.93C129.61 87.47 127.37 84.62 127.27 81.14C127.16 77.66 130.34 74.35 134.1 74.44ZM113.03 45.18C113.8 45.29 114.57 45.41 115.05 45.32C118.13 45.78 120.37 48.63 120.47 52.11C120.37 55.87 117.4 58.9 113.64 58.81C112.87 58.7 112.1 58.58 111.62 58.67C108.54 58.21 106.3 55.36 106.2 51.88C106.1 48.4 109.27 45.09 113.03 45.18ZM108.14 74.52C108.91 74.63 109.68 74.75 110.16 74.66C113.24 75.12 115.48 77.97 115.58 81.45C115.48 85.21 112.51 88.24 108.75 88.15C107.98 88.04 107.21 87.92 106.73 88.01C103.65 87.55 101.41 84.7 101.31 81.22C101.41 77.46 104.38 74.44 108.14 74.52ZM82.38 74.32C83.35 74.15 84.4 74.46 84.97 74.86C85.74 74.97 86.31 75.37 86.88 75.77L86.68 76.06C86.68 76.06 86.96 76.26 87.16 75.97C88.87 77.17 89.69 79.02 89.54 81.05C89.44 84.81 86.47 87.84 82.71 87.75C81.94 87.64 81.17 87.52 80.69 87.61C77.61 87.15 75.37 84.3 75.27 80.82C75.45 77.55 78.62 74.24 82.38 74.32ZM58.08 127.08C57.4 127.45 56.63 127.34 56.14 127.42C52.38 127.33 49.37 124.37 49.46 120.6C49.64 117.32 51.93 114.67 55.03 113.87C55.71 113.5 56.48 113.61 56.97 113.53C60.73 113.62 63.74 116.58 63.65 120.35C63.56 124.12 61.28 126.77 58.08 127.08ZM57.05 88.04C56.28 87.93 55.51 87.81 55.03 87.9C51.95 87.44 49.71 84.59 49.61 81.11C49.71 77.35 52.68 74.32 56.44 74.41C57.21 74.52 57.98 74.64 58.46 74.55C61.54 75.01 63.78 77.86 63.88 81.34C63.78 85.1 60.81 88.13 57.05 88.04ZM75.22 120.81C75.4 117.53 77.69 114.88 80.79 114.08C81.47 113.71 82.24 113.82 82.73 113.74C86.49 113.83 89.5 116.79 89.41 120.56C89.26 122.59 88.35 124.5 87.06 125.72L86.78 125.52C86.78 125.52 86.78 125.52 86.86 126C86.18 126.37 85.49 126.74 84.81 127.11C84.13 127.48 83.16 127.65 82.19 127.82C77.94 127.82 75.13 124.57 75.22 120.81ZM88.21 156.74C87.53 157.11 86.76 157 86.27 157.08C82.51 156.99 79.5 154.03 79.59 150.26C79.77 146.98 82.06 144.33 85.16 143.53C85.84 143.16 86.61 143.27 87.1 143.19C90.86 143.28 93.87 146.24 93.78 150.01C93.6 153.29 91.12 156.23 88.21 156.74ZM87.7 58.9C86.93 58.79 86.16 58.67 85.68 58.76C82.6 58.3 80.36 55.45 80.26 51.97C80.36 48.21 83.33 45.18 87.09 45.27C87.86 45.38 88.63 45.5 89.11 45.41C92.19 45.87 94.43 48.72 94.53 52.2C94.43 55.96 91.46 58.98 87.7 58.9ZM100.78 121.29C100.96 118.01 103.25 115.36 106.35 114.56C107.03 114.19 107.8 114.3 108.29 114.22C112.05 114.31 115.06 117.27 114.97 121.04C114.79 124.32 112.5 126.97 109.4 127.77C108.72 128.14 107.95 128.03 107.46 128.11C103.98 128.22 100.69 125.06 100.78 121.29ZM105.35 150.47C105.53 147.19 107.82 144.54 110.92 143.74C111.6 143.37 112.37 143.48 112.86 143.4C116.62 143.49 119.63 146.45 119.54 150.22C119.36 153.5 117.07 156.15 113.97 156.95C113.29 157.32 112.52 157.21 112.03 157.29C108.07 157.48 105.25 154.23 105.35 150.47ZM115.83 186.35C112.07 186.26 109.06 183.3 109.15 179.53C109.25 175.77 112.22 172.74 115.98 172.83C119.74 172.92 122.75 175.88 122.66 179.65C122.84 183.61 119.59 186.43 115.83 186.35ZM117.37 29.92C113.61 29.83 110.6 26.87 110.69 23.1C110.79 19.34 113.76 16.31 117.52 16.4C121.28 16.49 124.29 19.45 124.2 23.22C124.31 26.7 121.13 30.01 117.37 29.92ZM126.82 121.7C127 118.42 129.29 115.77 132.39 114.97C133.07 114.6 133.84 114.71 134.33 114.63C138.09 114.72 141.1 117.68 141.01 121.45C140.83 124.73 138.54 127.38 135.44 128.18C134.76 128.55 133.99 128.44 133.5 128.52C129.74 128.43 126.73 125.46 126.82 121.7ZM131.31 150.39C131.41 146.62 134.38 143.6 138.14 143.69C141.9 143.78 144.91 146.74 144.82 150.51C144.72 154.27 141.75 157.3 137.99 157.21C134.31 157.6 131.21 154.15 131.31 150.39ZM134.9 179.73C135 175.97 137.97 172.94 141.73 173.03C145.49 173.12 148.5 176.08 148.41 179.85C148.31 183.62 145.34 186.64 141.58 186.55C138.11 186.66 134.81 183.49 134.9 179.73Z" fill="#F5F4ED"/>
<path d="M495.54 31.88L495.3 178.58L568.46 105.2L495.54 31.88Z" fill="#F5F4ED"/>
<path d="M562.69 36.02C568.07 36.82 573.18 33.17 573.99 27.78C575.61 17.79 577.69 8.21 580.15 -1H559.9C557.86 7.2 556.11 15.67 554.69 24.44C553.67 30.11 557.3 35.22 562.69 36.02Z" fill="#F5F4ED"/>
<path d="M314.58 102.8L423.82 214H452.27L454.36 -1H420.03L314.58 102.8Z" fill="#F5F4ED"/>
<path d="M573.35 163.55C572.42 158.22 567.51 154.34 562.17 155.28C556.56 156.02 552.95 161.16 553.68 166.77C556.23 183.54 559.97 199.26 564.66 214H585.69C580.33 198.43 576.1 181.64 573.35 163.55Z" fill="#F5F4ED"/>
<path d="M146.99 209.08C147.85 209.68 147.28 209.28 146.99 209.08V209.08Z" fill="#F5F4ED"/>
<path d="M276.54 210.2C276.34 210.48 276.63 210.68 276.54 210.2V210.2Z" fill="#F5F4ED"/>
<path d="M57.81 80.91C58.01 80.62 58.41 80.05 58.01 80.62L57.81 80.91Z" fill="#F5F4ED"/>
<path d="M298.06 181.45C298.04 181.44 298.03 181.43 298.01 181.42C298.02 181.42 298.04 181.44 298.06 181.45Z" fill="#F5F4ED"/>
<path d="M272.46 51.52C271.89 51.12 271.69 51.41 271.29 51.98C272.14 52.57 272.26 51.8 272.46 51.52Z" fill="#F5F4ED"/>
<path d="M298.12 181.49C298.1 181.48 298.08 181.46 298.07 181.45C298.08 181.47 298.1 181.48 298.12 181.49Z" fill="#F5F4ED"/>
<path d="M271.71 153.59C271.63 153.11 270.97 152.22 270.86 152.99C270.94 153.47 271.22 153.67 271.71 153.59Z" fill="#F5F4ED"/>
<path d="M298.91 24.11L299.59 23.74C299.8 23.46 299.6 23.74 298.91 24.11Z" fill="#F5F4ED"/>
<path d="M330.62 25.51C330.42 25.8 330.42 25.8 330.42 25.8C330.42 25.8 330.7 26 330.62 25.51Z" fill="#F5F4ED"/>
<path d="M329.06 180.13C329.04 180.16 329.01 180.19 329.01 180.19C329.04 180.16 329.05 180.15 329.06 180.13Z" fill="#F5F4ED"/>
<path d="M298.2 181.55C298.18 181.54 298.15 181.51 298.11 181.49C298.15 181.51 298.17 181.53 298.2 181.55Z" fill="#F5F4ED"/>
<path d="M329.1 180.09C329.11 180.07 329.1 180.09 329.07 180.14C329.08 180.13 329.08 180.12 329.09 180.11C329.09 180.09 329.09 180.09 329.1 180.09Z" fill="#F5F4ED"/>
<path d="M298.2 181.55C298.3 181.62 298.27 181.6 298.2 181.55V181.55Z" fill="#F5F4ED"/>
<path d="M243.87 121.27C243.78 120.79 243.58 121.07 243.87 121.27V121.27Z" fill="#F5F4ED"/>
<path d="M248.7 182.13C248.7 182.13 249.07 182.81 249.55 182.73C249.46 182.25 248.81 181.36 248.7 182.13Z" fill="#F5F4ED"/>
<path d="M191.19 151.56C191.12 151.51 191.05 151.46 191.19 151.56V151.56Z" fill="#F5F4ED"/>
<path d="M191.19 151.56C191.26 151.61 191.33 151.66 191.19 151.56V151.56Z" fill="#F5F4ED"/>
<path d="M191.48 52.57L192.16 52.2C192.36 51.91 192.16 52.2 191.48 52.57Z" fill="#F5F4ED"/>
<path d="M201.35 24.59C201.15 24.88 201.15 24.88 201.15 24.88C201.44 25.08 201.44 25.08 201.35 24.59Z" fill="#F5F4ED"/>
<path d="M250.91 22.34C250.34 21.94 250.14 22.23 249.74 22.8C250.31 23.2 250.71 22.63 250.91 22.34Z" fill="#F5F4ED"/>
<path d="M168.93 180.63C169.04 180.71 169 180.68 168.93 180.63V180.63Z" fill="#F5F4ED"/>
<path d="M212.86 122.5C213.15 122.7 212.58 122.3 212.86 122.5V122.5Z" fill="#F5F4ED"/>
<path d="M212.54 81.83L213.22 81.46C213.43 81.17 213.23 81.46 212.54 81.83Z" fill="#F5F4ED"/>
</g>
<path d="M574.37 169.267C574.3 170.623 574.257 171.997 574.187 173.353C571.845 173.253 569.497 173.091 567.142 173.1C505.381 173.276 323.637 173.6 261.903 173.58C242.862 173.571 223.774 171.171 204.834 172.498C171.924 174.805 29.4651 172.996 -3.093 170.963C-2.9776 168.255 -2.86458 165.525 -2.75156 162.795C26.5379 162.01 165.854 160.58 195.129 160.545C276.459 160.447 477.746 161.06 559.06 161.028C567.018 161.027 572.585 162.024 574.37 169.267Z" fill="#5F7373"/>
<path d="M212.502 92.4337C196.934 89.4479 189.368 76.3529 186.345 71.0327C186.171 70.7505 186.483 70.3827 186.793 70.5471C189.035 71.7483 194.627 74.3941 201.184 74.6791C224.488 75.7393 229.928 98.003 230.977 104.39C231.1 105.276 230.832 105.355 230.355 104.594C225.877 97.5583 218.188 94.1865 212.502 92.4337ZM342.486 243.55C343.424 243.729 343.575 244.954 342.707 245.358C278.757 273.018 222.082 234.457 231.81 162.016C233.709 147.943 238.067 134.156 241.873 116.304C244.063 106.061 242.606 78.2761 222.762 70.3161C222.355 70.1373 222.442 69.5587 222.867 69.4838C267.615 60.9157 296.102 87.2579 306.853 114.689C312.705 129.619 314.728 143.034 313.837 151.578C313.804 151.928 314.211 152.106 314.422 151.882C323.565 143.48 325.564 129.264 325.93 125.256C325.978 124.81 326.503 124.592 326.87 124.903C329.578 127.337 338.111 136.099 343.412 153.255C352.948 184.311 340.858 197.894 330.737 218.83C321.703 237.383 335.035 242.265 342.486 243.55Z" fill="#FF6900"/>
<path d="M574.37 195.119C574.3 196.475 574.257 197.849 574.187 199.204C571.845 199.105 569.497 198.943 567.142 198.952C505.381 199.128 323.637 199.452 261.903 199.432C242.862 199.423 223.774 197.023 204.834 198.35C171.924 200.657 19.4651 198.848 -13.093 196.815C-12.9776 194.107 -12.8646 191.377 -12.7516 188.647C16.5379 187.862 165.854 186.432 195.129 186.397C276.459 186.299 477.746 186.912 559.06 186.88C567.018 186.879 572.585 187.876 574.37 195.119Z" fill="#5F7373"/>
<path d="M326.083 75.9767C326.083 75.9767 327.238 58.6263 341.451 52.013C341.451 52.013 342.192 61.5052 336.776 67.9536C333.118 71.8252 328.441 73.7343 326.083 75.9767Z" fill="#CE0A24"/>
<path d="M365.242 142.675C365.242 142.675 375.364 128.536 390.929 130.403C390.929 130.403 386.558 138.862 378.557 141.489C373.408 142.853 368.427 142.011 365.242 142.675Z" fill="#CE0A24"/>
<path d="M180.578 140.752C180.578 140.752 164.006 135.485 160.979 120.104C160.979 120.104 170.374 121.652 175.341 128.452C178.227 132.928 178.963 137.926 180.578 140.752Z" fill="#CE0A24"/>
</g>
<defs>
<clipPath id="clip0">
<rect width="561" height="214" fill="white"/>
</clipPath>
<clipPath id="clip1">
<rect x="-47" width="656" height="214" fill="white"/>
</clipPath>
</defs>
</svg>
